<?xml version="1.0" standalone="no"?>
<!DOCTYPE svg PUBLIC "-//W3C//DTD SVG 1.1//EN" "http://www.w3.org/Graphics/SVG/1.1/DTD/svg11.dtd"><svg xmlns="http://www.w3.org/2000/svg" style="background-color:#FFF" width="2260" height="1397"><path stroke="black" fill="none" stroke-width="1" d="M1626, 929.81L1327.09, 623.25L1323.99, 619.86L1321.15, 616.35L1318.58, 612.73L1316.27, 609L1314.22, 605.17L1312.43, 601.27L1310.9, 597.3L1309.61, 593.27L1308.58, 589.19L1307.8, 585.08L1307.26, 580.94L1306.96, 576.79L1306.91, 572.64L1307.1, 568.5L1307.53, 564.39L1308.19, 560.3L1309.09, 556.26L1310.22, 552.28L1311.57, 548.37L1313.15, 544.53L1314.96, 540.78L1316.99, 537.14L1319.24, 533.61L1321.71, 530.2L1324.39, 526.94L1327.29, 523.81L1330.4, 520.85L1333.72, 518.06L1337.24, 515.45L1340.97, 513.03L1344.91, 510.82L1349.04, 508.82L1600.2, 397"/><path stroke="black" fill="none" stroke-width="1" d="M1626, 970.6L1312.22, 613.92L1309.29, 610.38L1306.64, 606.72L1304.26, 602.97L1302.14, 599.12L1300.29, 595.2L1298.7, 591.2L1297.37, 587.16L1296.3, 583.06L1295.48, 578.93L1294.91, 574.79L1294.58, 570.62L1294.5, 566.46L1294.67, 562.31L1295.07, 558.19L1295.71, 554.1L1296.59, 550.05L1297.69, 546.06L1299.02, 542.14L1300.58, 538.3L1302.36, 534.55L1304.36, 530.9L1306.58, 527.36L1309.01, 523.95L1311.65, 520.68L1314.51, 517.55L1317.56, 514.58L1320.83, 511.79L1324.29, 509.17L1327.95, 506.74L1331.8, 504.52L1335.85, 502.52L1340.08, 500.74L1610.34, 397"/><path stroke="black" fill="none" stroke-width="1" d="M1626, 1018.81L1298.05, 605.07L1295.31, 601.38L1292.85, 597.59L1290.66, 593.72L1288.74, 589.77L1287.09, 585.75L1285.71, 581.68L1284.59, 577.56L1283.73, 573.42L1283.12, 569.25L1282.77, 565.07L1282.66, 560.9L1282.8, 556.74L1283.18, 552.6L1283.79, 548.5L1284.64, 544.45L1285.73, 540.45L1287.04, 536.52L1288.57, 532.67L1290.33, 528.91L1292.3, 525.26L1294.49, 521.72L1296.89, 518.3L1299.5, 515.02L1302.31, 511.88L1305.33, 508.91L1308.54, 506.1L1311.94, 503.47L1315.54, 501.04L1319.32, 498.81L1323.29, 496.79L1327.43, 495L1331.76, 493.44L1626, 397.84"/><path stroke="black" fill="none" stroke-width="1" d="M1626, 1075.61L1622.38, 1070.93L1284.56, 596.73L1282.01, 592.91L1279.74, 588.99L1277.75, 585.01L1276.04, 580.96L1274.6, 576.86L1273.43, 572.72L1272.52, 568.55L1271.87, 564.37L1271.48, 560.17L1271.34, 555.98L1271.45, 551.8L1271.8, 547.65L1272.39, 543.54L1273.22, 539.47L1274.28, 535.46L1275.57, 531.53L1277.08, 527.67L1278.81, 523.9L1280.76, 520.24L1282.93, 516.69L1285.3, 513.26L1287.87, 509.97L1290.65, 506.83L1293.62, 503.84L1296.79, 501.03L1300.14, 498.39L1303.68, 495.94L1307.4, 493.7L1311.3, 491.67L1315.37, 489.86L1319.61, 488.29L1324.01, 486.96L1626, 406.04"/><path stroke="black" fill="none" stroke-width="1" d="M1626, 1105.23L1624.84, 1105.02L1619.79, 1103.7L1614.83, 1101.99L1609.98, 1099.89L1605.26, 1097.4L1600.7, 1094.5L1596.31, 1091.2L1592.12, 1087.49L1588.16, 1083.36L1584.44, 1078.81L1580.99, 1073.84L1271.7, 588.94L1269.35, 584.98L1267.28, 580.95L1265.5, 576.87L1264, 572.74L1262.77, 568.57L1261.81, 564.37L1261.12, 560.16L1260.69, 555.94L1260.51, 551.73L1260.59, 547.53L1260.91, 543.37L1261.48, 539.24L1262.28, 535.16L1263.32, 531.13L1264.58, 527.18L1266.08, 523.32L1267.79, 519.54L1269.72, 515.87L1271.85, 512.31L1274.2, 508.87L1276.75, 505.57L1279.49, 502.42L1282.43, 499.42L1285.55, 496.59L1288.86, 493.94L1292.35, 491.48L1296.02, 489.22L1299.85, 487.18L1303.85, 485.35L1308.01, 483.75L1312.33, 482.4L1316.8, 481.31L1626, 415.59"/><path stroke="black" fill="none" stroke-width="1" d="M1626, 1107.32L1622.88, 1108.39L1617.91, 1109.72L1612.86, 1110.71L1607.74, 1111.34L1602.6, 1111.6L1597.45, 1111.51L1592.31, 1111.05L1587.2, 1110.22L1582.15, 1109.02L1577.19, 1107.44L1572.33, 1105.48L1567.6, 1103.13L1563.02, 1100.4L1558.62, 1097.28L1554.41, 1093.76L1550.42, 1089.84L1546.68, 1085.52L1543.2, 1080.79L1540.01, 1075.65L1259.44, 581.71L1257.29, 577.63L1255.43, 573.5L1253.86, 569.33L1252.57, 565.12L1251.56, 560.89L1250.82, 556.65L1250.34, 552.4L1250.13, 548.17L1250.17, 543.95L1250.46, 539.76L1251, 535.61L1251.78, 531.52L1252.79, 527.48L1254.03, 523.52L1255.51, 519.64L1257.2, 515.85L1259.1, 512.16L1261.22, 508.59L1263.54, 505.15L1266.06, 501.84L1268.78, 498.67L1271.68, 495.66L1274.78, 492.82L1278.05, 490.16L1281.49, 487.68L1285.11, 485.41L1288.89, 483.34L1292.82, 481.49L1296.92, 479.87L1301.16, 478.5L1305.54, 477.37L1310.07, 476.51L1626, 426.47"/><path stroke="black" fill="none" stroke-width="1" d="M1626, 1077.34L1625.25, 1078.88L1622.41, 1083.69L1619.26, 1088.17L1615.81, 1092.33L1612.1, 1096.15L1608.14, 1099.63L1603.95, 1102.78L1599.57, 1105.58L1595.01, 1108.05L1590.3, 1110.17L1585.46, 1111.94L1580.51, 1113.36L1575.47, 1114.43L1570.38, 1115.15L1565.25, 1115.51L1560.1, 1115.51L1554.96, 1115.15L1549.86, 1114.42L1544.81, 1113.33L1539.84, 1111.86L1534.97, 1110.03L1530.22, 1107.82L1525.62, 1105.24L1521.19, 1102.27L1516.96, 1098.93L1512.94, 1095.2L1509.17, 1091.09L1505.65, 1086.58L1502.43, 1081.69L1499.51, 1076.4L1247.74, 575.07L1245.8, 570.89L1244.16, 566.67L1242.8, 562.42L1241.73, 558.14L1240.93, 553.87L1240.41, 549.59L1240.15, 545.32L1240.16, 541.08L1240.42, 536.86L1240.93, 532.69L1241.68, 528.58L1242.67, 524.52L1243.89, 520.54L1245.34, 516.65L1247.01, 512.84L1248.89, 509.14L1250.99, 505.56L1253.29, 502.1L1255.79, 498.78L1258.48, 495.6L1261.36, 492.58L1264.42, 489.73L1267.65, 487.05L1271.06, 484.56L1274.63, 482.26L1278.36, 480.18L1282.25, 478.31L1286.28, 476.67L1290.45, 475.27L1294.76, 474.11L1299.2, 473.22L1303.77, 472.59L1626, 438.72"/><path stroke="black" fill="none" stroke-width="1" d="M1592.15, 1069.18L1590.09, 1074.85L1587.67, 1080.18L1584.9, 1085.17L1581.81, 1089.82L1578.43, 1094.12L1574.77, 1098.08L1570.86, 1101.69L1566.73, 1104.96L1562.39, 1107.88L1557.87, 1110.45L1553.19, 1112.66L1548.37, 1114.53L1543.45, 1116.05L1538.44, 1117.21L1533.36, 1118.01L1528.24, 1118.46L1523.1, 1118.55L1517.97, 1118.28L1512.86, 1117.65L1507.81, 1116.66L1502.82, 1115.3L1497.94, 1113.59L1493.18, 1111.5L1488.55, 1109.06L1484.1, 1106.24L1479.84, 1103.05L1475.78, 1099.5L1471.97, 1095.57L1468.41, 1091.27L1465.14, 1086.6L1462.17, 1081.55L1459.53, 1076.13L1236.57, 569.05L1234.85, 564.77L1233.42, 560.46L1232.28, 556.15L1231.43, 551.82L1230.85, 547.51L1230.55, 543.2L1230.51, 538.93L1230.74, 534.69L1231.21, 530.49L1231.93, 526.35L1232.9, 522.27L1234.1, 518.27L1235.52, 514.36L1237.17, 510.54L1239.04, 506.83L1241.11, 503.23L1243.39, 499.76L1245.87, 496.42L1248.54, 493.23L1251.39, 490.2L1254.43, 487.33L1257.63, 484.63L1261.01, 482.12L1264.54, 479.81L1268.23, 477.71L1272.06, 475.81L1276.04, 474.15L1280.16, 472.72L1284.4, 471.54L1288.77, 470.61L1293.25, 469.95L1297.85, 469.57L1626, 452.37M1592.15, 1069.18L1626, 963.34"/><path stroke="black" fill="none" stroke-width="1" d="M1552.87, 1074.88L1550.51, 1080.42L1547.81, 1085.61L1544.79, 1090.44L1541.46, 1094.91L1537.85, 1099.03L1534, 1102.78L1529.91, 1106.18L1525.61, 1109.22L1521.12, 1111.9L1516.48, 1114.23L1511.69, 1116.2L1506.79, 1117.81L1501.8, 1119.06L1496.74, 1119.95L1491.63, 1120.49L1486.5, 1120.67L1481.37, 1120.49L1476.26, 1119.95L1471.2, 1119.06L1466.21, 1117.81L1461.31, 1116.2L1456.52, 1114.23L1451.88, 1111.9L1447.39, 1109.22L1443.09, 1106.18L1439, 1102.78L1435.15, 1099.03L1431.54, 1094.91L1428.21, 1090.44L1425.19, 1085.61L1422.49, 1080.42L1420.13, 1074.88L1225.88, 563.66L1224.38, 559.29L1223.17, 554.92L1222.26, 550.55L1221.63, 546.18L1221.27, 541.84L1221.19, 537.53L1221.37, 533.25L1221.82, 529.02L1222.51, 524.85L1223.44, 520.75L1224.62, 516.73L1226.02, 512.8L1227.65, 508.96L1229.49, 505.23L1231.55, 501.61L1233.81, 498.13L1236.27, 494.77L1238.91, 491.57L1241.75, 488.52L1244.76, 485.63L1247.94, 482.92L1251.28, 480.4L1254.78, 478.07L1258.43, 475.94L1262.23, 474.03L1266.16, 472.34L1270.22, 470.88L1274.4, 469.67L1278.71, 468.71L1283.12, 468.01L1287.64, 467.58L1292.25, 467.44L1626, 467.44M1552.87, 1074.88L1626, 882.42"/><path stroke="black" fill="none" stroke-width="1" d="M1513.85, 1079.64L1511.2, 1085.04L1508.23, 1090.07L1504.96, 1094.73L1501.4, 1099.01L1497.59, 1102.92L1493.54, 1106.46L1489.28, 1109.63L1484.83, 1112.44L1480.21, 1114.88L1475.46, 1116.95L1470.58, 1118.66L1465.61, 1120.01L1460.56, 1121L1455.47, 1121.63L1450.34, 1121.89L1445.21, 1121.8L1440.1, 1121.36L1435.03, 1120.56L1430.03, 1119.4L1425.12, 1117.89L1420.31, 1116.03L1415.64, 1113.82L1411.13, 1111.26L1406.79, 1108.35L1402.66, 1105.1L1398.76, 1101.5L1395.1, 1097.55L1391.72, 1093.26L1388.63, 1088.63L1385.86, 1083.66L1383.43, 1078.35L1381.36, 1072.7L1215.64, 558.92L1214.36, 554.49L1213.38, 550.05L1212.69, 545.64L1212.28, 541.24L1212.15, 536.88L1212.29, 532.57L1212.69, 528.3L1213.35, 524.1L1214.26, 519.97L1215.4, 515.92L1216.78, 511.96L1218.39, 508.1L1220.21, 504.35L1222.25, 500.72L1224.49, 497.21L1226.93, 493.85L1229.56, 490.62L1232.37, 487.56L1235.36, 484.66L1238.52, 481.93L1241.84, 479.39L1245.31, 477.04L1248.93, 474.89L1252.69, 472.95L1256.58, 471.24L1260.6, 469.76L1264.73, 468.51L1268.98, 467.52L1273.33, 466.78L1277.78, 466.32L1282.31, 466.13L1286.93, 466.23L1626, 483.99M1513.85, 1079.64L1626, 826.28"/><path stroke="black" fill="none" stroke-width="1" d="M1475.14, 1083.49L1472.21, 1088.74L1468.98, 1093.59L1465.47, 1098.06L1461.69, 1102.14L1457.68, 1105.84L1453.45, 1109.16L1449.03, 1112.1L1444.45, 1114.66L1439.71, 1116.85L1434.86, 1118.67L1429.91, 1120.12L1424.87, 1121.2L1419.79, 1121.92L1414.67, 1122.28L1409.55, 1122.28L1404.43, 1121.92L1399.36, 1121.21L1394.35, 1120.14L1389.41, 1118.73L1384.59, 1116.97L1379.89, 1114.86L1375.35, 1112.41L1370.98, 1109.62L1366.8, 1106.49L1362.85, 1103.03L1359.14, 1099.24L1355.7, 1095.11L1352.54, 1090.66L1349.7, 1085.88L1347.19, 1080.78L1345.03, 1075.36L1343.26, 1069.62L1205.81, 554.86L1204.76, 550.36L1204, 545.88L1203.54, 541.43L1203.36, 537.01L1203.45, 532.65L1203.81, 528.35L1204.44, 524.11L1205.31, 519.94L1206.43, 515.86L1207.78, 511.87L1209.36, 507.99L1211.17, 504.21L1213.18, 500.56L1215.41, 497.03L1217.83, 493.65L1220.44, 490.41L1223.23, 487.32L1226.2, 484.41L1229.34, 481.66L1232.63, 479.1L1236.08, 476.73L1239.67, 474.56L1243.4, 472.61L1247.26, 470.87L1251.24, 469.36L1255.33, 468.08L1259.53, 467.06L1263.82, 466.29L1268.21, 465.78L1272.68, 465.54L1277.22, 465.59L1281.83, 465.93L1626, 502.11M1475.14, 1083.49L1626, 786.76"/><path stroke="black" fill="none" stroke-width="1" d="M1436.79, 1086.44L1433.59, 1091.52L1430.11, 1096.19L1426.36, 1100.45L1422.38, 1104.32L1418.18, 1107.8L1413.79, 1110.89L1409.22, 1113.59L1404.51, 1115.9L1399.67, 1117.84L1394.74, 1119.39L1389.72, 1120.58L1384.64, 1121.4L1379.53, 1121.85L1374.4, 1121.93L1369.29, 1121.66L1364.21, 1121.04L1359.18, 1120.06L1354.24, 1118.74L1349.39, 1117.07L1344.67, 1115.06L1340.09, 1112.72L1335.68, 1110.04L1331.47, 1107.03L1327.47, 1103.69L1323.7, 1100.04L1320.2, 1096.06L1316.97, 1091.77L1314.05, 1087.16L1311.46, 1082.25L1309.22, 1077.03L1307.35, 1071.52L1305.87, 1065.7L1196.35, 551.47L1195.53, 546.92L1195, 542.4L1194.77, 537.93L1194.81, 533.51L1195.13, 529.16L1195.71, 524.87L1196.55, 520.67L1197.64, 516.55L1198.96, 512.53L1200.52, 508.62L1202.3, 504.82L1204.3, 501.14L1206.5, 497.59L1208.91, 494.18L1211.5, 490.92L1214.28, 487.82L1217.23, 484.88L1220.35, 482.12L1223.62, 479.54L1227.05, 477.15L1230.62, 474.96L1234.32, 472.98L1238.15, 471.22L1242.09, 469.69L1246.15, 468.38L1250.3, 467.32L1254.55, 466.52L1258.88, 465.97L1263.29, 465.69L1267.77, 465.69L1272.31, 465.98L1276.9, 466.56L1626, 521.85M1436.79, 1086.44L1626, 759.03"/><path stroke="black" fill="none" stroke-width="1" d="M1398.83, 1088.54L1395.37, 1093.43L1391.64, 1097.9L1387.68, 1101.96L1383.5, 1105.61L1379.13, 1108.85L1374.58, 1111.69L1369.89, 1114.14L1365.07, 1116.2L1360.14, 1117.88L1355.13, 1119.17L1350.06, 1120.09L1344.95, 1120.64L1339.83, 1120.82L1334.72, 1120.64L1329.63, 1120.1L1324.59, 1119.21L1319.63, 1117.98L1314.77, 1116.4L1310.02, 1114.48L1305.41, 1112.23L1300.97, 1109.66L1296.71, 1106.75L1292.66, 1103.53L1288.84, 1100L1285.28, 1096.16L1281.98, 1092.01L1278.99, 1087.56L1276.31, 1082.82L1273.98, 1077.78L1272.01, 1072.47L1270.42, 1066.87L1269.25, 1060.99L1187.21, 548.78L1186.62, 544.19L1186.33, 539.65L1186.32, 535.17L1186.59, 530.76L1187.13, 526.42L1187.94, 522.17L1188.99, 518.01L1190.29, 513.95L1191.82, 510L1193.58, 506.17L1195.56, 502.46L1197.74, 498.89L1200.13, 495.46L1202.7, 492.17L1205.47, 489.05L1208.4, 486.09L1211.5, 483.31L1214.76, 480.71L1218.17, 478.3L1221.72, 476.1L1225.4, 474.09L1229.2, 472.31L1233.11, 470.75L1237.14, 469.41L1241.26, 468.32L1245.46, 467.48L1249.75, 466.9L1254.11, 466.58L1258.53, 466.53L1263, 466.76L1267.52, 467.28L1272.08, 468.11L1626, 543.34M1398.83, 1088.54L1626, 740.05"/><path stroke="black" fill="none" stroke-width="1" d="M1361.32, 1089.81L1357.6, 1094.5L1353.65, 1098.76L1349.48, 1102.6L1345.12, 1106.01L1340.58, 1109.02L1335.9, 1111.61L1331.09, 1113.81L1326.17, 1115.61L1321.16, 1117.02L1316.1, 1118.04L1310.99, 1118.69L1305.87, 1118.97L1300.75, 1118.88L1295.65, 1118.43L1290.61, 1117.63L1285.63, 1116.48L1280.74, 1114.99L1275.97, 1113.16L1271.34, 1111L1266.86, 1108.52L1262.56, 1105.72L1258.46, 1102.6L1254.59, 1099.18L1250.96, 1095.45L1247.6, 1091.44L1244.53, 1087.13L1241.77, 1082.54L1239.35, 1077.67L1237.28, 1072.53L1235.58, 1067.12L1234.29, 1061.46L1233.42, 1055.54L1178.36, 546.79L1178.01, 542.17L1177.95, 537.62L1178.17, 533.14L1178.67, 528.74L1179.43, 524.44L1180.45, 520.23L1181.72, 516.13L1183.22, 512.14L1184.96, 508.27L1186.91, 504.53L1189.08, 500.93L1191.45, 497.47L1194.01, 494.16L1196.75, 491.02L1199.67, 488.04L1202.76, 485.24L1206, 482.62L1209.39, 480.19L1212.92, 477.96L1216.58, 475.93L1220.36, 474.12L1224.26, 472.53L1228.25, 471.18L1232.34, 470.06L1236.51, 469.18L1240.76, 468.56L1245.08, 468.2L1249.45, 468.1L1253.87, 468.29L1258.33, 468.75L1262.82, 469.51L1267.33, 470.57L1624.43, 566.26L1626, 566.73M1361.32, 1089.81L1626, 727.85"/><path stroke="black" fill="none" stroke-width="1" d="M1324.28, 1090.3L1320.32, 1094.78L1316.15, 1098.81L1311.79, 1102.42L1307.26, 1105.59L1302.57, 1108.34L1297.76, 1110.68L1292.84, 1112.62L1287.84, 1114.15L1282.78, 1115.3L1277.67, 1116.05L1272.54, 1116.43L1267.42, 1116.44L1262.31, 1116.08L1257.25, 1115.37L1252.26, 1114.3L1247.36, 1112.9L1242.56, 1111.15L1237.9, 1109.08L1233.39, 1106.68L1229.05, 1103.97L1224.91, 1100.95L1220.98, 1097.63L1217.29, 1094.02L1213.87, 1090.12L1210.72, 1085.93L1207.88, 1081.48L1205.36, 1076.76L1203.19, 1071.78L1201.39, 1066.54L1199.98, 1061.06L1198.98, 1055.35L1198.41, 1049.4L1169.76, 545.51L1169.64, 540.87L1169.81, 536.32L1170.27, 531.85L1170.99, 527.49L1171.97, 523.22L1173.21, 519.07L1174.68, 515.03L1176.39, 511.12L1178.32, 507.35L1180.47, 503.71L1182.82, 500.22L1185.36, 496.89L1188.09, 493.72L1191, 490.71L1194.07, 487.89L1197.3, 485.25L1200.68, 482.8L1204.19, 480.54L1207.84, 478.5L1211.6, 476.67L1215.47, 475.05L1219.44, 473.67L1223.5, 472.52L1227.65, 471.61L1231.86, 470.95L1236.14, 470.55L1240.47, 470.42L1244.85, 470.55L1249.26, 470.97L1253.69, 471.67L1258.14, 472.66L1262.59, 473.95L1610.6, 587.03L1614.96, 588.6L1619.15, 590.41L1623.14, 592.45L1626, 594.15M1324.28, 1090.3L1626, 721.07"/><path stroke="black" fill="none" stroke-width="1" d="M1287.75, 1090.03L1283.57, 1094.28L1279.19, 1098.09L1274.65, 1101.44L1269.96, 1104.37L1265.14, 1106.87L1260.22, 1108.95L1255.21, 1110.62L1250.14, 1111.88L1245.03, 1112.75L1239.89, 1113.24L1234.76, 1113.35L1229.65, 1113.09L1224.58, 1112.46L1219.57, 1111.49L1214.64, 1110.16L1209.82, 1108.5L1205.13, 1106.51L1200.59, 1104.2L1196.21, 1101.58L1192.03, 1098.65L1188.05, 1095.42L1184.31, 1091.9L1180.82, 1088.11L1177.6, 1084.04L1174.68, 1079.7L1172.08, 1075.11L1169.81, 1070.27L1167.9, 1065.19L1166.37, 1059.88L1165.24, 1054.34L1164.53, 1048.59L1164.27, 1042.63L1161.36, 544.94L1161.48, 540.3L1161.88, 535.76L1162.56, 531.32L1163.51, 526.99L1164.71, 522.78L1166.15, 518.69L1167.84, 514.73L1169.74, 510.91L1171.87, 507.24L1174.2, 503.71L1176.73, 500.35L1179.44, 497.15L1182.34, 494.12L1185.4, 491.27L1188.61, 488.6L1191.97, 486.13L1195.48, 483.85L1199.11, 481.79L1202.85, 479.93L1206.71, 478.29L1210.66, 476.88L1214.7, 475.7L1218.82, 474.77L1223.01, 474.08L1227.26, 473.64L1231.55, 473.46L1235.89, 473.55L1240.25, 473.91L1244.64, 474.56L1249.03, 475.49L1253.43, 476.71L1257.81, 478.24L1595.9, 608.02L1600.18, 609.82L1604.26, 611.85L1608.15, 614.09L1611.84, 616.55L1615.33, 619.2L1618.61, 622.03L1621.68, 625.04L1624.54, 628.21L1626, 630.03M1287.75, 1090.03L1622.94, 722.12L1625.96, 718.59L1626, 718.54"/><path stroke="black" fill="none" stroke-width="1" d="M1251.78, 1089.06L1247.38, 1093.08L1242.81, 1096.63L1238.1, 1099.74L1233.27, 1102.4L1228.33, 1104.64L1223.31, 1106.45L1218.23, 1107.85L1213.1, 1108.84L1207.96, 1109.44L1202.81, 1109.66L1197.68, 1109.49L1192.59, 1108.96L1187.57, 1108.07L1182.62, 1106.84L1177.78, 1105.26L1173.06, 1103.35L1168.48, 1101.12L1164.07, 1098.58L1159.84, 1095.73L1155.82, 1092.59L1152.02, 1089.17L1148.47, 1085.46L1145.18, 1081.5L1142.19, 1077.27L1139.5, 1072.8L1137.13, 1068.08L1135.12, 1063.14L1133.48, 1057.97L1132.22, 1052.6L1131.38, 1047.02L1130.97, 1041.25L1131.01, 1035.29L1153.13, 545.08L1153.49, 540.45L1154.12, 535.93L1155.03, 531.53L1156.19, 527.25L1157.61, 523.1L1159.26, 519.09L1161.15, 515.22L1163.25, 511.5L1165.56, 507.94L1168.08, 504.54L1170.78, 501.3L1173.65, 498.24L1176.7, 495.37L1179.9, 492.67L1183.26, 490.18L1186.74, 487.88L1190.36, 485.79L1194.09, 483.91L1197.94, 482.25L1201.87, 480.81L1205.9, 479.61L1210, 478.64L1214.16, 477.92L1218.38, 477.44L1222.65, 477.23L1226.95, 477.27L1231.28, 477.59L1235.62, 478.18L1239.97, 479.05L1244.31, 480.21L1248.64, 481.66L1252.94, 483.42L1580.31, 629.17L1584.49, 631.2L1588.47, 633.44L1592.24, 635.89L1595.79, 638.54L1599.14, 641.37L1602.27, 644.37L1605.18, 647.54L1607.88, 650.86L1610.35, 654.31L1612.6, 657.89L1614.62, 661.58L1616.42, 665.38L1617.99, 669.27L1619.32, 673.23L1620.42, 677.26L1621.29, 681.35L1621.92, 685.48L1622.3, 689.64L1622.45, 693.83L1622.35, 698.01L1622, 702.2L1621.4, 706.37L1620.55, 710.51L1619.45, 714.61L1618.1, 718.67L1616.48, 722.66L1614.61, 726.57L1612.47, 730.4L1610.07, 734.13L1607.41, 737.74L1604.47, 741.24L1601.27, 744.6L1251.78, 1089.06"/><path stroke="black" fill="none" stroke-width="1" d="M1216.38, 1087.41L1211.78, 1091.18L1207.04, 1094.48L1202.17, 1097.33L1197.21, 1099.73L1192.17, 1101.69L1187.06, 1103.23L1181.92, 1104.36L1176.75, 1105.08L1171.59, 1105.41L1166.44, 1105.35L1161.34, 1104.91L1156.29, 1104.12L1151.32, 1102.97L1146.46, 1101.47L1141.71, 1099.65L1137.1, 1097.5L1132.65, 1095.03L1128.38, 1092.27L1124.31, 1089.21L1120.46, 1085.86L1116.85, 1082.25L1113.5, 1078.37L1110.43, 1074.25L1107.66, 1069.88L1105.21, 1065.27L1103.09, 1060.45L1101.34, 1055.42L1099.96, 1050.18L1098.99, 1044.75L1098.43, 1039.15L1098.32, 1033.37L1098.66, 1027.43L1145.03, 545.94L1145.62, 541.32L1146.49, 536.84L1147.62, 532.48L1149, 528.27L1150.63, 524.19L1152.49, 520.27L1154.57, 516.5L1156.86, 512.89L1159.35, 509.45L1162.04, 506.18L1164.9, 503.09L1167.94, 500.18L1171.13, 497.46L1174.47, 494.93L1177.95, 492.61L1181.55, 490.49L1185.27, 488.59L1189.1, 486.9L1193.03, 485.44L1197.04, 484.21L1201.12, 483.22L1205.27, 482.46L1209.47, 481.96L1213.71, 481.7L1217.99, 481.71L1222.29, 481.98L1226.59, 482.52L1230.9, 483.34L1235.2, 484.43L1239.48, 485.82L1243.73, 487.5L1247.94, 489.48L1563.84, 650.44L1567.91, 652.68L1571.77, 655.13L1575.41, 657.78L1578.83, 660.61L1582.02, 663.62L1584.99, 666.79L1587.74, 670.11L1590.25, 673.56L1592.54, 677.14L1594.6, 680.84L1596.43, 684.64L1598.03, 688.53L1599.39, 692.49L1600.51, 696.53L1601.4, 700.61L1602.04, 704.74L1602.45, 708.91L1602.62, 713.09L1602.54, 717.27L1602.22, 721.45L1601.65, 725.62L1600.83, 729.75L1599.76, 733.85L1598.44, 737.89L1596.87, 741.86L1595.04, 745.76L1592.96, 749.57L1590.62, 753.28L1588.02, 756.88L1585.16, 760.36L1582.04, 763.69L1578.66, 766.88L1216.38, 1087.41"/><path stroke="black" fill="none" stroke-width="1" d="M1181.59, 1085.12L1176.8, 1088.63L1171.89, 1091.67L1166.89, 1094.25L1161.81, 1096.38L1156.68, 1098.07L1151.51, 1099.33L1146.32, 1100.18L1141.13, 1100.63L1135.96, 1100.68L1130.83, 1100.35L1125.76, 1099.65L1120.77, 1098.59L1115.87, 1097.18L1111.1, 1095.44L1106.46, 1093.36L1101.97, 1090.98L1097.67, 1088.29L1093.55, 1085.31L1089.65, 1082.04L1085.99, 1078.51L1082.57, 1074.72L1079.43, 1070.68L1076.58, 1066.4L1074.04, 1061.9L1071.83, 1057.18L1069.97, 1052.26L1068.48, 1047.15L1067.38, 1041.85L1066.69, 1036.39L1066.42, 1030.77L1066.6, 1025L1067.24, 1019.1L1137.01, 547.5L1137.84, 542.92L1138.93, 538.48L1140.28, 534.19L1141.88, 530.04L1143.72, 526.06L1145.77, 522.23L1148.05, 518.57L1150.53, 515.08L1153.19, 511.77L1156.05, 508.64L1159.07, 505.69L1162.25, 502.94L1165.58, 500.39L1169.05, 498.04L1172.64, 495.89L1176.36, 493.97L1180.18, 492.25L1184.09, 490.77L1188.09, 489.51L1192.16, 488.49L1196.29, 487.71L1200.47, 487.17L1204.7, 486.88L1208.95, 486.85L1213.22, 487.07L1217.5, 487.57L1221.78, 488.33L1226.05, 489.37L1230.29, 490.7L1234.49, 492.3L1238.65, 494.21L1242.75, 496.4L1546.5, 671.78L1550.45, 674.23L1554.18, 676.88L1557.68, 679.72L1560.94, 682.73L1563.98, 685.9L1566.78, 689.22L1569.34, 692.68L1571.68, 696.27L1573.78, 699.97L1575.64, 703.77L1577.27, 707.67L1578.65, 711.64L1579.8, 715.67L1580.71, 719.76L1581.38, 723.89L1581.81, 728.06L1582, 732.24L1581.94, 736.42L1581.64, 740.6L1581.09, 744.76L1580.3, 748.89L1579.26, 752.98L1577.98, 757.01L1576.44, 760.98L1574.66, 764.87L1572.63, 768.67L1570.34, 772.37L1567.8, 775.95L1565.01, 779.41L1561.97, 782.72L1558.67, 785.89L1555.12, 788.9L1181.59, 1085.12"/><path stroke="black" fill="none" stroke-width="1" d="M1147.43, 1082.25L1142.46, 1085.49L1137.41, 1088.26L1132.28, 1090.56L1127.11, 1092.41L1121.9, 1093.83L1116.67, 1094.82L1111.45, 1095.39L1106.25, 1095.56L1101.09, 1095.34L1095.99, 1094.74L1090.97, 1093.77L1086.05, 1092.45L1081.24, 1090.79L1076.57, 1088.8L1072.05, 1086.49L1067.7, 1083.88L1063.54, 1080.97L1059.6, 1077.78L1055.88, 1074.32L1052.4, 1070.6L1049.2, 1066.64L1046.27, 1062.45L1043.65, 1058.04L1041.35, 1053.41L1039.39, 1048.59L1037.79, 1043.59L1036.57, 1038.42L1035.74, 1033.08L1035.33, 1027.6L1035.35, 1021.98L1035.82, 1016.23L1036.76, 1010.38L1129.04, 549.77L1130.1, 545.24L1131.42, 540.85L1132.99, 536.63L1134.8, 532.57L1136.84, 528.68L1139.09, 524.96L1141.55, 521.42L1144.2, 518.06L1147.04, 514.88L1150.05, 511.9L1153.22, 509.11L1156.54, 506.53L1160, 504.15L1163.59, 501.98L1167.3, 500.02L1171.11, 498.28L1175.01, 496.77L1179, 495.49L1183.06, 494.44L1187.18, 493.63L1191.35, 493.06L1195.56, 492.74L1199.79, 492.67L1204.05, 492.86L1208.31, 493.31L1212.56, 494.02L1216.79, 495.01L1221, 496.27L1225.17, 497.81L1229.29, 499.64L1233.35, 501.76L1237.33, 504.17L1528.29, 693.13L1532.11, 695.79L1535.7, 698.63L1539.04, 701.65L1542.15, 704.83L1545.01, 708.16L1547.64, 711.63L1550.02, 715.22L1552.17, 718.93L1554.07, 722.74L1555.73, 726.64L1557.15, 730.61L1558.32, 734.65L1559.26, 738.75L1559.95, 742.88L1560.4, 747.05L1560.61, 751.23L1560.57, 755.42L1560.29, 759.6L1559.77, 763.76L1559, 767.89L1557.99, 771.97L1556.73, 776L1555.23, 779.96L1553.49, 783.85L1551.5, 787.64L1549.26, 791.33L1546.78, 794.9L1544.05, 798.34L1541.08, 801.65L1537.86, 804.8L1534.39, 807.79L1530.68, 810.6L1147.43, 1082.25"/><path stroke="black" fill="none" stroke-width="1" d="M1113.93, 1078.83L1108.81, 1081.79L1103.62, 1084.28L1098.38, 1086.3L1093.12, 1087.87L1087.85, 1089.01L1082.58, 1089.71L1077.34, 1090L1072.15, 1089.9L1067.01, 1089.4L1061.96, 1088.54L1057, 1087.31L1052.16, 1085.74L1047.46, 1083.83L1042.9, 1081.59L1038.51, 1079.06L1034.32, 1076.22L1030.32, 1073.1L1026.55, 1069.72L1023.02, 1066.07L1019.75, 1062.19L1016.76, 1058.07L1014.06, 1053.73L1011.67, 1049.2L1009.61, 1044.47L1007.91, 1039.56L1006.57, 1034.49L1005.61, 1029.26L1005.06, 1023.9L1004.93, 1018.41L1005.23, 1012.8L1005.99, 1007.1L1007.23, 1001.31L1121.08, 552.74L1122.37, 548.26L1123.91, 543.95L1125.7, 539.81L1127.71, 535.84L1129.95, 532.05L1132.39, 528.45L1135.03, 525.04L1137.85, 521.81L1140.85, 518.79L1144.01, 515.96L1147.33, 513.34L1150.78, 510.92L1154.36, 508.72L1158.06, 506.74L1161.86, 504.98L1165.76, 503.44L1169.74, 502.13L1173.79, 501.05L1177.9, 500.21L1182.06, 499.61L1186.26, 499.26L1190.48, 499.16L1194.72, 499.31L1198.96, 499.72L1203.19, 500.39L1207.41, 501.33L1211.59, 502.53L1215.73, 504.01L1219.81, 505.77L1223.83, 507.82L1227.77, 510.15L1231.63, 512.77L1509.22, 714.44L1512.9, 717.3L1516.34, 720.33L1519.52, 723.52L1522.46, 726.87L1525.15, 730.34L1527.59, 733.95L1529.78, 737.67L1531.73, 741.48L1533.43, 745.39L1534.88, 749.38L1536.09, 753.42L1537.05, 757.52L1537.76, 761.67L1538.24, 765.84L1538.46, 770.02L1538.45, 774.21L1538.19, 778.39L1537.69, 782.56L1536.94, 786.69L1535.96, 790.77L1534.73, 794.8L1533.26, 798.76L1531.54, 802.64L1529.59, 806.43L1527.4, 810.11L1524.97, 813.68L1522.3, 817.11L1519.39, 820.41L1516.24, 823.55L1512.85, 826.53L1509.22, 829.33L1505.36, 831.94L1113.93, 1078.83"/><path stroke="black" fill="none" stroke-width="1" d="M1081.1, 1074.91L1075.83, 1077.59L1070.53, 1079.79L1065.2, 1081.53L1059.87, 1082.81L1054.55, 1083.66L1049.26, 1084.08L1044.02, 1084.09L1038.84, 1083.71L1033.75, 1082.95L1028.76, 1081.82L1023.88, 1080.33L1019.13, 1078.5L1014.54, 1076.35L1010.11, 1073.89L1005.87, 1071.13L1001.83, 1068.08L998.01, 1064.76L994.42, 1061.19L991.09, 1057.37L988.03, 1053.32L985.26, 1049.06L982.79, 1044.6L980.65, 1039.95L978.84, 1035.12L977.39, 1030.14L976.32, 1025.01L975.63, 1019.75L975.36, 1014.37L975.5, 1008.89L976.09, 1003.32L977.14, 997.67L978.67, 991.96L1113.1, 556.4L1114.62, 551.99L1116.38, 547.75L1118.37, 543.7L1120.59, 539.84L1123.01, 536.17L1125.64, 532.7L1128.45, 529.42L1131.44, 526.34L1134.59, 523.47L1137.9, 520.81L1141.34, 518.36L1144.92, 516.12L1148.61, 514.11L1152.4, 512.31L1156.3, 510.75L1160.27, 509.41L1164.32, 508.31L1168.42, 507.44L1172.57, 506.81L1176.76, 506.43L1180.97, 506.3L1185.2, 506.41L1189.43, 506.78L1193.64, 507.41L1197.84, 508.3L1202, 509.46L1206.12, 510.88L1210.18, 512.58L1214.17, 514.55L1218.08, 516.8L1221.9, 519.34L1225.62, 522.16L1489.29, 735.68L1492.82, 738.73L1496.1, 741.94L1499.11, 745.29L1501.87, 748.79L1504.37, 752.41L1506.62, 756.14L1508.62, 759.97L1510.36, 763.89L1511.86, 767.88L1513.1, 771.94L1514.09, 776.05L1514.84, 780.2L1515.33, 784.37L1515.58, 788.57L1515.59, 792.76L1515.35, 796.95L1514.87, 801.11L1514.15, 805.25L1513.18, 809.33L1511.98, 813.36L1510.54, 817.33L1508.86, 821.2L1506.94, 824.99L1504.79, 828.67L1502.4, 832.23L1499.78, 835.67L1496.92, 838.96L1493.84, 842.09L1490.52, 845.07L1486.98, 847.86L1483.2, 850.46L1479.2, 852.86L1081.1, 1074.91"/><path stroke="black" fill="none" stroke-width="1" d="M1048.96, 1070.53L1043.56, 1072.92L1038.16, 1074.83L1032.75, 1076.27L1027.37, 1077.27L1022.02, 1077.83L1016.72, 1077.97L1011.5, 1077.7L1006.36, 1077.05L1001.32, 1076.02L996.4, 1074.63L991.61, 1072.89L986.97, 1070.82L982.51, 1068.43L978.22, 1065.74L974.13, 1062.76L970.26, 1059.51L966.63, 1056L963.24, 1052.25L960.12, 1048.27L957.27, 1044.07L954.73, 1039.68L952.5, 1035.1L950.6, 1030.35L949.05, 1025.44L947.86, 1020.4L947.05, 1015.23L946.64, 1009.95L946.64, 1004.57L947.06, 999.11L947.94, 993.59L949.27, 988.01L951.08, 982.39L1105.05, 560.73L1106.79, 556.4L1108.76, 552.26L1110.96, 548.31L1113.38, 544.57L1115.99, 541.02L1118.79, 537.68L1121.77, 534.55L1124.91, 531.63L1128.21, 528.92L1131.65, 526.43L1135.22, 524.16L1138.91, 522.11L1142.7, 520.28L1146.59, 518.68L1150.56, 517.32L1154.6, 516.19L1158.7, 515.29L1162.85, 514.64L1167.03, 514.23L1171.24, 514.06L1175.46, 514.15L1179.67, 514.48L1183.88, 515.07L1188.06, 515.92L1192.21, 517.03L1196.31, 518.4L1200.35, 520.04L1204.32, 521.94L1208.2, 524.12L1212, 526.58L1215.68, 529.31L1219.25, 532.33L1468.53, 756.78L1471.9, 760.02L1475.01, 763.4L1477.84, 766.91L1480.42, 770.55L1482.73, 774.3L1484.78, 778.14L1486.57, 782.08L1488.11, 786.08L1489.39, 790.16L1490.42, 794.28L1491.19, 798.44L1491.72, 802.62L1491.99, 806.82L1492.02, 811.03L1491.8, 815.22L1491.34, 819.39L1490.64, 823.53L1489.7, 827.62L1488.52, 831.65L1487.1, 835.62L1485.44, 839.5L1483.56, 843.28L1481.44, 846.96L1479.09, 850.53L1476.51, 853.96L1473.71, 857.25L1470.68, 860.39L1467.43, 863.36L1463.95, 866.15L1460.26, 868.75L1456.35, 871.14L1452.22, 873.33L1048.96, 1070.53"/><path stroke="black" fill="none" stroke-width="1" d="M1017.54, 1065.73L1012.03, 1067.82L1006.54, 1069.43L1001.07, 1070.58L995.65, 1071.29L990.29, 1071.56L985, 1071.42L979.8, 1070.88L974.71, 1069.95L969.73, 1068.66L964.9, 1067.01L960.22, 1065.02L955.7, 1062.71L951.37, 1060.1L947.24, 1057.19L943.32, 1054.01L939.63, 1050.56L936.18, 1046.87L933, 1042.95L930.09, 1038.82L927.48, 1034.49L925.17, 1029.97L923.18, 1025.29L921.53, 1020.46L920.24, 1015.49L919.31, 1010.39L918.77, 1005.2L918.63, 999.91L918.9, 994.54L919.61, 989.12L920.76, 983.66L922.37, 978.16L924.46, 972.65L1096.9, 565.74L1098.86, 561.49L1101.05, 557.45L1103.45, 553.62L1106.05, 550L1108.84, 546.59L1111.81, 543.39L1114.95, 540.42L1118.24, 537.66L1121.68, 535.12L1125.24, 532.8L1128.93, 530.72L1132.72, 528.86L1136.6, 527.23L1140.57, 525.83L1144.61, 524.67L1148.71, 523.75L1152.85, 523.07L1157.03, 522.63L1161.23, 522.43L1165.44, 522.48L1169.65, 522.79L1173.85, 523.34L1178.02, 524.15L1182.16, 525.21L1186.25, 526.53L1190.27, 528.12L1194.23, 529.97L1198.1, 532.08L1201.87, 534.46L1205.53, 537.11L1209.07, 540.04L1212.48, 543.24L1446.95, 777.71L1450.15, 781.12L1453.07, 784.66L1455.73, 788.32L1458.11, 792.1L1460.22, 795.96L1462.07, 799.92L1463.65, 803.94L1464.98, 808.03L1466.04, 812.17L1466.85, 816.34L1467.4, 820.54L1467.7, 824.75L1467.76, 828.96L1467.56, 833.16L1467.12, 837.34L1466.44, 841.49L1465.52, 845.58L1464.36, 849.62L1462.96, 853.59L1461.33, 857.47L1459.47, 861.27L1457.38, 864.95L1455.07, 868.51L1452.53, 871.95L1449.77, 875.24L1446.79, 878.38L1443.6, 881.35L1440.19, 884.14L1436.57, 886.75L1432.73, 889.15L1428.69, 891.33L1424.45, 893.29L1017.54, 1065.73"/><path stroke="black" fill="none" stroke-width="1" d="M986.83, 1060.56L981.23, 1062.35L975.66, 1063.66L970.15, 1064.51L964.71, 1064.93L959.34, 1064.91L954.08, 1064.49L948.92, 1063.67L943.89, 1062.48L939, 1060.92L934.27, 1059.03L929.71, 1056.8L925.32, 1054.26L921.14, 1051.42L917.17, 1048.3L913.43, 1044.92L909.93, 1041.29L906.69, 1037.44L903.72, 1033.36L901.03, 1029.09L898.65, 1024.63L896.58, 1020.01L894.84, 1015.24L893.45, 1010.33L892.41, 1005.31L891.75, 1000.18L891.48, 994.97L891.61, 989.69L892.16, 984.35L893.13, 978.98L894.56, 973.59L896.45, 968.19L898.81, 962.81L1088.62, 571.39L1090.79, 567.25L1093.18, 563.32L1095.78, 559.61L1098.56, 556.12L1101.53, 552.86L1104.66, 549.82L1107.95, 547L1111.38, 544.41L1114.94, 542.05L1118.63, 539.92L1122.41, 538.02L1126.3, 536.36L1130.27, 534.93L1134.3, 533.74L1138.4, 532.78L1142.54, 532.07L1146.72, 531.61L1150.92, 531.38L1155.13, 531.4L1159.34, 531.67L1163.53, 532.19L1167.7, 532.96L1171.83, 533.99L1175.91, 535.27L1179.92, 536.8L1183.86, 538.59L1187.72, 540.65L1191.48, 542.96L1195.12, 545.54L1198.64, 548.38L1202.03, 551.49L1205.27, 554.86L1424.57, 798.43L1427.59, 802L1430.33, 805.69L1432.79, 809.49L1434.97, 813.39L1436.88, 817.37L1438.52, 821.41L1439.89, 825.52L1440.99, 829.68L1441.84, 833.87L1442.43, 838.08L1442.76, 842.3L1442.83, 846.53L1442.66, 850.74L1442.25, 854.93L1441.58, 859.08L1440.68, 863.19L1439.54, 867.23L1438.17, 871.21L1436.56, 875.1L1434.73, 878.9L1432.67, 882.58L1430.38, 886.15L1427.88, 889.59L1425.16, 892.89L1422.22, 896.03L1419.08, 899.01L1415.72, 901.81L1412.17, 904.41L1408.4, 906.82L1404.44, 909.01L1400.29, 910.98L1395.94, 912.71L986.83, 1060.56"/><path stroke="black" fill="none" stroke-width="1" d="M956.85, 1055.07L951.17, 1056.55L945.55, 1057.56L940.01, 1058.12L934.56, 1058.23L929.21, 1057.94L923.99, 1057.23L918.89, 1056.14L913.94, 1054.69L909.14, 1052.88L904.52, 1050.73L900.09, 1048.27L895.85, 1045.51L891.83, 1042.46L888.04, 1039.14L884.48, 1035.58L881.18, 1031.77L878.15, 1027.76L875.4, 1023.54L872.95, 1019.14L870.8, 1014.57L868.98, 1009.85L867.49, 1005L866.35, 1000.04L865.58, 994.97L865.18, 989.82L865.18, 984.61L865.58, 979.35L866.4, 974.06L867.65, 968.75L869.34, 963.45L871.5, 958.17L874.13, 952.92L1080.18, 577.68L1082.56, 573.65L1085.15, 569.84L1087.93, 566.27L1090.89, 562.92L1094.02, 559.81L1097.31, 556.93L1100.74, 554.28L1104.3, 551.87L1107.99, 549.69L1111.78, 547.75L1115.66, 546.05L1119.63, 544.58L1123.67, 543.36L1127.76, 542.38L1131.91, 541.64L1136.08, 541.14L1140.28, 540.89L1144.49, 540.88L1148.7, 541.12L1152.89, 541.61L1157.05, 542.34L1161.18, 543.33L1165.25, 544.57L1169.26, 546.05L1173.2, 547.8L1177.05, 549.79L1180.79, 552.05L1184.43, 554.55L1187.93, 557.32L1191.31, 560.34L1194.53, 563.63L1197.59, 567.17L1401.41, 818.88L1404.24, 822.61L1406.79, 826.44L1409.04, 830.37L1411.02, 834.38L1412.72, 838.45L1414.14, 842.59L1415.3, 846.76L1416.18, 850.98L1416.8, 855.21L1417.17, 859.45L1417.27, 863.69L1417.13, 867.92L1416.73, 872.12L1416.09, 876.28L1415.21, 880.4L1414.09, 884.45L1412.74, 888.44L1411.15, 892.33L1409.34, 896.14L1407.3, 899.83L1405.04, 903.41L1402.57, 906.86L1399.88, 910.16L1396.99, 913.31L1393.89, 916.29L1390.58, 919.1L1387.08, 921.71L1383.38, 924.13L1379.5, 926.33L1375.42, 928.31L1371.16, 930.05L1366.72, 931.54L956.85, 1055.07"/><path stroke="black" fill="none" stroke-width="1" d="M927.6, 1049.3L921.86, 1050.47L916.21, 1051.17L910.66, 1051.43L905.22, 1051.26L899.9, 1050.67L894.73, 1049.69L889.7, 1048.33L884.84, 1046.62L880.16, 1044.56L875.66, 1042.18L871.37, 1039.49L867.29, 1036.51L863.44, 1033.26L859.83, 1029.75L856.47, 1026.01L853.38, 1022.04L850.57, 1017.88L848.04, 1013.53L845.83, 1009.01L843.92, 1004.35L842.35, 999.55L841.12, 994.63L840.24, 989.62L839.73, 984.53L839.6, 979.38L839.86, 974.18L840.53, 968.95L841.62, 963.72L843.13, 958.49L845.09, 953.29L847.51, 948.13L850.4, 943.03L1071.54, 584.59L1074.13, 580.68L1076.91, 577.01L1079.87, 573.57L1083, 570.38L1086.29, 567.43L1089.72, 564.71L1093.28, 562.24L1096.97, 560.01L1100.76, 558.02L1104.65, 556.28L1108.62, 554.77L1112.66, 553.51L1116.76, 552.5L1120.9, 551.73L1125.08, 551.2L1129.28, 550.92L1133.49, 550.88L1137.7, 551.09L1141.89, 551.55L1146.05, 552.25L1150.18, 553.2L1154.25, 554.4L1158.26, 555.85L1162.19, 557.55L1166.03, 559.49L1169.77, 561.69L1173.4, 564.13L1176.9, 566.83L1180.26, 569.78L1183.47, 572.98L1186.52, 576.43L1189.4, 580.14L1377.5, 839.03L1380.13, 842.91L1382.48, 846.87L1384.53, 850.92L1386.29, 855.03L1387.77, 859.19L1388.98, 863.4L1389.91, 867.63L1390.57, 871.89L1390.97, 876.15L1391.11, 880.41L1390.99, 884.65L1390.62, 888.87L1390.01, 893.05L1389.14, 897.17L1388.04, 901.24L1386.71, 905.23L1385.14, 909.14L1383.35, 912.95L1381.33, 916.66L1379.1, 920.24L1376.65, 923.7L1374, 927.01L1371.14, 930.17L1368.07, 933.16L1364.81, 935.97L1361.36, 938.6L1357.72, 941.02L1353.9, 943.24L1349.89, 945.23L1345.71, 946.99L1341.36, 948.5L1336.84, 949.75L927.6, 1049.3"/><path stroke="black" fill="none" stroke-width="1" d="M899.1, 1043.29L893.31, 1044.14L887.64, 1044.54L882.09, 1044.5L876.68, 1044.04L871.41, 1043.17L866.3, 1041.92L861.36, 1040.3L856.61, 1038.33L852.04, 1036.03L847.69, 1033.41L843.55, 1030.5L839.64, 1027.32L835.97, 1023.87L832.56, 1020.19L829.4, 1016.28L826.53, 1012.17L823.94, 1007.87L821.65, 1003.4L819.67, 998.78L818.02, 994.02L816.7, 989.16L815.72, 984.19L815.11, 979.15L814.86, 974.05L815, 968.9L815.53, 963.73L816.46, 958.56L817.81, 953.39L819.59, 948.26L821.81, 943.17L824.48, 938.15L827.61, 933.21L1062.67, 592.09L1065.45, 588.32L1068.42, 584.79L1071.56, 581.5L1074.85, 578.47L1078.29, 575.69L1081.85, 573.15L1085.54, 570.86L1089.34, 568.82L1093.23, 567.03L1097.21, 565.48L1101.25, 564.18L1105.36, 563.13L1109.51, 562.32L1113.69, 561.76L1117.89, 561.45L1122.11, 561.39L1126.32, 561.57L1130.51, 562L1134.68, 562.67L1138.8, 563.59L1142.88, 564.75L1146.88, 566.16L1150.82, 567.81L1154.66, 569.71L1158.4, 571.86L1162.02, 574.25L1165.52, 576.88L1168.88, 579.76L1172.09, 582.88L1175.13, 586.25L1178, 589.86L1180.68, 593.71L1352.85, 858.84L1355.28, 862.85L1357.41, 866.94L1359.25, 871.09L1360.8, 875.29L1362.06, 879.53L1363.04, 883.8L1363.75, 888.08L1364.19, 892.37L1364.36, 896.65L1364.28, 900.91L1363.93, 905.15L1363.34, 909.34L1362.5, 913.49L1361.42, 917.57L1360.11, 921.57L1358.56, 925.49L1356.79, 929.31L1354.79, 933.03L1352.58, 936.62L1350.16, 940.09L1347.53, 943.41L1344.69, 946.57L1341.66, 949.58L1338.44, 952.4L1335.03, 955.04L1331.44, 957.48L1327.67, 959.71L1323.73, 961.71L1319.62, 963.49L1315.35, 965.02L1310.92, 966.29L1306.33, 967.3L899.1, 1043.29"/><path stroke="black" fill="none" stroke-width="1" d="M871.33, 1037.09L865.52, 1037.63L859.84, 1037.72L854.31, 1037.38L848.94, 1036.63L843.74, 1035.48L838.71, 1033.96L833.87, 1032.08L829.24, 1029.87L824.81, 1027.33L820.6, 1024.49L816.63, 1021.38L812.9, 1017.99L809.42, 1014.37L806.21, 1010.51L803.27, 1006.45L800.62, 1002.2L798.26, 997.77L796.21, 993.2L794.48, 988.49L793.08, 983.66L792.01, 978.74L791.3, 973.74L790.95, 968.68L790.96, 963.58L791.36, 958.45L792.15, 953.33L793.35, 948.21L794.96, 943.13L796.99, 938.1L799.46, 933.14L802.38, 928.27L805.75, 923.51L1053.55, 600.18L1056.53, 596.54L1059.67, 593.16L1062.97, 590.04L1066.42, 587.17L1069.99, 584.56L1073.69, 582.21L1077.49, 580.11L1081.39, 578.26L1085.37, 576.67L1089.43, 575.33L1093.54, 574.24L1097.69, 573.4L1101.88, 572.8L1106.09, 572.46L1110.31, 572.36L1114.52, 572.52L1118.72, 572.91L1122.89, 573.56L1127.02, 574.44L1131.1, 575.58L1135.11, 576.95L1139.05, 578.57L1142.89, 580.42L1146.63, 582.52L1150.26, 584.86L1153.76, 587.43L1157.11, 590.25L1160.32, 593.3L1163.37, 596.59L1166.23, 600.11L1168.91, 603.87L1171.39, 607.86L1327.51, 878.26L1329.73, 882.41L1331.64, 886.61L1333.26, 890.85L1334.59, 895.13L1335.62, 899.43L1336.38, 903.75L1336.86, 908.07L1337.07, 912.38L1337.02, 916.67L1336.71, 920.93L1336.14, 925.14L1335.32, 929.3L1334.26, 933.4L1332.97, 937.42L1331.44, 941.35L1329.68, 945.19L1327.71, 948.91L1325.52, 952.52L1323.11, 955.99L1320.51, 959.32L1317.7, 962.5L1314.7, 965.52L1311.51, 968.35L1308.14, 971.01L1304.59, 973.46L1300.87, 975.7L1296.98, 977.73L1292.93, 979.52L1288.73, 981.07L1284.38, 982.37L1279.88, 983.4L1275.24, 984.16L871.33, 1037.09"/><path stroke="black" fill="none" stroke-width="1" d="M844.3, 1030.75L838.48, 1030.97L832.82, 1030.76L827.33, 1030.12L822.01, 1029.08L816.88, 1027.66L811.95, 1025.87L807.23, 1023.74L802.73, 1021.28L798.45, 1018.52L794.4, 1015.47L790.61, 1012.15L787.06, 1008.58L783.79, 1004.78L780.79, 1000.77L778.07, 996.56L775.65, 992.19L773.53, 987.65L771.72, 982.98L770.24, 978.2L769.09, 973.31L768.29, 968.35L767.83, 963.33L767.74, 958.26L768.02, 953.18L768.68, 948.09L769.74, 943.01L771.19, 937.98L773.05, 932.99L775.34, 928.08L778.05, 923.26L781.2, 918.55L784.81, 913.98L1044.15, 608.82L1047.31, 605.33L1050.62, 602.11L1054.08, 599.16L1057.67, 596.47L1061.38, 594.04L1065.19, 591.88L1069.1, 589.97L1073.09, 588.32L1077.15, 586.93L1081.27, 585.8L1085.44, 584.92L1089.63, 584.29L1093.85, 583.91L1098.08, 583.79L1102.3, 583.91L1106.5, 584.28L1110.68, 584.89L1114.82, 585.75L1118.9, 586.85L1122.92, 588.19L1126.85, 589.77L1130.7, 591.59L1134.45, 593.64L1138.08, 595.93L1141.58, 598.46L1144.95, 601.22L1148.16, 604.2L1151.21, 607.42L1154.08, 610.87L1156.76, 614.54L1159.24, 618.44L1161.51, 622.56L1301.49, 897.28L1303.49, 901.54L1305.19, 905.83L1306.58, 910.16L1307.68, 914.51L1308.49, 918.87L1309.02, 923.22L1309.27, 927.57L1309.26, 931.88L1308.98, 936.17L1308.44, 940.41L1307.65, 944.59L1306.61, 948.7L1305.33, 952.74L1303.82, 956.69L1302.09, 960.54L1300.13, 964.28L1297.95, 967.9L1295.57, 971.39L1292.98, 974.73L1290.2, 977.92L1287.23, 980.95L1284.07, 983.8L1280.73, 986.47L1277.21, 988.93L1273.53, 991.2L1269.7, 993.24L1265.7, 995.05L1261.56, 996.63L1257.27, 997.95L1252.85, 999.01L1248.3, 999.8L1243.62, 1000.31L844.3, 1030.75"/><path stroke="black" fill="none" stroke-width="1" d="M818.01, 1024.3L1211.51, 1015.71L1216.21, 1015.46L1220.81, 1014.91L1225.28, 1014.09L1229.64, 1013L1233.87, 1011.65L1237.96, 1010.05L1241.9, 1008.22L1245.7, 1006.16L1249.35, 1003.88L1252.83, 1001.39L1256.14, 998.71L1259.27, 995.84L1262.23, 992.8L1264.99, 989.6L1267.56, 986.24L1269.93, 982.74L1272.08, 979.11L1274.03, 975.35L1275.74, 971.49L1277.23, 967.52L1278.49, 963.46L1279.5, 959.32L1280.26, 955.11L1280.77, 950.85L1281.02, 946.53L1280.99, 942.18L1280.69, 937.8L1280.11, 933.4L1279.24, 928.99L1278.08, 924.59L1276.61, 920.21L1274.83, 915.84L1151.01, 637.76L1148.96, 633.52L1146.68, 629.49L1144.19, 625.68L1141.5, 622.08L1138.63, 618.71L1135.57, 615.55L1132.35, 612.62L1128.98, 609.92L1125.47, 607.44L1121.83, 605.19L1118.08, 603.17L1114.23, 601.39L1110.28, 599.84L1106.26, 598.53L1102.17, 597.46L1098.02, 596.63L1093.84, 596.05L1089.63, 595.71L1085.39, 595.62L1081.16, 595.78L1076.93, 596.19L1072.72, 596.86L1068.55, 597.79L1064.42, 598.97L1060.34, 600.41L1056.34, 602.12L1052.41, 604.09L1048.58, 606.32L1044.86, 608.83L1041.25, 611.61L1037.77, 614.66L1034.44, 617.98L764.75, 904.66L760.93, 909.05L757.55, 913.58L754.6, 918.25L752.07, 923.03L749.96, 927.9L748.25, 932.85L746.94, 937.86L746.02, 942.9L745.48, 947.95L745.31, 953.01L745.5, 958.04L746.05, 963.03L746.94, 967.96L748.17, 972.81L749.73, 977.56L751.6, 982.19L753.79, 986.68L756.28, 991.02L759.06, 995.18L762.13, 999.14L765.47, 1002.89L769.08, 1006.4L772.95, 1009.65L777.07, 1012.63L781.43, 1015.32L786.03, 1017.7L790.85, 1019.74L795.88, 1021.43L801.13, 1022.75L806.57, 1023.69L812.2, 1024.21L818.01, 1024.3"/><path stroke="black" fill="none" stroke-width="1" d="M792.45, 1017.78L786.66, 1017.37L781.08, 1016.55L775.7, 1015.33L770.55, 1013.73L765.62, 1011.77L760.92, 1009.48L756.47, 1006.87L752.26, 1003.95L748.31, 1000.76L744.63, 997.31L741.21, 993.62L738.08, 989.71L735.23, 985.6L732.67, 981.31L730.42, 976.86L728.47, 972.26L726.84, 967.55L725.54, 962.73L724.57, 957.83L723.93, 952.87L723.65, 947.86L723.72, 942.84L724.15, 937.81L724.95, 932.79L726.12, 927.81L727.68, 922.89L729.64, 918.04L731.99, 913.29L734.75, 908.65L737.93, 904.15L741.53, 899.8L745.56, 895.63L1024.4, 627.66L1027.9, 624.51L1031.53, 621.63L1035.28, 619.04L1039.13, 616.72L1043.07, 614.68L1047.1, 612.91L1051.19, 611.4L1055.33, 610.17L1059.52, 609.2L1063.74, 608.49L1067.98, 608.04L1072.23, 607.84L1076.47, 607.9L1080.7, 608.2L1084.89, 608.76L1089.04, 609.56L1093.14, 610.6L1097.18, 611.88L1101.13, 613.4L1104.99, 615.15L1108.76, 617.13L1112.4, 619.34L1115.92, 621.77L1119.3, 624.43L1122.53, 627.31L1125.6, 630.41L1128.49, 633.72L1131.19, 637.25L1133.69, 640.98L1135.98, 644.92L1138.05, 649.07L1139.88, 653.41L1247.56, 933.93L1249.11, 938.39L1250.35, 942.85L1251.28, 947.31L1251.92, 951.76L1252.27, 956.18L1252.34, 960.58L1252.13, 964.93L1251.66, 969.23L1250.93, 973.47L1249.94, 977.64L1248.71, 981.72L1247.24, 985.71L1245.54, 989.6L1243.62, 993.37L1241.47, 997.02L1239.13, 1000.54L1236.57, 1003.91L1233.83, 1007.13L1230.89, 1010.18L1227.78, 1013.06L1224.49, 1015.76L1221.04, 1018.26L1217.42, 1020.56L1213.66, 1022.64L1209.75, 1024.5L1205.71, 1026.12L1201.53, 1027.5L1197.24, 1028.62L1192.83, 1029.47L1188.31, 1030.05L1183.68, 1030.34L1178.97, 1030.34L792.45, 1017.78"/><path stroke="black" fill="none" stroke-width="1" d="M767.61, 1011.24L761.86, 1010.52L756.34, 1009.4L751.05, 1007.89L746, 1006.02L741.19, 1003.81L736.63, 1001.27L732.33, 998.43L728.29, 995.3L724.52, 991.91L721.03, 988.28L717.82, 984.42L714.9, 980.35L712.28, 976.1L709.95, 971.69L707.94, 967.13L706.24, 962.45L704.86, 957.67L703.81, 952.8L703.1, 947.86L702.72, 942.88L702.7, 937.87L703.03, 932.87L703.71, 927.87L704.77, 922.91L706.2, 918.01L708.01, 913.18L710.2, 908.45L712.79, 903.83L715.78, 899.35L719.17, 895.02L722.98, 890.86L727.21, 886.91L1014, 637.82L1017.66, 634.84L1021.44, 632.15L1025.31, 629.75L1029.28, 627.63L1033.33, 625.78L1037.44, 624.22L1041.6, 622.92L1045.81, 621.9L1050.05, 621.14L1054.31, 620.65L1058.57, 620.41L1062.82, 620.44L1067.06, 620.71L1071.27, 621.23L1075.43, 622L1079.54, 623.01L1083.59, 624.27L1087.56, 625.75L1091.43, 627.47L1095.2, 629.42L1098.86, 631.6L1102.39, 634L1105.78, 636.61L1109.03, 639.45L1112.1, 642.49L1115.01, 645.75L1117.72, 649.21L1120.24, 652.87L1122.55, 656.74L1124.63, 660.79L1126.48, 665.05L1128.08, 669.49L1219.72, 951.51L1221.03, 956.05L1222.04, 960.57L1222.74, 965.08L1223.14, 969.56L1223.26, 974.01L1223.1, 978.4L1222.66, 982.74L1221.96, 987.02L1221, 991.22L1219.8, 995.33L1218.35, 999.34L1216.67, 1003.25L1214.76, 1007.05L1212.64, 1010.72L1210.3, 1014.25L1207.77, 1017.64L1205.04, 1020.88L1202.12, 1023.95L1199.02, 1026.84L1195.76, 1029.56L1192.33, 1032.08L1188.74, 1034.39L1185.01, 1036.49L1181.13, 1038.37L1177.13, 1040.02L1173, 1041.42L1168.75, 1042.57L1164.4, 1043.46L1159.94, 1044.07L1155.39, 1044.41L1150.75, 1044.45L1146.04, 1044.19L767.61, 1011.24"/><path stroke="black" fill="none" stroke-width="1" d="M743.47, 1004.72L737.79, 1003.69L732.35, 1002.28L727.16, 1000.49L722.22, 998.36L717.55, 995.89L713.14, 993.12L709, 990.05L705.14, 986.72L701.57, 983.14L698.28, 979.33L695.28, 975.31L692.58, 971.11L690.19, 966.73L688.11, 962.21L686.34, 957.56L684.89, 952.81L683.76, 947.96L682.97, 943.05L682.52, 938.1L682.4, 933.11L682.63, 928.12L683.22, 923.14L684.16, 918.2L685.47, 913.31L687.15, 908.49L689.2, 903.77L691.63, 899.16L694.44, 894.69L697.65, 890.37L701.25, 886.23L705.26, 882.28L709.67, 878.55L1003.23, 648.44L1007.04, 645.64L1010.95, 643.14L1014.95, 640.93L1019.02, 639.01L1023.16, 637.38L1027.35, 636.02L1031.58, 634.94L1035.84, 634.13L1040.12, 633.59L1044.4, 633.31L1048.67, 633.29L1052.92, 633.53L1057.15, 634.02L1061.33, 634.76L1065.45, 635.74L1069.51, 636.97L1073.49, 638.43L1077.37, 640.12L1081.16, 642.04L1084.83, 644.18L1088.37, 646.54L1091.78, 649.12L1095.04, 651.91L1098.13, 654.92L1101.05, 658.12L1103.78, 661.53L1106.32, 665.13L1108.64, 668.92L1110.75, 672.9L1112.62, 677.07L1114.24, 681.42L1115.61, 685.94L1191.34, 968.56L1192.42, 973.16L1193.18, 977.74L1193.65, 982.28L1193.82, 986.78L1193.7, 991.23L1193.3, 995.62L1192.64, 999.93L1191.71, 1004.17L1190.53, 1008.31L1189.11, 1012.36L1187.45, 1016.3L1185.56, 1020.12L1183.46, 1023.81L1181.14, 1027.36L1178.62, 1030.77L1175.9, 1034.02L1173, 1037.11L1169.92, 1040.02L1166.67, 1042.75L1163.26, 1045.29L1159.69, 1047.62L1155.99, 1049.74L1152.14, 1051.64L1148.17, 1053.31L1144.07, 1054.74L1139.87, 1055.92L1135.56, 1056.84L1131.16, 1057.49L1126.67, 1057.87L1122.1, 1057.95L1117.47, 1057.75L1112.77, 1057.23L743.47, 1004.72"/><path stroke="black" fill="none" stroke-width="1" d="M720.04, 998.26L714.43, 996.93L709.08, 995.22L704.01, 993.16L699.2, 990.77L694.68, 988.06L690.43, 985.06L686.47, 981.78L682.8, 978.26L679.42, 974.5L676.35, 970.53L673.57, 966.36L671.11, 962.03L668.95, 957.54L667.11, 952.92L665.59, 948.2L664.39, 943.38L663.53, 938.49L662.99, 933.55L662.79, 928.59L662.94, 923.61L663.43, 918.65L664.27, 913.72L665.47, 908.84L667.02, 904.03L668.94, 899.31L671.23, 894.71L673.88, 890.24L676.92, 885.93L680.33, 881.78L684.13, 877.84L688.32, 874.1L692.9, 870.61L992.07, 659.48L996.02, 656.88L1000.06, 654.58L1004.17, 652.57L1008.34, 650.86L1012.56, 649.43L1016.82, 648.28L1021.1, 647.42L1025.4, 646.83L1029.7, 646.5L1033.99, 646.44L1038.27, 646.64L1042.51, 647.1L1046.7, 647.81L1050.84, 648.76L1054.92, 649.95L1058.91, 651.38L1062.81, 653.05L1066.61, 654.94L1070.3, 657.05L1073.86, 659.38L1077.28, 661.93L1080.55, 664.68L1083.66, 667.64L1086.6, 670.8L1089.35, 674.16L1091.91, 677.7L1094.25, 681.43L1096.38, 685.35L1098.28, 689.44L1099.93, 693.7L1101.33, 698.13L1102.46, 702.73L1162.47, 985.04L1163.3, 989.7L1163.83, 994.32L1164.05, 998.89L1163.98, 1003.39L1163.63, 1007.84L1163, 1012.2L1162.11, 1016.48L1160.96, 1020.66L1159.56, 1024.74L1157.92, 1028.71L1156.06, 1032.56L1153.97, 1036.28L1151.66, 1039.86L1149.16, 1043.28L1146.45, 1046.56L1143.57, 1049.66L1140.5, 1052.59L1137.26, 1055.34L1133.87, 1057.89L1130.32, 1060.25L1126.64, 1062.39L1122.81, 1064.31L1118.87, 1066L1114.81, 1067.45L1110.64, 1068.66L1106.37, 1069.61L1102.02, 1070.3L1097.58, 1070.71L1093.07, 1070.84L1088.5, 1070.68L1083.88, 1070.22L1079.21, 1069.45L720.04, 998.26"/><path stroke="black" fill="none" stroke-width="1" d="M697.28, 991.89L691.77, 990.26L686.53, 988.27L681.59, 985.94L676.93, 983.3L672.56, 980.36L668.49, 977.14L664.72, 973.66L661.25, 969.95L658.08, 966.02L655.22, 961.9L652.68, 957.6L650.45, 953.15L648.53, 948.57L646.94, 943.87L645.67, 939.07L644.73, 934.21L644.12, 929.29L643.85, 924.34L643.91, 919.38L644.31, 914.43L645.06, 909.5L646.15, 904.63L647.6, 899.83L649.39, 895.11L651.55, 890.51L654.06, 886.04L656.94, 881.72L660.18, 877.57L663.8, 873.62L667.78, 869.87L672.14, 866.37L676.89, 863.11L980.5, 670.93L984.58, 668.52L988.73, 666.42L992.94, 664.62L997.2, 663.12L1001.49, 661.91L1005.81, 660.98L1010.14, 660.33L1014.46, 659.96L1018.78, 659.85L1023.08, 660.01L1027.34, 660.43L1031.55, 661.1L1035.71, 662.02L1039.8, 663.19L1043.81, 664.59L1047.73, 666.23L1051.55, 668.09L1055.25, 670.17L1058.82, 672.48L1062.26, 674.99L1065.55, 677.71L1068.68, 680.63L1071.64, 683.75L1074.41, 687.06L1076.99, 690.56L1079.36, 694.24L1081.51, 698.09L1083.43, 702.12L1085.12, 706.31L1086.54, 710.65L1087.71, 715.16L1088.6, 719.81L1133.13, 1000.95L1133.72, 1005.65L1134, 1010.3L1133.99, 1014.87L1133.68, 1019.38L1133.09, 1023.8L1132.24, 1028.13L1131.12, 1032.36L1129.75, 1036.48L1128.13, 1040.49L1126.29, 1044.37L1124.21, 1048.11L1121.93, 1051.72L1119.43, 1055.17L1116.75, 1058.47L1113.87, 1061.59L1110.82, 1064.54L1107.59, 1067.31L1104.21, 1069.88L1100.68, 1072.25L1097.01, 1074.41L1093.21, 1076.36L1089.29, 1078.07L1085.25, 1079.55L1081.12, 1080.78L1076.89, 1081.77L1072.57, 1082.49L1068.18, 1082.94L1063.72, 1083.11L1059.21, 1083L1054.65, 1082.59L1050.05, 1081.88L1045.43, 1080.85L697.28, 991.89"/><path stroke="black" fill="none" stroke-width="1" d="M675.19, 985.65L669.79, 983.73L664.68, 981.46L659.88, 978.87L655.38, 975.99L651.18, 972.82L647.3, 969.39L643.72, 965.73L640.46, 961.84L637.51, 957.76L634.88, 953.5L632.57, 949.08L630.58, 944.53L628.92, 939.85L627.58, 935.09L626.56, 930.24L625.88, 925.34L625.53, 920.41L625.51, 915.46L625.83, 910.52L626.49, 905.6L627.49, 900.73L628.83, 895.93L630.52, 891.22L632.55, 886.61L634.94, 882.13L637.67, 877.8L640.76, 873.64L644.2, 869.67L648, 865.91L652.16, 862.39L656.69, 859.11L661.58, 856.1L968.51, 682.74L972.71, 680.54L976.97, 678.65L981.27, 677.07L985.6, 675.78L989.95, 674.78L994.31, 674.07L998.67, 673.64L1003.02, 673.49L1007.34, 673.61L1011.63, 673.98L1015.86, 674.62L1020.04, 675.51L1024.15, 676.64L1028.18, 678.01L1032.12, 679.62L1035.95, 681.46L1039.67, 683.51L1043.27, 685.79L1046.72, 688.27L1050.03, 690.96L1053.18, 693.85L1056.15, 696.94L1058.95, 700.21L1061.55, 703.66L1063.94, 707.29L1066.12, 711.09L1068.07, 715.06L1069.79, 719.18L1071.25, 723.46L1072.45, 727.88L1073.38, 732.44L1074.03, 737.14L1103.37, 1016.26L1103.71, 1020.99L1103.75, 1025.65L1103.5, 1030.23L1102.95, 1034.71L1102.13, 1039.1L1101.05, 1043.38L1099.71, 1047.55L1098.12, 1051.6L1096.29, 1055.52L1094.24, 1059.3L1091.97, 1062.94L1089.49, 1066.42L1086.81, 1069.74L1083.95, 1072.89L1080.91, 1075.86L1077.7, 1078.64L1074.33, 1081.24L1070.81, 1083.63L1067.16, 1085.81L1063.37, 1087.77L1059.47, 1089.51L1055.45, 1091.01L1051.34, 1092.27L1047.14, 1093.28L1042.86, 1094.04L1038.5, 1094.52L1034.09, 1094.74L1029.62, 1094.67L1025.12, 1094.31L1020.58, 1093.65L1016.03, 1092.69L1011.46, 1091.41L675.19, 985.65"/><path stroke="black" fill="none" stroke-width="1" d="M653.75, 979.57L648.47, 977.36L643.5, 974.83L638.86, 971.99L634.53, 968.87L630.52, 965.49L626.83, 961.87L623.46, 958.02L620.42, 953.98L617.7, 949.75L615.3, 945.36L613.23, 940.84L611.49, 936.19L610.08, 931.45L608.99, 926.62L608.23, 921.74L607.81, 916.82L607.72, 911.89L607.96, 906.95L608.53, 902.04L609.45, 897.18L610.69, 892.37L612.28, 887.66L614.2, 883.04L616.47, 878.56L619.07, 874.21L622.02, 870.04L625.31, 866.05L628.94, 862.27L632.92, 858.71L637.24, 855.41L641.92, 852.37L646.94, 849.61L956.07, 694.9L960.39, 692.91L964.74, 691.24L969.12, 689.87L973.52, 688.8L977.92, 688.02L982.31, 687.53L986.69, 687.33L991.05, 687.39L995.36, 687.73L999.63, 688.32L1003.83, 689.17L1007.97, 690.28L1012.02, 691.62L1015.98, 693.2L1019.83, 695L1023.57, 697.04L1027.18, 699.28L1030.66, 701.74L1033.98, 704.41L1037.15, 707.27L1040.15, 710.32L1042.97, 713.55L1045.59, 716.97L1048.01, 720.56L1050.22, 724.31L1052.2, 728.22L1053.95, 732.29L1055.45, 736.5L1056.69, 740.85L1057.66, 745.33L1058.35, 749.95L1058.75, 754.68L1073.23, 1030.94L1073.33, 1035.69L1073.12, 1040.35L1072.62, 1044.91L1071.85, 1049.37L1070.79, 1053.71L1069.48, 1057.94L1067.92, 1062.04L1066.12, 1066L1064.09, 1069.82L1061.83, 1073.49L1059.37, 1077L1056.71, 1080.35L1053.85, 1083.53L1050.82, 1086.52L1047.62, 1089.33L1044.27, 1091.95L1040.76, 1094.36L1037.12, 1096.56L1033.34, 1098.54L1029.46, 1100.3L1025.46, 1101.83L1021.37, 1103.12L1017.19, 1104.16L1012.93, 1104.94L1008.61, 1105.46L1004.23, 1105.71L999.81, 1105.69L995.35, 1105.38L990.86, 1104.77L986.36, 1103.87L981.86, 1102.66L977.36, 1101.13L653.75, 979.57"/><path stroke="black" fill="none" stroke-width="1" d="M632.93, 973.69L627.79, 971.2L622.98, 968.41L618.51, 965.33L614.36, 961.99L610.55, 958.4L607.07, 954.59L603.92, 950.58L601.1, 946.39L598.61, 942.03L596.46, 937.53L594.63, 932.91L593.14, 928.19L591.98, 923.38L591.15, 918.52L590.65, 913.61L590.49, 908.69L590.65, 903.76L591.15, 898.86L591.98, 893.99L593.14, 889.19L594.63, 884.47L596.46, 879.85L598.61, 875.35L601.1, 870.99L603.92, 866.8L607.07, 862.79L610.55, 858.98L614.36, 855.39L618.51, 852.05L622.98, 848.97L627.79, 846.18L632.93, 843.69L943.19, 707.38L947.61, 705.6L952.04, 704.15L956.49, 703L960.94, 702.15L965.38, 701.6L969.8, 701.33L974.19, 701.34L978.54, 701.63L982.84, 702.18L987.07, 703L991.23, 704.06L995.31, 705.37L999.29, 706.92L1003.17, 708.7L1006.93, 710.71L1010.57, 712.93L1014.06, 715.36L1017.41, 718L1020.6, 720.83L1023.62, 723.86L1026.46, 727.06L1029.11, 730.44L1031.56, 733.99L1033.79, 737.7L1035.8, 741.57L1037.58, 745.58L1039.12, 749.74L1040.4, 754.03L1041.41, 758.44L1042.15, 762.98L1042.6, 767.63L1042.75, 772.38L1042.75, 1045L1042.6, 1049.75L1042.15, 1054.4L1041.41, 1058.94L1040.4, 1063.35L1039.12, 1067.64L1037.58, 1071.8L1035.8, 1075.81L1033.79, 1079.68L1031.56, 1083.39L1029.11, 1086.94L1026.46, 1090.32L1023.62, 1093.53L1020.6, 1096.55L1017.41, 1099.38L1014.06, 1102.02L1010.57, 1104.45L1006.93, 1106.67L1003.17, 1108.68L999.29, 1110.46L995.31, 1112.01L991.23, 1113.32L987.07, 1114.38L982.84, 1115.2L978.54, 1115.75L974.19, 1116.04L969.8, 1116.05L965.38, 1115.78L960.94, 1115.23L956.49, 1114.38L952.04, 1113.23L947.61, 1111.77L943.19, 1110L632.93, 973.69"/><path stroke="black" fill="none" stroke-width="1" d="M612.72, 968.04L607.73, 965.28L603.09, 962.23L598.8, 958.93L594.85, 955.37L591.25, 951.59L587.98, 947.61L585.06, 943.44L582.47, 939.11L580.22, 934.64L578.31, 930.04L576.74, 925.34L575.5, 920.55L574.6, 915.7L574.03, 910.81L573.79, 905.9L573.88, 900.98L574.3, 896.08L575.06, 891.22L576.13, 886.41L577.54, 881.68L579.27, 877.05L581.33, 872.54L583.71, 868.17L586.41, 863.95L589.43, 859.91L592.78, 856.08L596.44, 852.46L600.42, 849.08L604.72, 845.95L609.34, 843.11L614.27, 840.57L619.51, 838.34L929.85, 720.13L934.35, 718.58L938.86, 717.35L943.37, 716.42L947.86, 715.8L952.33, 715.47L956.77, 715.42L961.15, 715.66L965.49, 716.17L969.76, 716.94L973.95, 717.97L978.06, 719.24L982.07, 720.76L985.97, 722.51L989.75, 724.49L993.41, 726.69L996.93, 729.1L1000.3, 731.71L1003.51, 734.52L1006.56, 737.51L1009.42, 740.69L1012.1, 744.04L1014.57, 747.56L1016.83, 751.24L1018.88, 755.06L1020.69, 759.03L1022.26, 763.14L1023.58, 767.37L1024.63, 771.73L1025.42, 776.19L1025.92, 780.77L1026.13, 785.44L1026.03, 790.2L1011.97, 1058.41L1011.57, 1063.16L1010.87, 1067.78L1009.9, 1072.28L1008.65, 1076.64L1007.15, 1080.86L1005.39, 1084.93L1003.4, 1088.85L1001.18, 1092.61L998.75, 1096.2L996.12, 1099.62L993.29, 1102.86L990.28, 1105.91L987.1, 1108.77L983.76, 1111.43L980.27, 1113.89L976.64, 1116.14L972.89, 1118.16L969.03, 1119.97L965.05, 1121.54L960.99, 1122.87L956.84, 1123.96L952.63, 1124.8L948.35, 1125.39L944.02, 1125.71L939.66, 1125.76L935.27, 1125.54L930.87, 1125.03L926.46, 1124.24L922.05, 1123.14L917.67, 1121.75L913.31, 1120.05L909, 1118.04L612.72, 968.04"/><path stroke="black" fill="none" stroke-width="1" d="M593.08, 962.64L588.27, 959.62L583.81, 956.34L579.72, 952.81L575.97, 949.05L572.58, 945.09L569.54, 940.95L566.85, 936.64L564.51, 932.19L562.51, 927.61L560.85, 922.92L559.53, 918.15L558.55, 913.32L557.9, 908.44L557.59, 903.53L557.61, 898.62L557.96, 893.73L558.64, 888.86L559.64, 884.06L560.96, 879.32L562.61, 874.68L564.57, 870.16L566.86, 865.77L569.45, 861.53L572.36, 857.47L575.58, 853.6L579.11, 849.94L582.94, 846.52L587.08, 843.35L591.53, 840.46L596.27, 837.86L601.31, 835.57L606.64, 833.62L916.04, 733.15L920.62, 731.82L925.2, 730.81L929.75, 730.11L934.27, 729.71L938.76, 729.61L943.19, 729.79L947.57, 730.25L951.88, 730.97L956.11, 731.96L960.25, 733.2L964.29, 734.69L968.22, 736.41L972.03, 738.36L975.72, 740.53L979.26, 742.91L982.66, 745.5L985.89, 748.29L988.96, 751.26L991.85, 754.41L994.55, 757.74L997.05, 761.22L999.34, 764.87L1001.42, 768.66L1003.26, 772.59L1004.87, 776.65L1006.22, 780.84L1007.32, 785.14L1008.15, 789.55L1008.7, 794.06L1008.96, 798.66L1008.93, 803.34L1008.58, 808.1L980.93, 1071.17L980.28, 1075.9L979.34, 1080.48L978.13, 1084.93L976.66, 1089.22L974.93, 1093.37L972.96, 1097.35L970.76, 1101.16L968.35, 1104.8L965.73, 1108.26L962.91, 1111.54L959.91, 1114.63L956.74, 1117.52L953.41, 1120.21L949.92, 1122.69L946.3, 1124.96L942.56, 1127.01L938.7, 1128.84L934.74, 1130.43L930.68, 1131.79L926.55, 1132.91L922.34, 1133.77L918.08, 1134.39L913.77, 1134.74L909.43, 1134.83L905.07, 1134.64L900.69, 1134.18L896.32, 1133.43L891.95, 1132.4L887.61, 1131.07L883.3, 1129.44L879.04, 1127.5L874.83, 1125.25L593.08, 962.64"/><path stroke="black" fill="none" stroke-width="1" d="M574, 957.53L569.37, 954.26L565.12, 950.74L561.23, 947L557.7, 943.06L554.54, 938.93L551.73, 934.64L549.28, 930.2L547.18, 925.64L545.43, 920.97L544.03, 916.21L542.96, 911.39L542.24, 906.52L541.85, 901.62L541.8, 896.72L542.08, 891.83L542.68, 886.96L543.61, 882.15L544.86, 877.41L546.43, 872.77L548.31, 868.23L550.5, 863.82L553, 859.56L555.8, 855.47L558.91, 851.57L562.32, 847.88L566.02, 844.42L570.02, 841.2L574.3, 838.25L578.87, 835.59L583.73, 833.24L588.86, 831.21L594.28, 829.53L901.76, 746.38L906.41, 745.29L911.03, 744.51L915.62, 744.03L920.17, 743.86L924.66, 743.98L929.08, 744.39L933.44, 745.07L937.71, 746.01L941.89, 747.21L945.96, 748.66L949.93, 750.35L953.77, 752.28L957.48, 754.42L961.06, 756.78L964.48, 759.34L967.74, 762.1L970.84, 765.05L973.75, 768.18L976.48, 771.48L979.01, 774.95L981.33, 778.56L983.43, 782.32L985.31, 786.22L986.95, 790.25L988.35, 794.39L989.49, 798.65L990.36, 803.01L990.96, 807.46L991.28, 812L991.3, 816.61L991.02, 821.29L990.42, 826.03L949.68, 1083.28L948.78, 1087.97L947.6, 1092.51L946.15, 1096.89L944.45, 1101.11L942.51, 1105.15L940.33, 1109.03L937.93, 1112.72L935.32, 1116.23L932.52, 1119.56L929.53, 1122.68L926.36, 1125.61L923.04, 1128.33L919.56, 1130.84L915.95, 1133.14L912.21, 1135.22L908.36, 1137.07L904.4, 1138.68L900.35, 1140.06L896.22, 1141.2L892.03, 1142.1L887.78, 1142.74L883.49, 1143.12L879.16, 1143.24L874.82, 1143.09L870.46, 1142.67L866.11, 1141.97L861.78, 1140.99L857.47, 1139.71L853.2, 1138.15L848.98, 1136.28L844.83, 1134.11L840.74, 1131.63L574, 957.53"/><path stroke="black" fill="none" stroke-width="1" d="M555.45, 952.72L551.02, 949.21L546.98, 945.48L543.3, 941.55L540.01, 937.43L537.08, 933.14L534.51, 928.72L532.31, 924.16L530.46, 919.5L528.96, 914.76L527.81, 909.94L527.01, 905.08L526.55, 900.19L526.42, 895.29L526.63, 890.4L527.16, 885.54L528.01, 880.72L529.19, 875.98L530.68, 871.32L532.48, 866.77L534.59, 862.34L537.01, 858.06L539.72, 853.95L542.72, 850.02L546.02, 846.29L549.6, 842.78L553.47, 839.52L557.61, 836.52L562.03, 833.8L566.72, 831.38L571.68, 829.28L576.89, 827.51L582.37, 826.11L887, 759.82L891.71, 758.95L896.37, 758.4L900.98, 758.16L905.54, 758.22L910.02, 758.56L914.43, 759.19L918.75, 760.09L922.97, 761.25L927.09, 762.66L931.09, 764.32L934.97, 766.21L938.71, 768.33L942.32, 770.66L945.77, 773.2L949.06, 775.94L952.18, 778.87L955.13, 781.97L957.88, 785.25L960.44, 788.69L962.79, 792.28L964.92, 796.02L966.83, 799.89L968.51, 803.88L969.94, 807.99L971.12, 812.21L972.04, 816.53L972.69, 820.93L973.06, 825.41L973.14, 829.97L972.92, 834.58L972.39, 839.25L971.55, 843.95L918.25, 1094.71L917.1, 1099.36L915.69, 1103.83L914.01, 1108.14L912.09, 1112.27L909.93, 1116.21L907.54, 1119.97L904.95, 1123.54L902.16, 1126.91L899.17, 1130.08L896.02, 1133.05L892.7, 1135.81L889.23, 1138.35L885.62, 1140.68L881.89, 1142.78L878.04, 1144.66L874.08, 1146.3L870.04, 1147.7L865.92, 1148.87L861.73, 1149.78L857.49, 1150.45L853.21, 1150.86L848.9, 1151.01L844.57, 1150.9L840.23, 1150.51L835.9, 1149.85L831.59, 1148.92L827.31, 1147.7L823.07, 1146.19L818.89, 1144.39L814.77, 1142.29L810.74, 1139.89L806.79, 1137.19L555.45, 952.72"/><path stroke="black" fill="none" stroke-width="1" d="M537.41, 948.25L533.19, 944.51L529.36, 940.58L525.92, 936.46L522.85, 932.17L520.17, 927.75L517.85, 923.2L515.9, 918.55L514.31, 913.8L513.07, 908.99L512.18, 904.14L511.64, 899.25L511.43, 894.35L511.57, 889.46L512.03, 884.6L512.81, 879.78L513.92, 875.03L515.34, 870.36L517.06, 865.8L519.1, 861.36L521.43, 857.06L524.05, 852.92L526.97, 848.95L530.16, 845.19L533.64, 841.64L537.39, 838.33L541.41, 835.28L545.69, 832.5L550.23, 830.01L555.02, 827.83L560.06, 825.99L565.35, 824.49L570.87, 823.36L871.77, 773.41L876.51, 772.78L881.21, 772.46L885.83, 772.45L890.38, 772.74L894.85, 773.31L899.22, 774.16L903.5, 775.28L907.66, 776.65L911.71, 778.27L915.63, 780.13L919.41, 782.22L923.05, 784.52L926.53, 787.04L929.86, 789.76L933.01, 792.66L935.98, 795.75L938.76, 799.01L941.35, 802.43L943.73, 806L945.9, 809.71L947.84, 813.56L949.55, 817.52L951.02, 821.6L952.24, 825.79L953.2, 830.07L953.9, 834.43L954.32, 838.87L954.45, 843.37L954.29, 847.92L953.83, 852.53L953.06, 857.17L951.97, 861.83L886.69, 1105.49L885.3, 1110.08L883.65, 1114.48L881.74, 1118.69L879.6, 1122.72L877.23, 1126.55L874.65, 1130.18L871.87, 1133.61L868.9, 1136.84L865.75, 1139.85L862.43, 1142.65L858.97, 1145.23L855.36, 1147.59L851.63, 1149.72L847.78, 1151.62L843.83, 1153.29L839.79, 1154.72L835.68, 1155.91L831.49, 1156.85L827.26, 1157.54L822.98, 1157.98L818.68, 1158.15L814.36, 1158.07L810.03, 1157.72L805.72, 1157.1L801.43, 1156.21L797.17, 1155.04L792.95, 1153.59L788.8, 1151.85L784.72, 1149.82L780.72, 1147.5L776.81, 1144.88L773.01, 1141.96L537.41, 948.25"/><path stroke="black" fill="none" stroke-width="1" d="M519.84, 944.13L515.84, 940.18L512.24, 936.05L509.04, 931.76L506.22, 927.33L503.78, 922.78L501.72, 918.12L500.02, 913.38L498.69, 908.57L497.71, 903.71L497.09, 898.82L496.81, 893.92L496.86, 889.03L497.25, 884.16L497.97, 879.34L499, 874.59L500.35, 869.91L502.01, 865.33L503.97, 860.88L506.22, 856.56L508.77, 852.39L511.6, 848.4L514.71, 844.6L518.08, 841.02L521.73, 837.66L525.64, 834.55L529.79, 831.71L534.2, 829.16L538.85, 826.91L543.73, 824.98L548.85, 823.39L554.19, 822.17L559.74, 821.32L856.05, 787.15L860.83, 786.75L865.54, 786.67L870.16, 786.89L874.7, 787.4L879.14, 788.2L883.47, 789.27L887.69, 790.6L891.79, 792.18L895.75, 794.01L899.58, 796.06L903.25, 798.34L906.77, 800.83L910.13, 803.53L913.31, 806.41L916.32, 809.48L919.13, 812.72L921.75, 816.12L924.16, 819.67L926.36, 823.36L928.33, 827.19L930.08, 831.13L931.59, 835.19L932.84, 839.34L933.85, 843.59L934.59, 847.92L935.06, 852.32L935.25, 856.77L935.15, 861.28L934.75, 865.83L934.05, 870.41L933.04, 875.01L931.71, 879.62L855.03, 1115.6L853.4, 1120.11L851.52, 1124.43L849.39, 1128.55L847.04, 1132.46L844.47, 1136.16L841.7, 1139.66L838.73, 1142.94L835.59, 1146.01L832.28, 1148.85L828.82, 1151.48L825.21, 1153.87L821.48, 1156.04L817.64, 1157.97L813.69, 1159.67L809.65, 1161.12L805.54, 1162.33L801.36, 1163.3L797.12, 1164.02L792.85, 1164.48L788.55, 1164.68L784.24, 1164.63L779.92, 1164.31L775.62, 1163.73L771.34, 1162.88L767.1, 1161.75L762.9, 1160.35L758.77, 1158.67L754.71, 1156.7L750.74, 1154.45L746.87, 1151.91L743.1, 1149.07L739.47, 1145.94L519.84, 944.13"/><path stroke="black" fill="none" stroke-width="1" d="M502.71, 940.39L498.95, 936.23L495.59, 931.92L492.64, 927.48L490.07, 922.91L487.89, 918.24L486.08, 913.49L484.65, 908.68L483.58, 903.81L482.86, 898.92L482.5, 894.02L482.48, 889.12L482.79, 884.25L483.44, 879.43L484.4, 874.66L485.68, 869.97L487.27, 865.39L489.16, 860.91L491.35, 856.57L493.82, 852.38L496.57, 848.37L499.59, 844.54L502.89, 840.91L506.44, 837.51L510.24, 834.35L514.29, 831.46L518.58, 828.84L523.1, 826.52L527.84, 824.51L532.81, 822.83L537.98, 821.51L543.36, 820.55L548.93, 819.98L839.85, 800.99L844.65, 800.83L849.37, 800.98L853.98, 801.43L858.5, 802.17L862.9, 803.19L867.17, 804.48L871.33, 806.02L875.34, 807.81L879.21, 809.83L882.93, 812.09L886.5, 814.55L889.89, 817.22L893.11, 820.09L896.15, 823.13L899, 826.35L901.64, 829.74L904.09, 833.27L906.32, 836.94L908.33, 840.75L910.11, 844.67L911.65, 848.71L912.95, 852.84L913.99, 857.06L914.78, 861.36L915.29, 865.73L915.54, 870.15L915.49, 874.62L915.16, 879.12L914.53, 883.65L913.59, 888.19L912.33, 892.74L910.76, 897.28L823.33, 1125.05L821.46, 1129.48L819.35, 1133.7L817.01, 1137.7L814.45, 1141.49L811.68, 1145.06L808.72, 1148.41L805.58, 1151.53L802.28, 1154.43L798.82, 1157.1L795.22, 1159.54L791.49, 1161.74L787.64, 1163.71L783.69, 1165.43L779.65, 1166.92L775.54, 1168.15L771.36, 1169.15L767.12, 1169.89L762.85, 1170.37L758.56, 1170.61L754.25, 1170.58L749.94, 1170.29L745.64, 1169.74L741.37, 1168.92L737.14, 1167.84L732.96, 1166.48L728.84, 1164.85L724.8, 1162.94L720.85, 1160.76L717, 1158.29L713.26, 1155.53L709.66, 1152.49L706.2, 1149.16L502.71, 940.39"/><path stroke="black" fill="none" stroke-width="1" d="M486.01, 937.03L482.49, 932.69L479.38, 928.22L476.68, 923.63L474.37, 918.94L472.45, 914.17L470.91, 909.34L469.74, 904.47L468.93, 899.57L468.48, 894.66L468.38, 889.75L468.62, 884.87L469.19, 880.04L470.09, 875.26L471.3, 870.57L472.82, 865.96L474.64, 861.47L476.76, 857.12L479.16, 852.91L481.84, 848.86L484.79, 845L488, 841.34L491.47, 837.9L495.18, 834.69L499.13, 831.74L503.31, 829.06L507.72, 826.67L512.34, 824.58L517.17, 822.82L522.19, 821.4L527.41, 820.34L532.81, 819.65L538.39, 819.36L823.17, 814.91L827.99, 814.99L832.69, 815.37L837.29, 816.05L841.77, 817.02L846.12, 818.26L850.33, 819.76L854.41, 821.51L858.33, 823.5L862.1, 825.72L865.71, 828.16L869.15, 830.81L872.41, 833.65L875.48, 836.68L878.36, 839.88L881.05, 843.25L883.52, 846.76L885.79, 850.42L887.83, 854.21L889.64, 858.12L891.22, 862.13L892.56, 866.25L893.64, 870.45L894.47, 874.72L895.03, 879.06L895.33, 883.45L895.34, 887.89L895.06, 892.36L894.5, 896.84L893.63, 901.34L892.45, 905.83L890.96, 910.32L889.15, 914.78L791.61, 1133.84L789.51, 1138.17L787.18, 1142.28L784.62, 1146.16L781.86, 1149.82L778.91, 1153.24L775.77, 1156.43L772.47, 1159.39L769.01, 1162.12L765.41, 1164.6L761.68, 1166.85L757.83, 1168.85L753.88, 1170.61L749.84, 1172.13L745.72, 1173.39L741.54, 1174.41L737.3, 1175.18L733.03, 1175.69L728.74, 1175.95L724.43, 1175.95L720.12, 1175.69L715.83, 1175.17L711.56, 1174.38L707.34, 1173.34L703.16, 1172.02L699.06, 1170.43L695.03, 1168.58L691.09, 1166.45L687.26, 1164.05L683.55, 1161.36L679.97, 1158.4L676.53, 1155.16L673.25, 1151.64L486.01, 937.03"/><path stroke="black" fill="none" stroke-width="1" d="M469.68, 934.08L466.42, 929.57L463.58, 924.94L461.14, 920.22L459.09, 915.43L457.44, 910.58L456.16, 905.69L455.26, 900.77L454.72, 895.84L454.53, 890.93L454.69, 886.04L455.19, 881.19L456.01, 876.4L457.16, 871.69L458.61, 867.08L460.37, 862.57L462.42, 858.2L464.75, 853.96L467.37, 849.9L470.25, 846.01L473.38, 842.31L476.77, 838.83L480.4, 835.58L484.26, 832.58L488.35, 829.84L492.65, 827.38L497.16, 825.22L501.87, 823.37L506.77, 821.86L511.85, 820.7L517.1, 819.9L522.51, 819.48L528.08, 819.47L806.02, 828.87L810.84, 829.19L815.53, 829.81L820.09, 830.72L824.52, 831.91L828.81, 833.37L832.95, 835.08L836.94, 837.04L840.76, 839.23L844.42, 841.64L847.91, 844.26L851.21, 847.08L854.33, 850.09L857.25, 853.27L859.97, 856.62L862.48, 860.12L864.78, 863.77L866.86, 867.54L868.7, 871.43L870.32, 875.43L871.69, 879.53L872.82, 883.71L873.68, 887.97L874.29, 892.29L874.63, 896.66L874.7, 901.06L874.48, 905.5L873.97, 909.95L873.17, 914.41L872.07, 918.86L870.66, 923.3L868.93, 927.7L866.88, 932.07L759.92, 1141.99L757.59, 1146.21L755.04, 1150.2L752.29, 1153.95L749.33, 1157.46L746.2, 1160.73L742.89, 1163.75L739.43, 1166.54L735.83, 1169.08L732.09, 1171.37L728.24, 1173.42L724.29, 1175.21L720.24, 1176.76L716.12, 1178.06L711.94, 1179.11L707.7, 1179.9L703.43, 1180.44L699.13, 1180.72L694.82, 1180.75L690.51, 1180.51L686.22, 1180.02L681.95, 1179.27L677.73, 1178.25L673.56, 1176.97L669.46, 1175.43L665.44, 1173.62L661.51, 1171.55L657.69, 1169.2L653.99, 1166.59L650.43, 1163.7L647.01, 1160.55L643.75, 1157.12L640.66, 1153.41L469.68, 934.08"/><path stroke="black" fill="none" stroke-width="1" d="M453.72, 931.55L450.72, 926.88L448.14, 922.12L445.97, 917.29L444.2, 912.4L442.81, 907.48L441.81, 902.54L441.17, 897.59L440.9, 892.66L440.98, 887.75L441.39, 882.89L442.15, 878.09L443.22, 873.36L444.61, 868.73L446.3, 864.21L448.29, 859.81L450.56, 855.56L453.1, 851.47L455.92, 847.55L458.99, 843.83L462.3, 840.31L465.86, 837.02L469.64, 833.96L473.64, 831.17L477.86, 828.65L482.27, 826.42L486.87, 824.49L491.65, 822.89L496.6, 821.63L501.72, 820.73L506.99, 820.19L512.4, 820.05L517.95, 820.31L788.41, 842.87L793.2, 843.42L797.87, 844.28L802.39, 845.41L806.76, 846.82L810.98, 848.5L815.03, 850.41L818.92, 852.57L822.64, 854.95L826.18, 857.55L829.53, 860.35L832.69, 863.33L835.66, 866.5L838.42, 869.83L840.97, 873.32L843.3, 876.95L845.42, 880.71L847.3, 884.59L848.95, 888.58L850.36, 892.66L851.52, 896.83L852.43, 901.07L853.09, 905.37L853.47, 909.72L853.59, 914.11L853.42, 918.52L852.98, 922.94L852.24, 927.37L851.21, 931.79L849.87, 936.18L848.23, 940.54L846.27, 944.86L843.99, 949.12L728.3, 1149.51L725.75, 1153.61L722.99, 1157.47L720.03, 1161.07L716.9, 1164.42L713.59, 1167.53L710.12, 1170.38L706.51, 1172.98L702.77, 1175.33L698.92, 1177.42L694.96, 1179.26L690.91, 1180.85L686.78, 1182.18L682.59, 1183.26L678.35, 1184.08L674.07, 1184.64L669.76, 1184.95L665.45, 1185L661.14, 1184.79L656.85, 1184.33L652.58, 1183.6L648.36, 1182.62L644.19, 1181.37L640.09, 1179.87L636.07, 1178.1L632.15, 1176.07L628.34, 1173.78L624.65, 1171.23L621.09, 1168.41L617.68, 1165.33L614.44, 1161.99L611.37, 1158.38L608.49, 1154.5L453.72, 931.55"/><path stroke="black" fill="none" stroke-width="1" d="M438.08, 929.45L435.36, 924.63L433.05, 919.76L431.15, 914.83L429.65, 909.87L428.54, 904.89L427.81, 899.92L427.44, 894.96L427.43, 890.03L427.77, 885.14L428.45, 880.32L429.45, 875.58L430.77, 870.93L432.4, 866.39L434.32, 861.98L436.53, 857.7L439.02, 853.59L441.77, 849.64L444.77, 845.89L448.02, 842.33L451.51, 839L455.22, 835.9L459.14, 833.06L463.27, 830.48L467.6, 828.18L472.1, 826.19L476.78, 824.5L481.63, 823.15L486.63, 822.14L491.77, 821.49L497.04, 821.22L502.44, 821.35L507.94, 821.88L770.33, 856.85L775.1, 857.65L779.73, 858.73L784.19, 860.1L788.49, 861.72L792.63, 863.61L796.59, 865.73L800.38, 868.08L803.97, 870.65L807.38, 873.42L810.6, 876.39L813.61, 879.54L816.41, 882.85L819, 886.32L821.38, 889.94L823.53, 893.69L825.45, 897.56L827.14, 901.54L828.59, 905.61L829.79, 909.76L830.74, 913.99L831.43, 918.28L831.86, 922.61L832.02, 926.99L831.91, 931.38L831.52, 935.78L830.84, 940.19L829.88, 944.58L828.62, 948.94L827.05, 953.27L825.18, 957.54L823, 961.76L820.49, 965.9L696.78, 1156.4L694.02, 1160.37L691.05, 1164.08L687.91, 1167.53L684.59, 1170.72L681.12, 1173.65L677.5, 1176.31L673.75, 1178.72L669.89, 1180.87L665.92, 1182.76L661.86, 1184.39L657.73, 1185.76L653.53, 1186.87L649.28, 1187.72L644.99, 1188.31L640.68, 1188.65L636.36, 1188.73L632.05, 1188.54L627.75, 1188.1L623.48, 1187.4L619.25, 1186.45L615.08, 1185.24L610.98, 1183.76L606.97, 1182.04L603.05, 1180.05L599.24, 1177.81L595.55, 1175.31L592, 1172.55L588.6, 1169.54L585.36, 1166.27L582.3, 1162.75L579.43, 1158.97L576.76, 1154.93L438.08, 929.45"/><path stroke="black" fill="none" stroke-width="1" d="M422.74, 927.79L420.3, 922.85L418.27, 917.87L416.65, 912.86L415.43, 907.84L414.59, 902.82L414.13, 897.83L414.03, 892.87L414.29, 887.96L414.89, 883.11L415.82, 878.35L417.07, 873.68L418.63, 869.12L420.49, 864.68L422.64, 860.39L425.06, 856.24L427.75, 852.27L430.7, 848.49L433.89, 844.9L437.31, 841.53L440.95, 838.4L444.81, 835.5L448.86, 832.87L453.11, 830.51L457.53, 828.44L462.12, 826.68L466.87, 825.24L471.76, 824.14L476.79, 823.38L481.94, 822.99L487.2, 822.99L492.57, 823.38L498.02, 824.18L751.8, 870.81L756.54, 871.84L761.11, 873.16L765.51, 874.74L769.73, 876.58L773.78, 878.67L777.63, 880.99L781.3, 883.53L784.77, 886.28L788.04, 889.23L791.11, 892.36L793.96, 895.66L796.6, 899.12L799.02, 902.72L801.21, 906.46L803.17, 910.32L804.9, 914.28L806.38, 918.35L807.62, 922.49L808.61, 926.71L809.34, 930.99L809.82, 935.31L810.03, 939.67L809.96, 944.05L809.62, 948.44L809.01, 952.82L808.1, 957.19L806.91, 961.53L805.42, 965.83L803.63, 970.08L801.54, 974.26L799.13, 978.36L796.41, 982.38L665.41, 1162.69L662.43, 1166.52L659.27, 1170.07L655.94, 1173.36L652.46, 1176.37L648.83, 1179.11L645.07, 1181.59L641.19, 1183.8L637.21, 1185.74L633.14, 1187.42L629, 1188.83L624.79, 1189.98L620.53, 1190.87L616.24, 1191.49L611.92, 1191.86L607.59, 1191.96L603.27, 1191.8L598.96, 1191.39L594.69, 1190.71L590.45, 1189.78L586.28, 1188.6L582.18, 1187.16L578.16, 1185.46L574.23, 1183.52L570.42, 1181.32L566.73, 1178.86L563.18, 1176.16L559.78, 1173.21L556.55, 1170.01L553.49, 1166.56L550.63, 1162.87L547.96, 1158.93L545.52, 1154.74L422.74, 927.79"/><path stroke="black" fill="none" stroke-width="1" d="M407.67, 926.58L405.51, 921.52L403.76, 916.45L402.43, 911.38L401.48, 906.32L400.92, 901.28L400.74, 896.28L400.91, 891.34L401.43, 886.46L402.28, 881.67L403.46, 876.97L404.96, 872.39L406.75, 867.93L408.84, 863.61L411.2, 859.44L413.83, 855.45L416.72, 851.63L419.85, 848.02L423.21, 844.61L426.79, 841.43L430.59, 838.5L434.57, 835.81L438.75, 833.4L443.1, 831.27L447.61, 829.43L452.27, 827.91L457.07, 826.72L462, 825.86L467.04, 825.36L472.19, 825.23L477.43, 825.49L482.75, 826.14L488.14, 827.2L732.83, 884.72L737.52, 885.98L742.03, 887.52L746.35, 889.32L750.49, 891.38L754.43, 893.67L758.17, 896.18L761.71, 898.91L765.05, 901.83L768.17, 904.94L771.08, 908.22L773.77, 911.67L776.23, 915.26L778.47, 918.99L780.47, 922.84L782.24, 926.79L783.76, 930.85L785.04, 934.99L786.07, 939.2L786.85, 943.47L787.36, 947.79L787.61, 952.14L787.6, 956.51L787.31, 960.88L786.75, 965.25L785.9, 969.61L784.77, 973.93L783.35, 978.21L781.64, 982.43L779.63, 986.59L777.32, 990.66L774.7, 994.64L771.77, 998.51L634.21, 1168.38L631.03, 1172.05L627.68, 1175.44L624.18, 1178.55L620.53, 1181.39L616.76, 1183.94L612.87, 1186.22L608.87, 1188.22L604.79, 1189.95L600.63, 1191.41L596.41, 1192.6L592.14, 1193.53L587.83, 1194.19L583.5, 1194.58L579.17, 1194.71L574.83, 1194.58L570.52, 1194.19L566.23, 1193.54L561.99, 1192.64L557.81, 1191.48L553.7, 1190.06L549.68, 1188.4L545.75, 1186.49L541.93, 1184.32L538.24, 1181.92L534.69, 1179.26L531.28, 1176.36L528.05, 1173.23L524.99, 1169.85L522.12, 1166.23L519.46, 1162.37L517.01, 1158.28L514.8, 1153.96L407.67, 926.58"/><path stroke="black" fill="none" stroke-width="1" d="M392.83, 925.82L390.96, 920.67L389.5, 915.53L388.45, 910.41L387.79, 905.31L387.51, 900.27L387.59, 895.28L388.03, 890.37L388.81, 885.54L389.92, 880.82L391.34, 876.2L393.07, 871.72L395.1, 867.37L397.4, 863.18L399.98, 859.16L402.81, 855.31L405.88, 851.67L409.18, 848.23L412.71, 845.01L416.44, 842.03L420.37, 839.3L424.48, 836.84L428.76, 834.65L433.2, 832.75L437.78, 831.15L442.5, 829.87L447.34, 828.92L452.29, 828.32L457.34, 828.07L462.47, 828.2L467.68, 828.71L472.94, 829.62L478.26, 830.94L713.43, 898.54L718.06, 900.04L722.5, 901.8L726.74, 903.82L730.77, 906.08L734.6, 908.56L738.22, 911.26L741.63, 914.16L744.82, 917.26L747.79, 920.52L750.53, 923.95L753.05, 927.53L755.33, 931.25L757.38, 935.09L759.19, 939.04L760.76, 943.09L762.08, 947.23L763.14, 951.43L763.96, 955.7L764.52, 960.01L764.81, 964.35L764.84, 968.71L764.6, 973.08L764.09, 977.45L763.3, 981.79L762.23, 986.1L760.88, 990.37L759.24, 994.57L757.3, 998.71L755.08, 1002.76L752.55, 1006.72L749.72, 1010.56L746.58, 1014.28L603.22, 1173.51L599.85, 1177.02L596.32, 1180.23L592.65, 1183.16L588.85, 1185.8L584.94, 1188.15L580.93, 1190.23L576.83, 1192.02L572.65, 1193.53L568.41, 1194.77L564.13, 1195.74L559.81, 1196.43L555.47, 1196.86L551.12, 1197.02L546.77, 1196.91L542.44, 1196.55L538.15, 1195.93L533.9, 1195.04L529.71, 1193.91L525.59, 1192.52L521.56, 1190.89L517.62, 1189L513.8, 1186.88L510.1, 1184.51L506.54, 1181.89L503.13, 1179.05L499.89, 1175.96L496.82, 1172.64L493.95, 1169.09L491.28, 1165.32L488.83, 1161.31L486.61, 1157.09L484.64, 1152.64L392.83, 925.82"/><path stroke="black" fill="none" stroke-width="1" d="M378.2, 925.51L376.62, 920.29L375.46, 915.09L374.69, 909.94L374.31, 904.83L374.31, 899.79L374.66, 894.84L375.36, 889.97L376.4, 885.2L377.75, 880.56L379.42, 876.04L381.38, 871.67L383.63, 867.45L386.14, 863.39L388.92, 859.52L391.94, 855.85L395.19, 852.38L398.66, 849.13L402.33, 846.11L406.21, 843.33L410.26, 840.82L414.48, 838.57L418.85, 836.61L423.37, 834.94L428.01, 833.58L432.78, 832.55L437.65, 831.85L442.61, 831.49L447.64, 831.5L452.75, 831.88L457.9, 832.65L463.1, 833.81L468.32, 835.39L693.62, 912.26L698.18, 913.99L702.53, 915.97L706.67, 918.2L710.59, 920.65L714.3, 923.33L717.79, 926.21L721.05, 929.29L724.09, 932.54L726.9, 935.96L729.47, 939.53L731.81, 943.23L733.91, 947.07L735.76, 951.01L737.37, 955.06L738.74, 959.19L739.85, 963.39L740.7, 967.65L741.3, 971.96L741.64, 976.3L741.71, 980.66L741.52, 985.02L741.05, 989.38L740.32, 993.72L739.3, 998.02L738.01, 1002.28L736.44, 1006.48L734.58, 1010.6L732.43, 1014.64L729.99, 1018.58L727.26, 1022.4L724.22, 1026.1L720.89, 1029.66L572.47, 1178.08L568.91, 1181.41L565.22, 1184.45L561.39, 1187.18L557.45, 1189.62L553.42, 1191.77L549.29, 1193.63L545.09, 1195.2L540.84, 1196.49L536.53, 1197.51L532.19, 1198.24L527.83, 1198.71L523.47, 1198.9L519.11, 1198.83L514.77, 1198.49L510.46, 1197.89L506.2, 1197.04L502, 1195.93L497.87, 1194.56L493.82, 1192.95L489.88, 1191.1L486.04, 1189L482.34, 1186.66L478.77, 1184.09L475.35, 1181.28L472.1, 1178.25L469.02, 1174.98L466.14, 1171.5L463.47, 1167.79L461.01, 1163.86L458.78, 1159.72L456.8, 1155.37L455.07, 1150.81L378.2, 925.51"/><path stroke="black" fill="none" stroke-width="1" d="M363.74, 925.66L362.46, 920.38L361.59, 915.15L361.11, 909.97L361.02, 904.87L361.28, 899.86L361.91, 894.94L362.87, 890.14L364.15, 885.45L365.75, 880.9L367.65, 876.49L369.84, 872.24L372.3, 868.15L375.02, 864.25L377.98, 860.55L381.18, 857.04L384.6, 853.76L388.23, 850.7L392.04, 847.89L396.04, 845.33L400.2, 843.03L404.52, 841.01L408.98, 839.28L413.56, 837.85L418.26, 836.74L423.05, 835.94L427.93, 835.49L432.89, 835.39L437.9, 835.64L442.96, 836.27L448.06, 837.29L453.17, 838.7L458.29, 840.53L673.4, 925.86L677.87, 927.81L682.13, 930.01L686.17, 932.44L689.97, 935.09L693.55, 937.95L696.9, 941.01L700.01, 944.25L702.89, 947.65L705.52, 951.21L707.92, 954.91L710.07, 958.74L711.98, 962.68L713.64, 966.72L715.04, 970.85L716.2, 975.05L717.1, 979.31L717.74, 983.61L718.12, 987.95L718.23, 992.31L718.08, 996.68L717.67, 1001.04L716.98, 1005.37L716.02, 1009.67L714.79, 1013.93L713.28, 1018.12L711.48, 1022.24L709.41, 1026.27L707.05, 1030.2L704.41, 1034.01L701.47, 1037.69L698.24, 1041.23L694.72, 1044.62L542, 1182.13L538.26, 1185.28L534.4, 1188.12L530.43, 1190.65L526.36, 1192.88L522.21, 1194.82L517.99, 1196.46L513.7, 1197.81L509.38, 1198.88L505.02, 1199.66L500.64, 1200.16L496.25, 1200.39L491.88, 1200.35L487.52, 1200.04L483.2, 1199.47L478.92, 1198.64L474.71, 1197.55L470.56, 1196.22L466.51, 1194.63L462.55, 1192.8L458.7, 1190.73L454.98, 1188.42L451.4, 1185.88L447.97, 1183.11L444.71, 1180.12L441.63, 1176.9L438.73, 1173.47L436.04, 1169.82L433.57, 1165.96L431.33, 1161.9L429.33, 1157.63L427.59, 1153.17L426.12, 1148.51L363.74, 925.66"/><path stroke="black" fill="none" stroke-width="1" d="M349.43, 926.27L348.45, 920.94L347.87, 915.69L347.68, 910.52L347.87, 905.44L348.41, 900.46L349.29, 895.6L350.51, 890.87L352.04, 886.28L353.88, 881.83L356.01, 877.54L358.41, 873.43L361.08, 869.49L363.99, 865.75L367.14, 862.22L370.51, 858.9L374.08, 855.81L377.85, 852.96L381.79, 850.35L385.91, 848.01L390.17, 845.94L394.57, 844.15L399.1, 842.65L403.73, 841.46L408.46, 840.59L413.28, 840.05L418.16, 839.84L423.1, 839.98L428.08, 840.49L433.08, 841.36L438.1, 842.63L443.12, 844.28L448.13, 846.34L652.78, 939.31L657.17, 941.48L661.33, 943.89L665.24, 946.52L668.92, 949.36L672.36, 952.4L675.56, 955.63L678.51, 959.02L681.22, 962.57L683.68, 966.26L685.89, 970.08L687.86, 974.02L689.57, 978.06L691.02, 982.18L692.22, 986.38L693.16, 990.64L693.85, 994.95L694.27, 999.29L694.43, 1003.65L694.32, 1008.02L693.95, 1012.38L693.31, 1016.71L692.41, 1021.02L691.23, 1025.27L689.77, 1029.46L688.04, 1033.58L686.04, 1037.61L683.76, 1041.53L681.19, 1045.34L678.35, 1049.02L675.22, 1052.55L671.8, 1055.93L668.1, 1059.13L511.83, 1185.68L507.92, 1188.63L503.91, 1191.27L499.81, 1193.6L495.62, 1195.62L491.36, 1197.33L487.05, 1198.75L482.69, 1199.87L478.3, 1200.71L473.9, 1201.26L469.49, 1201.53L465.1, 1201.52L460.72, 1201.25L456.38, 1200.7L452.09, 1199.9L447.85, 1198.83L443.7, 1197.52L439.63, 1195.95L435.65, 1194.15L431.8, 1192.1L428.06, 1189.82L424.47, 1187.31L421.03, 1184.57L417.75, 1181.61L414.65, 1178.43L411.74, 1175.05L409.04, 1171.45L406.55, 1167.65L404.29, 1163.66L402.27, 1159.47L400.51, 1155.09L399.02, 1150.52L397.81, 1145.78L349.43, 926.27"/><path stroke="black" fill="none" stroke-width="1" d="M335.23, 927.33L334.56, 921.98L334.28, 916.72L334.37, 911.57L334.84, 906.53L335.65, 901.61L336.79, 896.82L338.26, 892.17L340.04, 887.68L342.1, 883.35L344.45, 879.2L347.06, 875.23L349.92, 871.46L353.02, 867.89L356.34, 864.54L359.86, 861.41L363.58, 858.52L367.48, 855.88L371.55, 853.49L375.76, 851.37L380.11, 849.52L384.58, 847.97L389.16, 846.71L393.84, 845.77L398.59, 845.14L403.41, 844.84L408.28, 844.87L413.19, 845.26L418.12, 846.01L423.06, 847.13L427.99, 848.63L432.91, 850.53L437.79, 852.82L631.8, 952.59L636.09, 954.98L640.13, 957.59L643.92, 960.42L647.46, 963.45L650.75, 966.66L653.79, 970.04L656.58, 973.58L659.11, 977.27L661.39, 981.09L663.41, 985.02L665.18, 989.06L666.69, 993.18L667.94, 997.38L668.93, 1001.64L669.66, 1005.95L670.12, 1010.3L670.32, 1014.66L670.26, 1019.03L669.94, 1023.4L669.34, 1027.74L668.48, 1032.05L667.35, 1036.3L665.96, 1040.5L664.29, 1044.62L662.34, 1048.65L660.13, 1052.58L657.64, 1056.38L654.88, 1060.06L651.84, 1063.59L648.53, 1066.97L644.94, 1070.17L641.06, 1073.18L481.99, 1188.75L477.92, 1191.5L473.77, 1193.93L469.54, 1196.04L465.24, 1197.84L460.89, 1199.33L456.5, 1200.52L452.08, 1201.41L447.65, 1202.01L443.22, 1202.33L438.79, 1202.36L434.4, 1202.12L430.03, 1201.6L425.72, 1200.83L421.47, 1199.79L417.29, 1198.5L413.21, 1196.96L409.22, 1195.17L405.34, 1193.15L401.6, 1190.89L397.99, 1188.4L394.53, 1185.69L391.24, 1182.77L388.12, 1179.63L385.2, 1176.28L382.47, 1172.73L379.97, 1168.99L377.69, 1165.05L375.65, 1160.93L373.87, 1156.62L372.35, 1152.14L371.11, 1147.49L370.17, 1142.68L335.23, 927.33"/><path stroke="black" fill="none" stroke-width="1" d="M321.13, 928.84L320.76, 923.49L320.77, 918.24L321.15, 913.12L321.89, 908.13L322.97, 903.28L324.37, 898.58L326.08, 894.04L328.09, 889.66L330.38, 885.47L332.94, 881.46L335.75, 877.65L338.79, 874.04L342.06, 870.66L345.54, 867.49L349.22, 864.57L353.07, 861.88L357.09, 859.45L361.26, 857.29L365.56, 855.4L369.99, 853.79L374.52, 852.47L379.14, 851.45L383.85, 850.74L388.61, 850.36L393.42, 850.3L398.27, 850.59L403.13, 851.22L408, 852.21L412.86, 853.56L417.7, 855.3L422.49, 857.42L427.23, 859.94L610.46, 965.7L614.64, 968.29L618.55, 971.11L622.21, 974.12L625.61, 977.32L628.74, 980.7L631.62, 984.23L634.23, 987.92L636.58, 991.73L638.67, 995.66L640.5, 999.7L642.07, 1003.82L643.37, 1008.03L644.41, 1012.29L645.18, 1016.61L645.7, 1020.96L645.94, 1025.33L645.93, 1029.7L645.64, 1034.07L645.09, 1038.42L644.28, 1042.74L643.2, 1047L641.85, 1051.2L640.24, 1055.33L638.36, 1059.37L636.21, 1063.3L633.79, 1067.11L631.11, 1070.79L628.15, 1074.33L624.93, 1077.7L621.43, 1080.9L617.67, 1083.92L613.64, 1086.73L452.5, 1191.38L448.29, 1193.92L444.01, 1196.13L439.66, 1198.02L435.26, 1199.59L430.83, 1200.85L426.38, 1201.81L421.91, 1202.46L417.44, 1202.83L412.99, 1202.9L408.57, 1202.7L404.18, 1202.22L399.84, 1201.47L395.57, 1200.46L391.37, 1199.19L387.27, 1197.68L383.26, 1195.91L379.37, 1193.91L375.6, 1191.67L371.98, 1189.21L368.5, 1186.52L365.19, 1183.63L362.06, 1180.52L359.12, 1177.21L356.38, 1173.7L353.85, 1170L351.55, 1166.11L349.49, 1162.05L347.68, 1157.81L346.14, 1153.41L344.87, 1148.84L343.89, 1144.12L343.22, 1139.25L321.13, 928.84"/><path stroke="black" fill="none" stroke-width="1" d="M314, 896.32L316.17, 892.21L318.67, 888.16L321.43, 884.31L324.43, 880.66L327.66, 877.24L331.09, 874.04L334.72, 871.08L338.53, 868.36L342.51, 865.89L346.63, 863.68L350.89, 861.74L355.27, 860.08L359.76, 858.7L364.34, 857.62L368.99, 856.85L373.71, 856.38L378.47, 856.24L383.26, 856.43L388.07, 856.95L392.88, 857.82L397.68, 859.05L402.44, 860.63L407.17, 862.6L411.84, 864.94L416.43, 867.67L588.78, 978.59L592.84, 981.4L596.62, 984.4L600.13, 987.6L603.37, 990.97L606.35, 994.5L609.05, 998.18L611.48, 1002L613.65, 1005.93L615.55, 1009.97L617.18, 1014.1L618.54, 1018.3L619.63, 1022.57L620.46, 1026.89L621.02, 1031.25L621.31, 1035.63L621.34, 1040.01L621.1, 1044.39L620.59, 1048.75L619.82, 1053.07L618.79, 1057.35L617.49, 1061.56L615.93, 1065.7L614.1, 1069.74L612.01, 1073.68L609.66, 1077.51L607.05, 1081.2L604.17, 1084.75L601.03, 1088.13L597.63, 1091.34L593.97, 1094.36L590.04, 1097.19L585.86, 1099.79L423.39, 1193.59L419.04, 1195.91L414.64, 1197.9L410.19, 1199.56L405.71, 1200.9L401.21, 1201.93L396.7, 1202.65L392.2, 1203.06L387.71, 1203.19L383.25, 1203.03L378.83, 1202.59L374.47, 1201.87L370.17, 1200.89L365.95, 1199.65L361.82, 1198.15L357.8, 1196.41L353.89, 1194.42L350.1, 1192.21L346.46, 1189.76L342.97, 1187.1L339.64, 1184.23L336.49, 1181.14L333.52, 1177.86L330.76, 1174.38L328.21, 1170.72L325.89, 1166.88L323.8, 1162.87L321.97, 1158.69L320.4, 1154.34L319.1, 1149.85L318.09, 1145.21L317.38, 1140.43L316.98, 1135.52L314, 1073.83"/><path stroke="black" fill="none" stroke-width="1" d="M314, 883.4L316.48, 881.03L320.07, 878.03L323.83, 875.27L327.77, 872.77L331.85, 870.52L336.07, 868.54L340.41, 866.83L344.86, 865.4L349.39, 864.26L354, 863.42L358.67, 862.89L363.39, 862.66L368.13, 862.76L372.89, 863.19L377.65, 863.95L382.4, 865.05L387.11, 866.51L391.77, 868.32L396.38, 870.5L400.91, 873.06L405.34, 876L566.78, 991.27L570.71, 994.28L574.35, 997.47L577.71, 1000.84L580.79, 1004.37L583.59, 1008.05L586.12, 1011.87L588.36, 1015.8L590.34, 1019.85L592.04, 1023.98L593.46, 1028.19L594.61, 1032.47L595.49, 1036.8L596.11, 1041.16L596.45, 1045.55L596.52, 1049.95L596.33, 1054.33L595.87, 1058.7L595.14, 1063.04L594.15, 1067.33L592.9, 1071.55L591.39, 1075.7L589.62, 1079.76L587.58, 1083.72L585.29, 1087.55L582.74, 1091.26L579.93, 1094.82L576.87, 1098.22L573.55, 1101.44L569.98, 1104.48L566.16, 1107.31L562.08, 1109.93L557.76, 1112.32L394.68, 1195.41L390.21, 1197.51L385.7, 1199.26L381.16, 1200.69L376.6, 1201.79L372.04, 1202.58L367.49, 1203.06L362.97, 1203.24L358.47, 1203.13L354.02, 1202.72L349.62, 1202.04L345.29, 1201.09L341.05, 1199.88L336.89, 1198.41L332.84, 1196.69L328.91, 1194.73L325.11, 1192.53L321.44, 1190.11L317.93, 1187.46L314.58, 1184.61L314, 1184.05"/><path stroke="black" fill="none" stroke-width="1" d="M314, 879.41L316.89, 877.78L321.07, 875.76L325.37, 874.01L329.78, 872.53L334.27, 871.34L338.85, 870.44L343.48, 869.84L348.15, 869.55L352.85, 869.57L357.57, 869.9L362.29, 870.56L366.98, 871.56L371.65, 872.89L376.26, 874.57L380.81, 876.6L385.29, 879L389.67, 881.76L393.94, 884.89L544.48, 1003.72L548.27, 1006.92L551.76, 1010.29L554.96, 1013.83L557.87, 1017.51L560.5, 1021.33L562.84, 1025.27L564.89, 1029.32L566.67, 1033.47L568.16, 1037.69L569.38, 1041.98L570.32, 1046.31L570.99, 1050.69L571.38, 1055.09L571.5, 1059.49L571.36, 1063.9L570.94, 1068.28L570.26, 1072.63L569.32, 1076.93L568.11, 1081.17L566.65, 1085.33L564.92, 1089.41L562.94, 1093.38L560.7, 1097.24L558.21, 1100.96L555.47, 1104.53L552.48, 1107.95L549.24, 1111.19L545.75, 1114.25L542.02, 1117.1L538.04, 1119.74L533.83, 1122.15L529.37, 1124.31L366.4, 1196.87L361.81, 1198.73L357.2, 1200.25L352.58, 1201.44L347.96, 1202.31L343.36, 1202.85L338.78, 1203.09L334.24, 1203.03L329.75, 1202.67L325.31, 1202.03L320.95, 1201.12L316.67, 1199.93L314, 1199.01"/><path stroke="black" fill="none" stroke-width="1" d="M314, 880.24L314.5, 880.07L318.96, 878.84L323.49, 877.88L328.09, 877.22L332.72, 876.86L337.39, 876.81L342.07, 877.06L346.74, 877.63L351.4, 878.53L356.02, 879.75L360.6, 881.31L365.11, 883.21L369.53, 885.45L373.87, 888.05L378.09, 891L382.18, 894.32L521.9, 1015.92L525.54, 1019.3L528.87, 1022.85L531.9, 1026.54L534.64, 1030.37L537.08, 1034.33L539.23, 1038.39L541.09, 1042.54L542.66, 1046.78L543.95, 1051.07L544.96, 1055.43L545.68, 1059.81L546.13, 1064.22L546.31, 1068.65L546.21, 1073.06L545.84, 1077.46L545.21, 1081.82L544.31, 1086.14L543.15, 1090.4L541.73, 1094.58L540.05, 1098.68L538.11, 1102.67L535.93, 1106.54L533.49, 1110.28L530.81, 1113.88L527.88, 1117.32L524.71, 1120.59L521.3, 1123.67L517.65, 1126.54L513.77, 1129.2L509.65, 1131.64L505.31, 1133.83L500.73, 1135.76L338.55, 1198.02L333.85, 1199.64L329.16, 1200.93L324.47, 1201.87L319.81, 1202.49L315.17, 1202.79L314, 1202.79"/><path stroke="black" fill="none" stroke-width="1" d="M314, 884.86L317.08, 884.58L321.71, 884.46L326.36, 884.64L331, 885.13L335.62, 885.94L340.21, 887.06L344.74, 888.51L349.22, 890.28L353.61, 892.39L357.9, 894.83L362.08, 897.63L366.14, 900.77L370.05, 904.26L499.06, 1027.85L502.54, 1031.41L505.7, 1035.12L508.56, 1038.97L511.11, 1042.94L513.37, 1047.01L515.32, 1051.18L516.98, 1055.43L518.35, 1059.75L519.42, 1064.11L520.22, 1068.52L520.73, 1072.95L520.96, 1077.39L520.91, 1081.82L520.59, 1086.24L520.01, 1090.62L519.15, 1094.96L518.04, 1099.23L516.66, 1103.44L515.03, 1107.55L513.14, 1111.56L511, 1115.46L508.62, 1119.23L505.99, 1122.85L503.12, 1126.31L500.01, 1129.6L496.67, 1132.71L493.1, 1135.61L489.3, 1138.31L485.27, 1140.77L481.03, 1142.99L476.56, 1144.96L471.88, 1146.65L314, 1197.94"/><path stroke="black" fill="none" stroke-width="1" d="M314, 892.94L315.02, 893.03L319.61, 893.75L324.17, 894.78L328.67, 896.13L333.11, 897.79L337.47, 899.77L341.74, 902.08L345.89, 904.72L349.91, 907.7L353.79, 911.01L357.51, 914.67L475.98, 1039.52L479.29, 1043.25L482.28, 1047.12L484.96, 1051.11L487.32, 1055.21L489.38, 1059.4L491.13, 1063.67L492.59, 1068L493.74, 1072.39L494.61, 1076.81L495.18, 1081.26L495.48, 1085.72L495.49, 1090.17L495.22, 1094.61L494.68, 1099.01L493.88, 1103.37L492.81, 1107.66L491.47, 1111.89L489.88, 1116.03L488.04, 1120.06L485.95, 1123.98L483.61, 1127.77L481.04, 1131.42L478.22, 1134.91L475.17, 1138.23L471.89, 1141.37L468.39, 1144.3L464.66, 1147.03L460.72, 1149.53L456.56, 1151.78L452.2, 1153.78L447.62, 1155.52L442.85, 1156.97L314, 1191.5"/><path stroke="black" fill="none" stroke-width="1" d="M314, 904.72L316.77, 905.7L321.11, 907.57L325.35, 909.76L329.47, 912.26L333.47, 915.09L337.32, 918.24L341.02, 921.72L344.54, 925.53L452.67, 1050.9L455.81, 1054.8L458.63, 1058.81L461.11, 1062.94L463.29, 1067.15L465.14, 1071.45L466.69, 1075.81L467.94, 1080.22L468.88, 1084.67L469.53, 1089.14L469.89, 1093.62L469.96, 1098.09L469.75, 1102.55L469.26, 1106.98L468.51, 1111.36L467.48, 1115.68L466.2, 1119.93L464.65, 1124.09L462.85, 1128.16L460.8, 1132.1L458.51, 1135.92L455.98, 1139.6L453.22, 1143.12L450.22, 1146.47L447, 1149.64L443.56, 1152.61L439.9, 1155.37L436.03, 1157.9L431.95, 1160.2L427.67, 1162.24L423.2, 1164.02L418.53, 1165.52L413.67, 1166.72L314, 1187.9"/><path stroke="black" fill="none" stroke-width="1" d="M314, 921.02L316.78, 922.9L320.62, 925.9L324.3, 929.21L327.81, 932.84L331.12, 936.79L429.17, 1061.99L432.13, 1066.04L434.76, 1070.2L437.05, 1074.45L439.03, 1078.78L440.68, 1083.17L442.02, 1087.61L443.05, 1092.08L443.78, 1096.58L444.21, 1101.09L444.35, 1105.59L444.2, 1110.08L443.77, 1114.53L443.07, 1118.94L442.09, 1123.29L440.85, 1127.56L439.35, 1131.75L437.59, 1135.84L435.59, 1139.81L433.34, 1143.66L430.86, 1147.37L428.14, 1150.92L425.19, 1154.31L422.02, 1157.51L418.63, 1160.51L415.04, 1163.31L411.23, 1165.89L407.23, 1168.22L403.03, 1170.31L398.64, 1172.14L394.06, 1173.68L389.31, 1174.94L384.38, 1175.89L314, 1187.04"/><path stroke="black" fill="none" stroke-width="1" d="M314, 944.21L314.13, 944.36L317.24, 948.43L405.5, 1072.78L408.27, 1076.98L410.7, 1081.27L412.8, 1085.64L414.57, 1090.06L416.01, 1094.54L417.14, 1099.05L417.95, 1103.58L418.47, 1108.12L418.68, 1112.66L418.6, 1117.17L418.23, 1121.65L417.58, 1126.09L416.66, 1130.47L415.46, 1134.77L414.01, 1138.99L412.3, 1143.11L410.34, 1147.12L408.13, 1151L405.69, 1154.74L403.01, 1158.33L400.11, 1161.75L396.99, 1164.98L393.65, 1168.03L390.11, 1170.87L386.37, 1173.48L382.43, 1175.87L378.3, 1178L373.98, 1179.88L369.49, 1181.47L364.83, 1182.79L360, 1183.8L355.02, 1184.49L314, 1188.8"/><path stroke="black" fill="none" stroke-width="1" d="M314, 977.78L381.67, 1083.27L384.25, 1087.61L386.48, 1092.02L388.37, 1096.49L389.93, 1101.01L391.17, 1105.56L392.08, 1110.13L392.68, 1114.71L392.97, 1119.28L392.96, 1123.83L392.66, 1128.35L392.07, 1132.82L391.2, 1137.23L390.06, 1141.57L388.66, 1145.82L386.99, 1149.97L385.07, 1154.01L382.91, 1157.92L380.51, 1161.7L377.88, 1165.32L375.02, 1168.78L371.94, 1172.05L368.65, 1175.14L365.16, 1178.02L361.46, 1180.68L357.58, 1183.11L353.51, 1185.29L349.27, 1187.22L344.85, 1188.87L340.27, 1190.24L335.54, 1191.31L330.65, 1192.07L325.62, 1192.5L314, 1193.11"/><path stroke="black" fill="none" stroke-width="1" d="M314, 1017.74L357.7, 1093.44L360.09, 1097.91L362.12, 1102.44L363.8, 1107.01L365.15, 1111.61L366.17, 1116.22L366.86, 1120.84L367.24, 1125.46L367.31, 1130.05L367.08, 1134.6L366.56, 1139.11L365.75, 1143.56L364.67, 1147.94L363.31, 1152.22L361.7, 1156.41L359.82, 1160.49L357.7, 1164.44L355.34, 1168.25L352.75, 1171.91L349.93, 1175.4L346.89, 1178.72L343.65, 1181.85L340.2, 1184.77L336.56, 1187.48L332.72, 1189.96L328.71, 1192.19L324.53, 1194.17L320.18, 1195.88L315.67, 1197.31L314, 1197.71"/></svg>