<?xml version="1.0" encoding="UTF-8" standalone="no"?>
<svg
   width="2260"
   height="1397"
   viewBox="0 0 2260 1397"
   fill="none"
   version="1.1"
   id="svg206"
   sodipodi:docname="looper-pattern.svg"
   xmlns:inkscape="http://www.inkscape.org/namespaces/inkscape"
   xmlns:sodipodi="http://sodipodi.sourceforge.net/DTD/sodipodi-0.dtd"
   xmlns="http://www.w3.org/2000/svg"
   xmlns:svg="http://www.w3.org/2000/svg">
  <sodipodi:namedview
     id="namedview206"
     pagecolor="#ffffff"
     bordercolor="#000000"
     borderopacity="0.25"
     inkscape:showpageshadow="2"
     inkscape:pageopacity="0.0"
     inkscape:pagecheckerboard="0"
     inkscape:deskcolor="#d1d1d1" />
  <path
     opacity="0.0144928"
     d="m 1870.09,1001.17 -39.2,-602.23 c -3.21,-49.321 -54.57,-80.354 -99.72,-60.251 l -382.13,170.132 c -45.15,20.103 -56.46,79.04 -21.95,114.428 l 421.31,432.091 c 46.04,47.22 125.97,11.63 121.69,-54.17 z"
     stroke="url(#paint0_linear_1836_4810)"
     stroke-opacity="0.2"
     stroke-width="4"
     id="path1"
     style="stroke:url(#paint0_linear_1836_4810)" />
  <path
     opacity="0.0289855"
     d="m 1830.45,1013.99 -6.88,-596.357 c -0.58,-49.455 -50.27,-83.189 -96.44,-65.464 L 1340.08,500.74 c -46.17,17.724 -60.53,76.046 -27.86,113.18 l 393.93,447.79 c 43.5,49.46 125.06,18.15 124.3,-47.72 z"
     stroke="url(#paint1_linear_1836_4810)"
     stroke-opacity="0.2"
     stroke-width="4"
     id="path2"
     style="stroke:url(#paint1_linear_1836_4810)" />
  <path
     opacity="0.0434783"
     d="m 1790.69,1025.77 24.7,-588.792 c 2.07,-49.448 -45.81,-85.794 -92.88,-70.5 l -390.75,126.965 c -47.07,15.294 -64.45,72.843 -33.71,111.628 l 366.07,461.829 c 40.86,51.56 123.82,24.6 126.57,-41.13 z"
     stroke="url(#paint2_linear_1836_4810)"
     stroke-opacity="0.2"
     stroke-width="4"
     id="path3"
     style="stroke:url(#paint2_linear_1836_4810)" />
  <path
     opacity="0.057971"
     d="m 1750.88,1036.5 55.46,-579.578 c 4.72,-49.3 -41.22,-88.162 -89.05,-75.344 l -393.28,105.379 c -47.84,12.818 -68.19,69.44 -39.45,109.776 l 337.82,474.197 c 38.13,53.52 122.24,30.98 128.5,-34.43 z"
     stroke="url(#paint3_linear_1836_4810)"
     stroke-opacity="0.2"
     stroke-width="4"
     id="path4"
     style="stroke:url(#paint3_linear_1836_4810)" />
  <path
     opacity="0.0724638"
     d="m 1711.06,1046.19 85.33,-568.78 c 7.35,-49.012 -36.5,-90.286 -84.98,-79.982 l -394.61,83.878 c -48.48,10.304 -71.75,65.846 -45.1,107.63 l 309.29,484.904 c 35.29,55.33 120.34,37.25 130.07,-27.65 z"
     stroke="url(#paint4_linear_1836_4810)"
     stroke-opacity="0.2"
     stroke-width="4"
     id="path5"
     style="stroke:url(#paint4_linear_1836_4810)" />
  <path
     opacity="0.0869565"
     d="m 1671.3,1054.85 114.21,-556.465 c 9.97,-48.583 -31.68,-92.159 -80.66,-84.4 l -394.78,62.527 c -48.99,7.759 -75.13,62.071 -50.63,105.194 l 280.57,493.944 c 32.38,57 118.11,43.42 131.29,-20.8 z"
     stroke="url(#paint5_linear_1836_4810)"
     stroke-opacity="0.2"
     stroke-width="4"
     id="path6"
     style="stroke:url(#paint5_linear_1836_4810)" />
  <path
     opacity="0.101449"
     d="m 1631.64,1062.51 142.04,-542.72 c 12.57,-48.013 -26.75,-93.775 -76.11,-88.587 l -393.8,41.391 c -49.36,5.188 -78.3,58.123 -56.03,102.475 l 251.77,501.331 c 29.38,58.51 115.56,49.45 132.13,-13.89 z"
     stroke="url(#paint6_linear_1836_4810)"
     stroke-opacity="0.2"
     stroke-width="4"
     id="path7"
     style="stroke:url(#paint6_linear_1836_4810)" />
  <path
     opacity="0.115942"
     d="m 1592.15,1069.18 168.74,-527.613 c 15.13,-47.306 -21.74,-95.129 -71.34,-92.53 l -391.7,20.528 c -49.6,2.6 -81.27,54.015 -61.28,99.481 l 222.96,507.084 c 26.32,59.86 112.7,55.33 132.62,-6.95 z"
     stroke="url(#paint7_linear_1836_4810)"
     stroke-opacity="0.2"
     stroke-width="4"
     id="path8"
     style="stroke:url(#paint7_linear_1836_4810)" />
  <path
     opacity="0.130435"
     d="m 1552.87,1074.88 194.25,-511.222 c 17.65,-46.463 -16.67,-96.218 -66.37,-96.218 h -388.5 c -49.7,0 -84.02,49.755 -66.37,96.218 l 194.25,511.222 c 23.19,61.05 109.55,61.05 132.74,0 z"
     stroke="url(#paint8_linear_1836_4810)"
     stroke-opacity="0.2"
     stroke-width="4"
     id="path9"
     style="stroke:url(#paint8_linear_1836_4810)" />
  <path
     opacity="0.144928"
     d="m 1513.85,1079.64 218.51,-493.636 c 20.13,-45.485 -11.53,-97.038 -61.21,-99.642 l -384.22,-20.136 c -49.67,-2.603 -86.56,45.358 -71.29,92.698 l 165.72,513.776 c 20.01,62.06 106.1,66.57 132.49,6.94 z"
     stroke="url(#paint9_linear_1836_4810)"
     stroke-opacity="0.2"
     stroke-width="4"
     id="path10"
     style="stroke:url(#paint9_linear_1836_4810)" />
  <path
     opacity="0.15942"
     d="m 1475.14,1083.49 241.47,-474.945 c 22.56,-44.374 -6.36,-97.585 -55.87,-102.789 l -378.91,-39.825 c -49.51,-5.203 -88.86,40.832 -76.02,88.927 l 137.45,514.762 c 16.8,62.92 102.37,71.92 131.88,13.87 z"
     stroke="url(#paint10_linear_1836_4810)"
     stroke-opacity="0.2"
     stroke-width="4"
     id="path11"
     style="stroke:url(#paint10_linear_1836_4810)" />
  <path
     opacity="0.173913"
     d="m 1436.79,1086.44 263.07,-455.218 c 24.93,-43.135 -1.16,-97.858 -50.37,-105.652 L 1276.9,466.557 c -49.21,-7.793 -90.93,36.19 -80.55,84.916 l 109.52,514.227 c 13.55,63.61 98.38,77.05 130.92,20.74 z"
     stroke="url(#paint11_linear_1836_4810)"
     stroke-opacity="0.2"
     stroke-width="4"
     id="path12"
     style="stroke:url(#paint11_linear_1836_4810)" />
  <path
     opacity="0.188406"
     d="m 1398.83,1088.54 283.28,-434.564 c 27.23,-41.768 4.05,-97.855 -44.72,-108.221 l -365.31,-77.65 c -48.77,-10.366 -92.75,31.446 -84.87,80.677 l 82.04,512.208 c 10.27,64.13 94.12,81.95 129.58,27.55 z"
     stroke="url(#paint12_linear_1836_4810)"
     stroke-opacity="0.2"
     stroke-width="4"
     id="path13"
     style="stroke:url(#paint12_linear_1836_4810)" />
  <path
     opacity="0.202899"
     d="m 1361.32,1089.81 302.05,-413.062 c 29.45,-40.279 9.26,-97.574 -38.94,-110.489 l -357.1,-95.687 c -48.2,-12.915 -94.33,26.61 -88.97,76.22 l 55.06,508.748 c 6.97,64.47 89.62,86.62 127.9,34.27 z"
     stroke="url(#paint13_linear_1836_4810)"
     stroke-opacity="0.2"
     stroke-width="4"
     id="path14"
     style="stroke:url(#paint13_linear_1836_4810)" />
  <path
     opacity="0.217391"
     d="m 1324.28,1090.3 319.36,-390.818 c 31.6,-38.671 14.46,-97.019 -33.04,-112.451 L 1262.59,473.954 c -47.5,-15.433 -95.66,21.695 -92.83,71.555 l 28.65,503.891 c 3.68,64.65 84.89,91.04 125.87,40.9 z"
     stroke="url(#paint14_linear_1836_4810)"
     stroke-opacity="0.2"
     stroke-width="4"
     id="path15"
     style="stroke:url(#paint14_linear_1836_4810)" />
  <path
     opacity="0.231884"
     d="m 1287.75,1090.03 335.19,-367.911 c 33.66,-36.949 19.62,-96.187 -27.04,-114.1 L 1257.81,478.24 c -46.67,-17.913 -96.74,16.716 -96.45,66.698 l 2.91,497.692 c 0.38,64.66 79.94,95.2 123.48,47.4 z"
     stroke="url(#paint15_linear_1836_4810)"
     stroke-opacity="0.2"
     stroke-width="4"
     id="path16"
     style="stroke:url(#paint15_linear_1836_4810)" />
  <path
     opacity="0.246377"
     d="m 1251.78,1089.06 349.49,-344.456 c 35.63,-35.116 24.74,-95.082 -20.96,-115.43 L 1252.94,483.42 c -45.7,-20.348 -97.55,11.685 -99.81,61.661 l -22.12,490.209 c -2.91,64.49 74.79,99.08 120.77,53.77 z"
     stroke="url(#paint16_linear_1836_4810)"
     stroke-opacity="0.2"
     stroke-width="4"
     id="path17"
     style="stroke:url(#paint16_linear_1836_4810)" />
  <path
     opacity="0.26087"
     d="m 1216.38,1087.41 362.28,-320.529 c 37.5,-33.178 29.8,-93.706 -14.82,-116.437 L 1247.94,489.48 c -44.62,-22.731 -98.11,6.616 -102.91,56.456 l -46.37,481.494 c -6.18,64.16 69.45,102.69 117.72,59.98 z"
     stroke="url(#paint17_linear_1836_4810)"
     stroke-opacity="0.2"
     stroke-width="4"
     id="path18"
     style="stroke:url(#paint17_linear_1836_4810)" />
  <path
     opacity="0.275362"
     d="m 1181.59,1085.12 373.53,-296.224 c 39.27,-31.14 34.78,-92.061 -8.62,-117.118 L 1242.75,496.405 c -43.4,-25.058 -98.4,1.52 -105.74,51.096 l -69.77,471.599 c -9.42,63.66 63.93,106.01 114.35,66.02 z"
     stroke="url(#paint18_linear_1836_4810)"
     stroke-opacity="0.2"
     stroke-width="4"
     id="path19"
     style="stroke:url(#paint18_linear_1836_4810)" />
  <path
     opacity="0.289855"
     d="m 1147.43,1082.25 383.25,-271.653 c 40.92,-29.006 39.68,-90.15 -2.39,-117.47 L 1237.33,504.173 c -42.07,-27.319 -98.43,-3.585 -108.29,45.598 l -92.28,460.609 c -12.63,63 58.25,109.03 110.67,71.87 z"
     stroke="url(#paint19_linear_1836_4810)"
     stroke-opacity="0.2"
     stroke-width="4"
     id="path20"
     style="stroke:url(#paint19_linear_1836_4810)" />
  <path
     opacity="0.304348"
     d="m 1113.93,1078.83 391.43,-246.894 c 42.47,-26.785 44.48,-87.982 3.86,-117.493 L 1231.63,512.766 c -40.61,-29.511 -98.2,-8.691 -110.55,39.974 l -113.85,448.57 c -15.779,62.18 52.44,111.74 106.7,77.52 z"
     stroke="url(#paint20_linear_1836_4810)"
     stroke-opacity="0.2"
     stroke-width="4"
     id="path21"
     style="stroke:url(#paint20_linear_1836_4810)" />
  <path
     opacity="0.318841"
     d="m 1081.1,1074.91 398.1,-222.049 c 43.89,-24.48 49.15,-85.558 10.09,-117.184 L 1225.62,522.158 c -39.06,-31.626 -97.7,-13.78 -112.52,34.24 L 978.67,991.964 c -18.884,61.186 46.5,114.136 102.43,82.946 z"
     stroke="url(#paint21_linear_1836_4810)"
     stroke-opacity="0.2"
     stroke-width="4"
     id="path22"
     style="stroke:url(#paint21_linear_1836_4810)" />
  <path
     opacity="0.333333"
     d="m 1048.96,1070.53 403.26,-197.203 c 45.19,-22.098 53.7,-82.885 16.31,-116.545 L 1219.25,532.325 c -37.38,-33.66 -96.95,-18.842 -114.2,28.41 L 951.08,982.391 c -21.926,60.049 40.457,116.219 97.88,88.139 z"
     stroke="url(#paint22_linear_1836_4810)"
     stroke-opacity="0.2"
     stroke-width="4"
     id="path23"
     style="stroke:url(#paint22_linear_1836_4810)" />
  <path
     opacity="0.347826"
     d="m 1017.54,1065.73 406.91,-172.44 c 46.36,-19.647 58.11,-79.972 22.5,-115.577 L 1212.48,543.236 c -35.61,-35.605 -95.93,-23.86 -115.58,22.502 L 924.461,972.654 c -24.899,58.756 34.321,117.976 93.079,93.076 z"
     stroke="url(#paint23_linear_1836_4810)"
     stroke-opacity="0.2"
     stroke-width="4"
     id="path24"
     style="stroke:url(#paint23_linear_1836_4810)" />
  <path
     opacity="0.362319"
     d="M 986.827,1060.56 1395.94,912.707 c 47.41,-17.131 62.36,-76.824 28.63,-114.281 l -219.3,-243.563 c -33.73,-37.457 -94.66,-28.824 -116.65,16.529 L 898.81,962.81 c -27.793,57.31 28.112,119.4 88.017,97.75 z"
     stroke="url(#paint24_linear_1836_4810)"
     stroke-opacity="0.2"
     stroke-width="4"
     id="path25"
     style="stroke:url(#paint24_linear_1836_4810)" />
  <path
     opacity="0.376812"
     d="M 956.848,1055.07 1366.72,931.539 c 48.31,-14.56 66.45,-73.45 34.69,-112.662 L 1197.59,567.174 c -31.75,-39.211 -93.13,-33.719 -117.41,10.508 L 874.125,952.917 c -30.603,55.733 21.847,120.503 82.723,102.153 z"
     stroke="url(#paint25_linear_1836_4810)"
     stroke-opacity="0.2"
     stroke-width="4"
     id="path26"
     style="stroke:url(#paint25_linear_1836_4810)" />
  <path
     opacity="0.391304"
     d="m 927.603,1049.3 409.237,-99.552 c 49.08,-11.939 70.35,-69.859 40.66,-110.721 L 1189.4,580.135 c -29.69,-40.862 -91.34,-38.533 -117.86,4.454 L 850.395,943.032 c -33.321,54.009 15.546,121.268 77.208,106.268 z"
     stroke="url(#paint26_linear_1836_4810)"
     stroke-opacity="0.2"
     stroke-width="4"
     id="path27"
     style="stroke:url(#paint26_linear_1836_4810)" />
  <path
     opacity="0.405797"
     d="m 899.098,1043.29 407.232,-75.991 c 49.71,-9.275 74.06,-66.058 46.52,-108.464 L 1180.68,593.711 c -27.54,-42.405 -89.32,-43.252 -118.01,-1.617 L 827.61,933.211 c -35.94,52.155 9.224,121.699 71.488,110.079 z"
     stroke="url(#paint27_linear_1836_4810)"
     stroke-opacity="0.2"
     stroke-width="4"
     id="path28"
     style="stroke:url(#paint27_linear_1836_4810)" />
  <path
     opacity="0.42029"
     d="m 871.332,1037.09 403.908,-52.928 c 50.19,-6.577 77.57,-62.061 52.27,-105.898 L 1171.39,607.865 C 1146.08,564.029 1084.34,560 1053.55,600.177 L 805.752,923.508 c -38.452,50.174 2.902,121.802 65.58,113.582 z"
     stroke="url(#paint28_linear_1836_4810)"
     stroke-opacity="0.2"
     stroke-width="4"
     id="path29"
     style="stroke:url(#paint28_linear_1836_4810)" />
  <path
     opacity="0.434783"
     d="m 844.305,1030.75 399.315,-30.44 c 50.53,-3.855 80.87,-57.88 57.87,-103.031 L 1161.51,622.56 c -23.01,-45.152 -84.55,-52.359 -117.36,-13.745 L 784.806,913.976 c -40.854,48.071 -3.405,121.564 59.499,116.774 z"
     stroke="url(#paint29_linear_1836_4810)"
     stroke-opacity="0.2"
     stroke-width="4"
     id="path30"
     style="stroke:url(#paint29_linear_1836_4810)" />
  <path
     opacity="0.449275"
     d="m 818.013,1024.3 393.497,-8.59 c 50.72,-1.11 83.95,-53.518 63.32,-99.865 l -123.82,-278.09 c -20.63,-46.347 -81.81,-56.722 -116.57,-19.77 l -269.69,286.68 c -43.137,45.855 -9.678,121.005 53.263,119.635 z"
     stroke="url(#paint30_linear_1836_4810)"
     stroke-opacity="0.2"
     stroke-width="4"
     id="path31"
     style="stroke:url(#paint30_linear_1836_4810)" />
  <path
     opacity="0.463768"
     d="m 792.45,1017.78 386.52,12.56 c 50.76,1.65 86.79,-48.988 68.59,-96.407 L 1139.88,653.411 c -18.21,-47.419 -78.86,-60.943 -115.48,-25.748 L 745.559,895.626 c -45.298,43.532 -15.9,120.114 46.891,122.154 z"
     stroke="url(#paint31_linear_1836_4810)"
     stroke-opacity="0.2"
     stroke-width="4"
     id="path32"
     style="stroke:url(#paint31_linear_1836_4810)" />
  <path
     opacity="0.478261"
     d="m 767.607,1011.24 378.433,32.95 c 50.66,4.41 89.39,-44.313 73.68,-92.677 L 1128.08,669.487 C 1112.37,621.123 1052.39,604.477 1014,637.822 L 727.207,886.907 c -47.329,41.107 -22.052,118.903 40.4,124.333 z"
     stroke="url(#paint32_linear_1836_4810)"
     stroke-opacity="0.2"
     stroke-width="4"
     id="path33"
     style="stroke:url(#paint32_linear_1836_4810)" />
  <path
     opacity="0.492754"
     d="m 743.474,1004.72 369.296,52.51 c 50.41,7.16 91.75,-39.49 78.57,-88.672 L 1115.61,685.94 c -13.17,-49.18 -72.31,-68.913 -112.38,-37.502 L 709.666,878.553 c -49.228,38.588 -28.119,117.368 33.808,126.167 z"
     stroke="url(#paint33_linear_1836_4810)"
     stroke-opacity="0.2"
     stroke-width="4"
     id="path34"
     style="stroke:url(#paint33_linear_1836_4810)" />
  <path
     opacity="0.507246"
     d="m 720.037,998.262 359.173,71.188 c 50.01,9.91 93.85,-34.54 83.26,-84.405 l -60.01,-282.316 c -10.6,-49.864 -68.74,-72.641 -110.389,-43.247 L 692.903,870.607 c -50.99,35.984 -34.083,115.521 27.134,127.655 z"
     stroke="url(#paint34_linear_1836_4810)"
     stroke-opacity="0.2"
     stroke-width="4"
     id="path35"
     style="stroke:url(#paint34_linear_1836_4810)" />
  <path
     opacity="0.521739"
     d="m 697.282,991.892 348.148,88.958 c 49.45,12.63 95.68,-29.48 87.7,-79.9 L 1088.6,719.811 c -7.98,-50.415 -64.97,-76.185 -108.099,-48.885 L 676.885,863.11 c -52.61,33.301 -39.928,113.368 20.397,128.782 z"
     stroke="url(#paint35_linear_1836_4810)"
     stroke-opacity="0.2"
     stroke-width="4"
     id="path36"
     style="stroke:url(#paint35_linear_1836_4810)" />
  <path
     opacity="0.536232"
     d="m 675.192,985.651 336.268,105.759 c 48.75,15.33 97.25,-24.32 91.91,-75.15 l -29.34,-279.118 c -5.34,-50.83 -61.02,-79.535 -105.524,-54.399 l -306.93,173.358 c -54.085,30.548 -45.638,110.915 13.616,129.55 z"
     stroke="url(#paint36_linear_1836_4810)"
     stroke-opacity="0.2"
     stroke-width="4"
     id="path37"
     style="stroke:url(#paint36_linear_1836_4810)" />
  <path
     id="path38"
     d="m 991.04688,687.39258 c -11.56192,-0.53752 -23.53288,1.78352 -34.97461,7.50976 L 646.9375,849.61523 c -32.68778,16.35923 -44.60767,51.05582 -36.99414,81.23829 2.87863,5.9932 5.71019,12.01023 8.76953,17.9121 1.70313,3.28556 3.47383,6.53926 5.22852,9.80079 7.43304,8.96118 17.37459,16.33829 29.80664,21.00781 l 323.61523,121.55668 c 47.90692,17.9899 98.54722,-19.0815 95.86722,-70.1914 L 1058.75,754.67969 c -2.01,-38.33096 -33.0174,-65.67457 -67.70312,-67.28711 z" />
  <path
     id="path39"
     d="m 969.80273,701.32812 c -8.81486,0.25024 -17.81383,2.1839 -26.61132,6.04883 l -310.26172,136.3086 c -22.38832,9.83633 -35.88169,28.35572 -40.55469,48.67773 4.44122,10.35364 9.01727,20.65085 13.82617,30.84961 4.17066,8.51721 8.14728,17.13316 12.51172,25.55273 4.28215,8.26086 8.76721,16.42719 13.38086,24.52344 0.28455,0.12915 0.54846,0.278 0.83594,0.4043 L 943.19141,1110 c 46.91995,20.62 99.55859,-13.7501 99.55859,-65 V 772.38086 c 0,-41.63977 -34.7495,-72.13708 -72.94727,-71.05274 z" />
  <path
     id="path40"
     d="m 956.76562,715.42383 c -8.82651,-0.19515 -17.92175,1.28569 -26.91406,4.71094 L 619.51172,838.3457 c -16.77228,6.38863 -28.98236,17.70499 -36.55664,31.20313 7.32219,18.06597 14.92503,36.01669 23.24609,53.66406 4.17066,8.51721 8.14728,17.13316 12.51172,25.55273 5.41515,10.44657 11.10359,20.76893 17.05273,30.94336 l 273.23047,138.33012 c 45.78696,23.1799 100.28461,-8.379 102.97461,-59.6289 l 14.0586,-268.21098 c 2.1775,-41.6414 -31.01543,-73.92975 -69.26368,-74.77539 z M 574.87891,917.20117 c 2.10668,12.18638 7.34786,23.89734 15.82031,33.72266 -2.63936,-5.40958 -5.30505,-10.80591 -7.95703,-16.20899 -2.73463,-5.78984 -5.25179,-11.67171 -7.86328,-17.51367 z" />
  <path
     id="path41"
     d="m 934.27344,729.71289 c -6.0082,0.33351 -12.12023,1.44935 -18.23047,3.43359 L 606.64258,833.61914 c -12.44382,4.04084 -22.594,10.82865 -30.38672,19.28125 9.29525,23.7218 19.07074,47.24963 29.94531,70.3125 4.17066,8.51721 8.14728,17.13316 12.51172,25.55273 7.48031,14.43053 15.47163,28.62944 23.98438,42.50977 L 874.83008,1125.25 c 44.51395,25.69 100.72957,-2.9601 106.10156,-54.0801 l 27.64846,-263.07224 c 4.6987,-44.72383 -32.24931,-80.71936 -74.30666,-78.38477 z m -374.2168,152.8457 c -7.72863,28.99655 2.54034,62.48969 33.02344,80.08203 l 4.95703,2.86133 c -0.73684,-1.39705 -1.50652,-2.7785 -2.23438,-4.17968 -4.55437,-8.76755 -8.70732,-17.73831 -13.06054,-26.60743 -8.1035,-17.15697 -15.52217,-34.60429 -22.68555,-52.15625 z" />
  <path
     id="path42"
     d="m 920.16602,743.86328 c -6.02515,0.0315 -12.19368,0.84199 -18.4043,2.52149 L 594.27539,829.5332 c -8.65737,2.34097 -16.28316,6.04766 -22.88672,10.72461 10.74564,28.00491 22.01063,55.80477 34.8125,82.95508 4.17066,8.51721 8.14728,17.13316 12.51172,25.55273 10.94521,21.1148 22.97953,41.73479 36.18359,61.56058 l 185.84766,121.3047 c 43.10196,28.1299 100.8826,2.4783 108.93359,-48.3516 l 40.74415,-257.25 c 7.04549,-44.48233 -28.07985,-82.38629 -70.25586,-82.16602 z M 551.69141,861.78711 c -17.8524,30.51941 -12.15514,73.24478 22.31054,95.74023 l 30.39063,19.83594 c -2.92852,-5.31474 -5.7954,-10.66151 -8.58985,-16.04101 -4.55437,-8.76755 -8.70732,-17.73831 -13.06054,-26.60743 -11.29418,-23.91236 -21.41987,-48.32046 -31.05078,-72.92773 z" />
  <path
     id="path43"
     d="m 905.53711,758.2168 c -6.02717,-0.27114 -12.23696,0.22948 -18.5332,1.59961 l -304.63868,66.29101 c -5.19718,1.13104 -10.04296,2.77823 -14.57031,4.81446 11.80704,31.17039 24.18118,62.12236 38.40625,92.29101 4.17066,8.51721 8.14728,17.13316 12.51172,25.55273 17.10466,32.9972 36.83258,64.80898 59.66406,94.17578 l 128.41211,94.2481 c 41.55596,30.4999 100.742,7.9514 111.45899,-42.4786 l 53.30078,-250.75778 c 9.37736,-44.11833 -23.82152,-83.83834 -66.01172,-85.73632 z m -359.72656,88.30859 c -27.30886,28.99434 -27.23473,79.13097 9.64257,106.19727 l 60.14454,44.14257 c -6.92989,-11.66832 -13.54882,-23.51875 -19.79493,-35.54296 -4.55437,-8.76755 -8.70732,-17.73831 -13.06054,-26.60743 -13.62434,-28.84586 -25.55451,-58.40925 -36.93164,-88.18945 z" />
  <path
     id="path44"
     d="m 881.20508,772.46484 c -3.10676,0.10801 -6.25627,0.41883 -9.43946,0.94727 l -300.89453,49.95117 c -1.88685,0.31325 -3.73322,0.69253 -5.54101,1.13281 12.53678,33.34761 25.66688,66.47161 40.87109,98.7168 4.17066,8.51721 8.14728,17.13316 12.51172,25.55273 20.71342,39.959 45.19789,78.23818 74.49023,112.45898 13.64048,14.8737 17.67782,19.929 32.41211,33.4668 24.1814,22.2177 51.63193,40.3727 79.47266,57.6191 3.25458,1.9535 6.56458,3.8166 9.82813,5.7559 31.51688,1.3185 62.63656,-18.4924 71.76953,-52.5762 l 65.28906,-243.66012 c 12.52686,-46.75214 -24.16809,-90.9853 -70.76953,-89.36524 z m -339.74219,62.7793 C 505.44274,860.54652 499.11831,916.76975 537.4082,948.25 l 99.07422,81.457 c -14.928,-21.9464 -28.46073,-44.86234 -40.67969,-68.38473 -4.55437,-8.76755 -8.70732,-17.73831 -13.06054,-26.60743 -15.3468,-32.4927 -28.62143,-65.86459 -41.2793,-99.4707 z" />
  <path
     id="path45"
     d="m 865.53711,786.66797 c -3.11282,-0.0471 -6.27968,0.10826 -9.49023,0.47851 l -292.07813,33.68164 c 12.95251,34.58463 26.4716,68.9591 42.23242,102.38477 4.17066,8.51721 8.14728,17.13316 12.51172,25.55273 20.71342,39.959 45.19789,78.23818 74.49023,112.45898 13.64048,14.8737 17.67782,19.929 32.41211,33.4668 24.1814,22.2177 51.63193,40.3727 79.47266,57.6191 3.57899,2.1482 7.21875,4.1972 10.80859,6.3282 17.65366,-7.664 32.42672,-22.3931 39.13477,-43.0391 l 76.67383,-235.98046 c 14.9803,-46.10527 -19.4757,-92.24505 -66.16797,-92.95117 z m -327.10352,40.43945 c -44.15888,19.73458 -57.64424,81.14274 -18.5957,117.02344 l 219.63086,201.80864 c 10.12668,9.3059 21.9202,14.8928 34.06445,17.3046 -22.788,-14.7017 -44.92598,-30.4236 -64.96875,-48.7578 -15.77473,-14.43 -20.02663,-19.7462 -34.60156,-35.5859 -30.74134,-35.7556 -56.44141,-75.7679 -78.16016,-117.57813 -4.55437,-8.76755 -8.70732,-17.73831 -13.06054,-26.60743 -16.58371,-35.11151 -30.72854,-71.25627 -44.3086,-107.60742 z" />
  <path
     id="path46"
     d="m 844.65039,800.82812 c -1.58668,4.2e-4 -3.18761,0.0527 -4.80273,0.15821 l -276.54297,18.05664 c 13.1553,35.18658 26.86469,70.16957 42.89648,104.16992 4.17066,8.51721 8.14728,17.13316 12.51172,25.55273 20.71342,39.959 45.19789,78.23818 74.49023,112.45898 13.64048,14.8737 17.67782,19.929 32.41211,33.4668 24.08704,22.131 51.41943,40.2278 79.14844,57.4141 7.85961,-7.1324 14.368,-16.1335 18.56055,-27.0547 l 87.43359,-227.7715 c 17.98095,-46.84289 -16.92017,-96.464 -66.10742,-96.45118 z m -308.1543,21.0586 c -51.68027,12.36791 -73.06897,78.19088 -33.7832,118.49805 l 203.48242,208.77543 c 20.27372,20.8003 48.80502,25.8819 73.23242,17.8164 -24.85703,-15.7779 -49.10121,-32.5834 -70.86328,-52.4903 -15.77473,-14.43 -20.02663,-19.7462 -34.60156,-35.5859 -30.74134,-35.7556 -56.44141,-75.7679 -78.16016,-117.57813 -4.55437,-8.76755 -8.70732,-17.73831 -13.06054,-26.60743 -17.37702,-36.79114 -32.07107,-74.71849 -46.2461,-112.82812 z" />
  <path
     id="path47"
     d="m 823.17188,814.9043 -259.89258,4.06836 c 13.16327,35.2102 26.87944,70.21733 42.92187,104.24023 4.17066,8.51721 8.14728,17.13316 12.51172,25.55273 20.71342,39.959 45.19789,78.23818 74.49023,112.45898 13.64048,14.8737 17.67782,19.929 32.41211,33.4668 19.12681,17.5736 40.32059,32.5702 62.11329,46.6211 1.40704,-2.381 2.71751,-4.8595 3.88086,-7.4727 L 889.14453,914.77539 C 910.24651,867.38044 875.04582,814.0933 823.17188,814.9043 Z m -287.56055,4.60351 c -58.58838,3.06293 -88.7142,72.69628 -49.60547,117.52149 l 187.24023,214.6113 c 25.95222,29.7514 68.67881,31.2958 96.94336,9.4844 -21.61333,-14.0875 -42.55777,-29.1969 -61.625,-46.6387 -15.77473,-14.43 -20.02663,-19.7462 -34.60156,-35.5859 -30.74134,-35.7556 -56.44141,-75.7679 -78.16016,-117.57813 -4.55437,-8.76755 -8.70732,-17.73831 -13.06054,-26.60743 -17.7386,-37.55669 -32.68335,-76.29663 -47.13086,-115.20703 z" />
  <path
     id="path48"
     d="m 528.08203,819.4707 c -60.20294,-2.03699 -95.43145,67.10243 -58.39648,114.60938 l 170.97656,219.33012 c 29.83744,38.2785 87.36444,35.4791 114.06055,-2.7715 -16.09438,-11.1183 -31.69593,-22.923 -46.15821,-36.1524 -15.77473,-14.43 -20.02663,-19.7462 -34.60156,-35.5859 -30.74134,-35.7556 -56.44141,-75.7679 -78.16016,-117.57813 -4.55437,-8.76755 -8.70732,-17.73831 -13.06054,-26.60743 -17.70506,-37.48567 -32.62664,-76.15019 -47.04883,-114.98632 z m 35.83203,1.21289 c 12.96896,34.63348 26.50431,69.05701 42.28711,102.5293 4.17066,8.51721 8.14728,17.13316 12.51172,25.55273 20.71342,39.959 45.19789,78.23818 74.49023,112.45898 13.64048,14.8737 17.67782,19.929 32.41211,33.4668 13.06567,12.0046 27.12422,22.7685 41.64454,32.8984 l 99.625,-195.52339 c 23.59397,-46.30496 -8.92238,-101.43636 -60.86133,-103.19336 z" />
  <path
     id="path49"
     d="m 512.40234,820.04883 c -56.62971,-0.56535 -91.84967,63.72228 -58.68164,111.50195 L 608.48633,1154.5 c 29.68797,42.76 93.78252,40.0997 119.8125,-4.9902 l 7.35351,-12.7364 c -9.30721,-7.0741 -18.4398,-14.3762 -27.08789,-22.2871 -15.77473,-14.43 -20.02663,-19.7462 -34.60156,-35.5859 -30.74134,-35.7556 -56.44141,-75.7679 -78.16016,-117.57813 -4.55437,-8.76755 -8.70732,-17.73831 -13.06054,-26.60743 -17.38177,-36.8012 -32.07922,-74.73921 -46.25781,-112.85937 l -18.53711,-1.54688 c -1.86975,-0.15593 -3.71816,-0.24152 -5.54493,-0.25976 z m 52.83789,4.20312 c 12.5644,33.42988 25.71972,66.63725 40.96094,98.96094 4.17066,8.51721 8.14728,17.13316 12.51172,25.55273 20.71342,39.959 45.19789,78.23818 74.49023,112.45898 13.64048,14.8737 17.67782,19.929 32.41211,33.4668 7.42377,6.8209 15.22886,13.1623 23.18555,19.3086 L 843.99414,949.11914 C 870.02411,904.03319 840.2872,847.19223 788.40625,842.86523 Z" />
  <path
     id="path50"
     d="m 497.03906,821.22266 c -40.30259,0.57309 -70.08164,34.76621 -69.59961,72.05273 26.90391,51.58581 56.47401,101.74664 86.91407,151.32421 19.81116,31.9324 39.92168,63.6997 62.04882,94.0938 13.21822,18.1564 16.54956,22.0261 30.38282,39.5429 1.54176,1.9311 3.15331,3.7973 4.72656,5.6992 29.68239,11.4227 65.85603,2.3611 85.27148,-27.5351 l 21.60547,-33.2695 c -3.32347,-2.8208 -6.60203,-5.6971 -9.82422,-8.6446 -15.77473,-14.43 -20.02663,-19.7462 -34.60156,-35.5859 -30.74134,-35.7556 -56.44141,-75.7679 -78.16016,-117.57813 -4.55437,-8.76755 -8.70732,-17.73831 -13.06054,-26.60743 -16.76982,-35.50556 -31.04435,-72.06815 -44.76367,-108.83203 l -30.03516,-4.0039 c -3.70706,-0.49419 -7.34696,-0.70684 -10.9043,-0.65625 z m 70.32422,8.57617 c 11.93454,31.55108 24.44165,62.8824 38.83789,93.41406 4.17066,8.51721 8.14728,17.13316 12.51172,25.55273 20.71342,39.959 45.19789,78.23818 74.49023,112.45898 13.64048,14.8737 17.67782,19.929 32.41211,33.4668 2.34293,2.1527 4.7409,4.2352 7.14258,6.3145 l 87.73633,-135.10551 c 28.40594,-43.74092 1.53384,-102.15589 -50.16406,-109.04687 z" />
  <path
     id="path51"
     d="m 487.20117,822.98828 c -33.5439,-1.18771 -60.99773,21.27429 -70.01953,50.36328 29.53998,58.64412 62.82371,115.30535 97.17188,171.24804 19.81116,31.9324 39.92168,63.6997 62.04882,94.0938 13.21822,18.1564 16.54956,22.0261 30.38282,39.5429 3.51397,4.4012 7.12025,8.7171 10.79296,12.9707 18.18575,-2.4326 35.65222,-11.76 47.82813,-28.5175 l 38.32617,-52.75 c -11.7057,-11.0062 -16.95329,-17.1107 -29.76953,-31.0391 -30.74134,-35.7556 -56.44141,-75.7679 -78.16016,-117.57813 -4.55437,-8.76755 -8.70732,-17.73831 -13.06054,-26.60743 -15.85061,-33.55938 -29.48467,-68.05862 -42.51758,-102.7832 l -42.20117,-7.75586 c -3.66544,-0.67356 -7.27799,-1.062 -10.82227,-1.1875 z m 83.11133,14.47266 c 11.06403,28.95313 22.66045,57.69745 35.88867,85.75195 4.17066,8.51721 8.14728,17.13316 12.51172,25.55273 20.71342,39.959 45.19789,78.23818 74.49023,112.45898 11.30673,12.3289 16.33397,18.1505 26.00586,27.4102 l 77.20118,-106.25785 c 30.71294,-42.2729 6.78347,-102.12047 -44.60743,-111.56445 z m -69.69727,234.27346 44.9043,83.0058 c 8.05871,14.8968 20.28833,25.3342 34.14844,31.3047 -8.39688,-10.597 -13.85876,-17.5032 -24.57813,-32.2383 -19.3289,-26.5697 -37.05824,-54.2251 -54.47461,-82.0722 z" />
  <path
     id="path52"
     d="m 472.18945,825.23242 c -26.32309,-0.29936 -49.05588,14.17985 -61.45117,35.0293 31.11539,63.30976 66.72371,124.25283 103.61524,184.33788 19.81116,31.9324 39.92168,63.6997 62.04882,94.0938 13.21822,18.1564 16.54956,22.0261 30.38282,39.5429 2.1018,2.6325 4.28353,5.1908 6.44336,7.7696 7.74884,-4.2656 14.8967,-10.1137 20.97851,-17.625 l 57.16602,-70.5918 c -5.04691,-5.2875 -9.85962,-10.683 -17.41016,-18.8887 -30.74134,-35.7556 -56.44141,-75.7679 -78.16016,-117.57813 -4.55437,-8.76755 -8.70732,-17.73831 -13.06054,-26.60743 -14.59331,-30.8974 -27.28121,-62.60248 -39.37891,-94.53515 l -55.21875,-12.98047 c -5.42248,-1.27462 -10.75851,-1.9077 -15.95508,-1.9668 z m 101.95508,22.18164 c 9.92743,25.57946 20.34575,50.96228 32.05664,75.79883 4.17066,8.51721 8.14728,17.13316 12.51172,25.55273 20.71342,39.959 45.19789,78.23818 74.49023,112.45898 6.36814,6.9439 10.50042,11.5657 14.74805,16.0918 l 63.81445,-78.80273 C 804.71156,957.82875 783.79493,896.69576 732.83203,884.7168 Z m -173.31836,51.25196 c 0.33083,9.20014 2.47311,18.63367 6.84375,27.91015 l 107.13281,227.38473 c 13.67783,29.0316 43.07098,43.0949 71.36524,40.3243 -14.06215,-17.8175 -17.57735,-21.9201 -31.07813,-40.4786 -22.45548,-30.8675 -42.89216,-63.1116 -63.00195,-95.5371 -32.06844,-52.236 -63.15977,-105.12333 -91.26172,-159.60348 z" />
  <path
     id="path53"
     d="m 457.33984,828.07031 c -20.15318,0.24692 -38.29767,9.23913 -51.04492,23.16407 32.13338,66.56244 69.41308,130.42345 108.0586,193.36522 19.81116,31.9324 39.92168,63.6997 62.04882,94.0938 11.65052,16.003 16.47488,21.9778 26.72461,34.9101 0.0296,-0.033 0.0622,-0.061 0.0918,-0.094 l 78.03906,-86.6778 c -2.40897,-2.6415 -4.14022,-4.5032 -7.29492,-7.9316 -30.74134,-35.7556 -56.44141,-75.7679 -78.16016,-117.57813 -4.55437,-8.76755 -8.70732,-17.73831 -13.06054,-26.60743 -12.96651,-27.45308 -24.3847,-55.56183 -35.27149,-83.88086 l -69.21289,-19.89453 c -7.11161,-2.04411 -14.12896,-2.95232 -20.91797,-2.86914 z m 121.6543,31.82422 c 8.47863,21.35127 17.40113,42.52193 27.20703,63.31836 4.17066,8.51721 8.14728,17.13316 12.51172,25.55273 20.71342,39.959 45.19789,78.23818 74.49023,112.45898 2.42021,2.639 3.67651,3.9922 5.60547,6.1152 l 47.77344,-53.0605 c 35.09894,-38.97692 17.26446,-101.24926 -33.14844,-115.74024 z m -188.37695,18.65235 c -4.50622,14.60133 -4.3754,30.99325 2.21289,47.26953 l 91.8125,226.82419 c 16.21315,40.051 62.34994,54.6969 97.73242,36.8379 -10.39544,-13.1246 -15.40705,-19.344 -27.28516,-35.6719 -22.45548,-30.8675 -42.89216,-63.1116 -63.00195,-95.5371 -36.00222,-58.64374 -70.79584,-118.09571 -101.4707,-179.72262 z" />
  <path
     id="path54"
     d="m 442.60547,831.49414 c -14.52548,0.51007 -28.02085,5.62788 -39.14844,13.84375 0.4998,1.04919 0.9882,2.10535 1.48828,3.1543 32.43114,67.55633 70.22989,132.29788 109.40821,196.10741 19.81116,31.9324 39.92168,63.6997 62.04882,94.0938 6.70074,9.2041 10.8985,14.783 15.17383,20.2832 l 81.33789,-81.3379 c -30.26927,-35.4381 -55.64452,-74.9912 -77.11133,-116.31643 -4.55437,-8.76755 -8.70732,-17.73831 -13.06054,-26.60743 -10.93425,-23.15032 -20.78449,-46.76102 -30.14258,-70.57031 l -84.2793,-28.75781 c -8.72044,-2.97578 -17.38105,-4.18523 -25.71484,-3.89258 z m -58.09375,34.64258 c -10.16189,16.77572 -13.65514,37.8655 -6.31641,59.37305 l 38.80664,113.72853 c 8.88043,6.8261 10.24573,14.9666 6.83203,20.0215 l 31.23829,91.5507 c 16.97294,49.74 80.23448,64.4393 117.40039,27.2696 l 0.50781,-0.5078 c -5.13102,-6.5495 -10.03181,-12.9628 -17.89063,-23.7657 -22.45548,-30.8675 -42.89216,-63.1116 -63.00195,-95.5371 C 453.67487,995.69883 416.63115,932.2114 384.51172,866.13672 Z m 200.80859,9.17187 c 6.61706,16.11169 13.44577,32.13591 20.88086,47.9043 4.17066,8.51721 8.14728,17.13316 12.51172,25.55273 20.2915,39.14505 44.23211,76.65318 72.73633,110.33788 l 29.44336,-29.4433 c 37.16588,-37.16403 22.4675,-100.42454 -27.27735,-117.39848 z" />
  <path
     id="path55"
     d="m 432.88867,835.38672 c -10.95347,-0.16362 -21.45845,2.32256 -30.91211,6.81445 0.99617,2.0931 1.97134,4.19892 2.96875,6.29102 32.43114,67.55633 70.22989,132.29788 109.40821,196.10741 19.81116,31.9324 39.92168,63.6997 62.04882,94.0938 2.45967,3.3786 3.66203,4.8781 5.56836,7.4472 l 84.58594,-76.1621 c -27.46888,-33.4498 -50.81566,-70.27365 -70.75391,-108.65623 -4.55437,-8.76755 -8.70732,-17.73831 -13.06054,-26.60743 -8.4095,-17.80483 -16.09626,-35.91622 -23.50196,-54.14257 L 458.29102,840.52539 c -8.5314,-3.38437 -17.09084,-5.01452 -25.40235,-5.13867 z m -52.40039,22.49805 c -16.04894,16.96309 -24.05843,41.6669 -16.75,67.77539 l 26.82617,95.83594 c 8.05117,5.4112 16.10688,10.8161 24.24024,16.1035 21.42508,13.9283 7.76055,35.4196 -13.48047,22.332 l 24.79492,88.5782 c 14.19797,50.7197 76.73803,68.8608 115.87891,33.6211 l 20.47851,-18.4395 c -2.38038,-3.1868 -4.12844,-5.4059 -7.38672,-9.8848 -22.45548,-30.8675 -42.89216,-63.1116 -63.00195,-95.5371 -39.65679,-64.59662 -77.90337,-130.14455 -110.72656,-198.53512 -0.29321,-0.61513 -0.57993,-1.23441 -0.87305,-1.84961 z m 212.625,36.125 c 4.22052,9.79416 8.53566,19.54872 13.08789,29.20312 4.17066,8.51721 8.14728,17.13316 12.51172,25.55273 18.97617,36.60761 41.16613,71.76568 67.26953,103.72458 l 8.74024,-7.8711 c 39.14188,-35.2397 27.62972,-99.33974 -21.32813,-118.76168 z" />
  <path
     id="path56"
     d="m 418.16016,839.83789 c -5.57512,0.0376 -11.03248,0.78694 -16.30469,2.10352 1.03715,2.17937 2.05134,4.37248 3.08984,6.55078 32.43114,67.55633 70.22989,132.29788 109.40821,196.10741 19.08489,30.7618 38.49024,61.3415 59.66601,90.7168 l 87.80859,-71.1055 c -25.44139,-31.8925 -47.23246,-66.71086 -66.02539,-102.88863 -4.55437,-8.76755 -8.70732,-17.73831 -13.06054,-26.60743 -5.33245,-11.29001 -10.39916,-22.69291 -15.29297,-34.16796 L 448.12695,846.34375 c -9.98697,-4.53656 -20.14172,-6.5721 -29.96679,-6.50586 z m -40.03125,13.04297 c -22.00274,15.44522 -35.41581,42.93504 -28.70313,73.38867 l 17.51758,79.47457 c 0.23774,0.1614 0.47516,0.3231 0.71289,0.4844 15.79845,10.3343 31.32105,21.0818 47.14844,31.3711 21.685,14.0973 7.43885,36.0077 -14.24219,21.9043 -8.55619,-5.5658 -17.03123,-11.2529 -25.50391,-16.9453 l 22.75196,103.2207 c 11.36097,51.5497 72.99674,73.1204 114.01562,39.9004 l 41.84571,-33.8848 c -21.88853,-30.2613 -41.90656,-61.797 -61.58399,-93.5254 -39.65679,-64.59662 -77.90337,-130.14455 -110.72656,-198.53512 -1.08629,-2.27895 -2.14756,-4.57339 -3.23242,-6.85352 z m 225.22265,63.97461 c 0.97384,2.10905 1.85858,4.25564 2.84961,6.35742 4.17066,8.51721 8.14728,17.13316 12.51172,25.55273 17.68969,34.12581 38.15976,67.00338 61.99609,97.19728 25.8395,-34.953 14.37847,-87.43556 -27.92578,-106.65235 z" />
  <path
     id="path57"
     d="m 403.41406,844.83594 c -0.0624,0.002 -0.12313,0.0137 -0.18554,0.0156 0.57674,1.21087 1.13966,2.43008 1.71679,3.64063 32.43114,67.55633 70.22989,132.29788 109.40821,196.10743 17.1754,27.684 34.6599,55.1875 53.40429,81.8359 l 73.30469,-53.2558 c 6.23819,-4.5333 11.42994,-9.8075 15.6543,-15.5606 -23.24463,-30.0854 -43.40192,-62.58469 -60.91407,-96.29685 -4.55437,-8.76755 -8.70732,-17.73831 -13.06054,-26.60743 -1.49185,-3.15858 -2.83497,-6.3801 -4.28907,-9.55468 L 437.78516,852.82031 c -11.33275,-5.82813 -23.06003,-8.29262 -34.3711,-7.98437 z m -26.25,5.99609 c -27.86592,12.19978 -47.56327,41.78456 -41.93164,76.49805 l 10.36719,63.90039 c 7.35373,4.9967 14.69958,10.00513 22.05664,14.99803 15.79845,10.3343 31.32105,21.0818 47.14844,31.3711 21.685,14.0973 7.43885,36.0077 -14.24219,21.9043 -15.96874,-10.3876 -31.64186,-21.2232 -47.58008,-31.6582 -0.54084,-0.3672 -1.08018,-0.7365 -1.62109,-1.1035 l 18.80859,115.9375 c 8.47097,52.2197 69.02053,77.1603 111.81641,46.0703 l 64.63476,-46.957 c -19.14466,-27.1952 -37.00548,-55.2614 -54.5332,-83.5235 -39.65679,-64.59662 -77.90337,-130.14455 -110.72656,-198.53512 -1.41094,-2.96004 -2.78886,-5.94028 -4.19727,-8.90235 z m 239.65039,94.05664 c 0.64638,1.28547 1.23624,2.59949 1.89844,3.87695 14.67534,28.31071 31.29119,55.74318 50.12109,81.52148 6.07539,-29.5425 -6.76142,-62.12339 -37.0332,-77.6914 z" />
  <path
     id="path58"
     d="m 377.61719,851.79688 c -33.50634,6.97385 -60.58988,37.98254 -56.48828,77.04687 l 5.16406,49.17969 c 1.06532,0.7554 2.13968,1.49775 3.20312,2.25586 12.68415,8.7038 25.43154,17.31091 38.16016,25.9492 15.79845,10.3343 31.32105,21.0818 47.14844,31.3711 21.685,14.0973 7.43885,36.0077 -14.24219,21.9043 -15.96874,-10.3876 -31.64186,-21.2232 -47.58008,-31.6582 -7.70795,-5.233 -15.40474,-10.4819 -23.10937,-15.7187 l 13.3457,127.123 c 5.53597,52.7197 64.81537,81.0006 109.28125,52.1309 l 88.54102,-57.502 C 523.9847,1109.167 507.91453,1083.7888 492.08789,1058.2695 452.4311,993.67288 414.18452,928.12495 381.36133,859.73438 c -1.25813,-2.63946 -2.48798,-5.29646 -3.74414,-7.9375 z m 29.00586,0.10546 c 32.06004,66.32086 69.21468,129.96679 107.73047,192.69726 15.71394,25.3283 31.66377,50.5214 48.61132,75.0391 l 50.67188,-32.9082 c 17.14144,-11.1293 27.3884,-27.7302 30.91601,-45.4434 -18.18669,-25.401 -34.36456,-52.27182 -48.75,-79.96483 -0.97615,-1.87919 -1.85362,-3.80828 -2.79882,-5.70313 L 427.23438,859.9375 c -6.72468,-3.88137 -13.65874,-6.50993 -20.61133,-8.03516 z" />
  <path
     id="path59"
     d="m 378.46875,856.24023 c -38.23337,-0.15792 -73.46839,31.30213 -71.37891,74.56055 l 1.68555,34.89453 c 6.92088,4.84134 13.84283,9.68084 20.7207,14.58399 12.68416,8.70381 25.43153,17.31089 38.16016,25.9492 15.79847,10.3343 31.32104,21.0818 47.14844,31.3711 21.68502,14.0973 7.43887,36.0077 -14.24219,21.9043 -15.96876,-10.3876 -31.64185,-21.2232 -47.58008,-31.6582 -12.89267,-8.753 -25.80928,-17.4677 -38.6543,-26.291 -1.3135,-0.9364 -2.64069,-1.85283 -3.95703,-2.78517 l 6.60352,136.74997 c 2.563,53.08 60.39505,84.6403 106.41797,58.0703 l 113.5957,-65.5859 c -15.55975,-22.8519 -30.32774,-46.2371 -44.90039,-69.7344 -39.65683,-64.59672 -77.90334,-130.14448 -110.72656,-198.53512 -0.54609,-1.14565 -1.07924,-2.29938 -1.625,-3.44532 -0.42199,-0.009 -0.84627,-0.0471 -1.26758,-0.0488 z m 35.07031,9.71289 c 30.44462,61.27407 65.02868,120.36234 100.81446,178.64648 14.70073,23.6952 29.57462,47.2947 45.30664,70.3145 l 26.19726,-15.125 c 46.02392,-26.58 47.61175,-92.4294 2.92383,-121.19535 L 416.42969,867.67188 c -0.95474,-0.61447 -1.9249,-1.15647 -2.89063,-1.71876 z" />
  <path
     id="path60"
     d="m 363.39062,862.66406 c -36.28536,0.49088 -69.96471,29.22046 -70.30468,70.53125 l -0.17578,21.32227 c 12.1788,8.61073 24.44019,17.10318 36.58593,25.76172 12.68416,8.70381 25.43153,17.31089 38.16016,25.9492 15.79847,10.3343 31.32104,21.0818 47.14844,31.3711 21.68502,14.0973 7.43887,36.0077 -14.24219,21.9043 -15.96876,-10.3876 -31.64185,-21.2232 -47.58008,-31.6582 -12.89267,-8.753 -25.80928,-17.4677 -38.6543,-26.291 -7.19623,-5.13018 -14.43869,-10.19234 -21.67968,-15.25782 l -1.19532,145.26362 c -0.43798,53.27 55.76651,88.0295 103.23243,63.8497 l 139.76172,-71.2129 C 519.82939,1102.5504 505.85632,1080.47 492.08789,1058.2695 453.57084,995.52935 416.42745,931.86937 384.24805,865.60156 377.34279,863.5265 370.32,862.57032 363.39062,862.66406 Z m 62.82618,28.24024 c 27.23078,52.41938 57.23138,103.35992 88.13672,153.6953 14.13818,22.7884 28.46208,45.4712 43.52929,67.6524 47.34548,-24.2433 52.21523,-90.0505 8.90039,-120.97856 z" />
  <path
     id="path61"
     d="m 348.15234,869.54883 c -34.40501,1.02716 -66.50808,27.22886 -69.05664,66.47265 l -0.54101,8.31641 c 2.6798,1.90691 5.35715,3.81722 8.03515,5.72656 14.23448,10.16828 28.66189,20.06024 42.90625,30.21485 12.68416,8.70381 25.43153,17.31089 38.16016,25.9492 15.79847,10.3343 31.32104,21.0818 47.14844,31.3711 21.68502,14.0973 7.43887,36.0077 -14.24219,21.9043 -15.96876,-10.3876 -31.64185,-21.2232 -47.58008,-31.6582 -12.89267,-8.753 -25.80928,-17.4677 -38.6543,-26.291 -12.53656,-8.93727 -25.19882,-17.69295 -37.76171,-26.59181 l -9.89844,152.44731 c -3.461,53.2898 50.94061,91.1789 99.72851,69.4589 l 162.97461,-72.5586 c 1.33152,-0.5927 2.6197,-1.2318 3.89063,-1.8886 -14.18309,-21.0817 -27.78052,-42.5567 -41.17383,-64.1524 -34.81285,-56.7064 -68.53457,-114.14761 -98.45898,-173.59958 -13.96027,-10.90595 -29.94984,-15.58464 -45.47657,-15.12109 z m 96.31836,55.23047 c 22.20228,40.55811 45.6892,80.4163 69.88282,119.8203 12.88218,20.764 25.9531,41.4168 39.56054,61.709 25.49547,-29.0428 23.99826,-76.1996 -9.43164,-102.5879 z" />
  <path
     id="path62"
     d="m 337.39062,876.80859 c -33.06394,-0.6976 -65.15692,21.9354 -71.65429,58.39258 6.95074,4.95521 13.90312,9.90783 20.85351,14.86328 14.23448,10.16828 28.66189,20.06024 42.90625,30.21485 12.68416,8.70381 25.43153,17.31089 38.16016,25.9492 15.79847,10.3343 31.32104,21.0818 47.14844,31.3711 21.68502,14.0973 7.43887,36.0077 -14.24219,21.9043 -15.96876,-10.3876 -31.64185,-21.2232 -47.58008,-31.6582 -12.89267,-8.753 -25.80928,-17.4677 -38.6543,-26.291 -14.24479,-10.15506 -28.67268,-20.04615 -42.90624,-30.21681 -3.1412,-2.23976 -6.28234,-4.48008 -9.42579,-6.7168 L 242.625,1123.1191 c -6.49498,53.15 45.93402,94.0904 95.91992,74.9004 l 162.18946,-62.2597 c 11.52445,-4.4244 20.97756,-11.3302 28.25195,-19.7383 -12.63836,-19.0283 -24.85761,-38.3371 -36.89844,-57.752 -27.7224,-45.1568 -54.63239,-90.84555 -79.60547,-137.57809 l -30.30078,-26.3711 c -13.41748,-11.67685 -29.20887,-17.18296 -44.79102,-17.51172 z m 133.29297,94.53516 c 14.25759,24.59597 28.79645,49.03145 43.66993,73.25585 9.47853,15.2778 19.05184,30.5004 28.85546,45.5703 7.64344,-25.2818 1.34189,-54.5376 -21.30859,-74.25 z" />
  <path
     id="path63"
     d="m 321.71289,884.46289 c -27.74574,-0.17419 -54.81931,15.92428 -66.24023,43.41211 10.35275,7.42401 20.74423,14.7938 31.11718,22.18945 14.23448,10.16828 28.66189,20.06024 42.90625,30.21485 12.68416,8.70381 25.43153,17.31089 38.16016,25.9492 15.79847,10.3343 31.32104,21.0818 47.14844,31.3711 21.68502,14.0973 7.43887,36.0077 -14.24219,21.9043 -15.96876,-10.3876 -31.64185,-21.2232 -47.58008,-31.6582 -12.89267,-8.753 -25.80928,-17.4677 -38.6543,-26.291 -14.24479,-10.15506 -28.67268,-20.04615 -42.90624,-30.21681 -7.52735,-5.3672 -15.05975,-10.72848 -22.58594,-16.09766 l -29.50391,163.49997 c -9.53298,52.83 40.7556,96.7189 91.8125,80.1289 l 160.73633,-52.2187 c 23.93002,-7.7756 39.9155,-26.202 46.1543,-47.4102 -8.76581,-13.5815 -17.42745,-27.2331 -25.94727,-40.9707 -17.44642,-28.4183 -34.51737,-57.0798 -51.07617,-86.02731 l -70.96484,-67.98242 c -14.05557,-13.4657 -31.31924,-19.69006 -48.33399,-19.79688 z" />
  <path
     id="path64"
     d="m 305.79883,892.49609 c -22.42504,0.16495 -44.37728,10.90157 -57.81055,29.98243 12.82254,9.25752 25.72425,18.40474 38.60156,27.58593 14.23449,10.16829 28.66187,20.06023 42.90625,30.21485 12.68417,8.70382 25.43152,17.31087 38.16016,25.9492 15.79849,10.3343 31.32103,21.0818 47.14844,31.3711 21.68504,14.0973 7.43889,36.0077 -14.24219,21.9043 -15.96878,-10.3876 -31.64184,-21.2232 -47.58008,-31.6582 -12.89268,-8.753 -25.80927,-17.4677 -38.6543,-26.291 -14.24481,-10.15506 -28.67266,-20.04614 -42.90624,-30.21681 -11.47167,-8.17962 -22.96279,-16.3339 -34.40235,-24.55859 -0.0158,0.065 -0.0371,0.12627 -0.0527,0.1914 l -40.17188,167.3496 c -12.56499,52.35 35.41807,99.0902 87.41602,85.1602 l 158.63672,-42.5098 c 51.99794,-13.93 70.18091,-78.4012 33.12695,-117.4512 L 357.50977,914.67188 c -14.53836,-15.32099 -33.27544,-22.31139 -51.71094,-22.17579 z" />
  <path
     id="path65"
     d="m 289.625,900.88281 c -16.9178,0.3367 -33.5628,6.645 -46.4082,18.15625 14.38551,10.44212 28.8993,20.70598 43.37304,31.02539 14.23449,10.16829 28.66187,20.06023 42.90625,30.21485 12.68417,8.70382 25.43152,17.31087 38.16016,25.9492 15.79849,10.3343 31.32103,21.0818 47.14844,31.3711 21.68504,14.0973 7.43889,36.0077 -14.24219,21.9043 -15.96878,-10.3876 -31.64184,-21.2232 -47.58008,-31.6582 -12.89268,-8.753 -25.80927,-17.4677 -38.6543,-26.291 -14.24481,-10.15506 -28.67266,-20.04614 -42.90624,-30.21681 -14.68516,-10.47092 -29.41262,-20.88549 -44.00586,-31.48437 -1.80979,3.62863 -3.38412,7.46279 -4.61719,11.55273 l -47.78906,158.51365 c -15.58299,51.68 29.93333,101.1695 82.73828,89.9395 l 155.92187,-33.1387 c 52.80495,-11.22 74.26187,-74.9404 39.00391,-115.8203 L 344.54297,925.5293 C 329.68155,908.29863 309.46975,900.48786 289.625,900.88281 Z" />
  <path
     id="path66"
     d="m 273.17578,909.58984 c -10.93636,0.34463 -21.74437,3.19307 -31.47656,8.34766 14.88164,10.82275 29.90792,21.44467 44.89062,32.12695 14.23449,10.16829 28.66187,20.06023 42.90625,30.21485 12.68417,8.70382 25.43152,17.31087 38.16016,25.9492 12.49309,8.1721 24.84413,16.5565 37.2793,24.8145 l -73.8125,-94.24808 c -15.02199,-19.18173 -36.70529,-27.87445 -57.94727,-27.20508 z m -52.46875,25.34375 c -5.04595,6.06823 -9.21005,13.17431 -12.16992,21.27735 l -54.5625,149.36916 c -18.57798,50.8499 24.32093,102.9504 77.79687,94.4804 l 152.60938,-24.1699 c 53.47695,-8.47 78.17498,-71.2704 44.79102,-113.9004 l -4.11329,-5.2539 c -2.3162,7.1728 -12.20096,10.7655 -24.49609,2.7676 -15.96878,-10.3876 -31.64184,-21.2232 -47.58008,-31.6582 -12.89268,-8.753 -25.80927,-17.4677 -38.6543,-26.291 -14.24481,-10.15506 -28.67266,-20.04614 -42.90624,-30.21681 -16.94316,-12.08094 -33.93081,-24.10243 -50.71485,-36.4043 z" />
  <path
     id="path67"
     d="m 260.96289,918.53516 c -5.47062,-0.11121 -10.93681,0.43365 -16.29101,1.55273 13.90993,10.07942 27.93105,20.00425 41.91796,29.97656 14.23449,10.16829 28.66187,20.06023 42.90625,30.21485 6.64614,4.56055 13.3251,9.07182 19.99414,13.59765 l -32.2539,-45.44336 c -14.01749,-19.74916 -35.12458,-29.46854 -56.27344,-29.89843 z m -43.8125,13.78515 c -9.61664,7.06742 -17.68487,16.7738 -22.98828,29.04883 l -60.47852,139.98046 c -21.53897,49.85 18.58967,104.4495 72.59961,98.7695 l 148.73633,-15.6289 c 54.00995,-5.68 81.91053,-67.4209 50.47656,-111.7109 l -13.42773,-18.918 c -13.04723,-8.6431 -25.99177,-17.4427 -39.08594,-26.0156 -12.89268,-8.753 -25.80927,-17.4677 -38.6543,-26.291 -14.24481,-10.15506 -28.67266,-20.04614 -42.90624,-30.21681 -18.14101,-12.93504 -36.33524,-25.7985 -54.27149,-39.01758 z" />
  <path
     id="path68"
     d="m 257.20508,929.12109 c 9.77892,7.00362 19.59101,13.96066 29.38476,20.94336 5.83408,4.16753 11.70904,8.27689 17.58204,12.38867 l -1.3086,-2.04101 c -11.16595,-17.40815 -27.86007,-27.75944 -45.6582,-31.29102 z m -39.81446,3.37696 c -15.53608,5.95469 -29.24144,17.47003 -37.73242,34.36914 l -65.52734,130.42191 c -24.459276,48.6799 12.7533,105.6312 67.15625,102.7812 L 325.61914,1192.5 c 54.40395,-2.85 85.45985,-63.3805 56.04688,-109.2305 l -40.86329,-63.707 c -8.83424,-5.9885 -17.67681,-11.9646 -26.47461,-18.0078 -14.24481,-10.15506 -28.67266,-20.04614 -42.90624,-30.21681 -18.05991,-12.87721 -36.17279,-25.68319 -54.03126,-38.83984 z" />
  <path
     id="path69"
     d="m 223.88672,937.26953 c -23.02718,0.83129 -45.70911,12.61569 -58.875,35.41992 L 95.296875,1093.4395 c -27.327873,47.3299 6.832335,106.5 61.488285,106.5 h 139.42968 c 54.65595,0 88.81626,-59.1701 61.48828,-106.5 L 298.03125,990.08594 c -8.88789,-6.22299 -17.78091,-12.43963 -26.60937,-18.74805 -15.87233,-11.31741 -31.78718,-22.57813 -47.53516,-34.06836 z" />
  <defs
     id="defs206">
    <linearGradient
       id="paint0_linear_1836_4810"
       x1="1884.92"
       y1="1198.21"
       x2="1406.8"
       y2="124.352"
       gradientUnits="userSpaceOnUse">
      <stop
         stop-color="#FF1CF7"
         id="stop69" />
      <stop
         offset="1"
         stop-color="#00B0FF"
         stop-opacity="0.1"
         id="stop70" />
    </linearGradient>
    <linearGradient
       id="paint1_linear_1836_4810"
       x1="1834.72"
       y1="1210.9"
       x2="1417.1801"
       y2="123.169"
       gradientUnits="userSpaceOnUse">
      <stop
         stop-color="#FF1CF7"
         id="stop71" />
      <stop
         offset="1"
         stop-color="#00B0FF"
         stop-opacity="0.1"
         id="stop72" />
    </linearGradient>
    <linearGradient
       id="paint2_linear_1836_4810"
       x1="1784.47"
       y1="1221.95"
       x2="1427.63"
       y2="123.732"
       gradientUnits="userSpaceOnUse">
      <stop
         stop-color="#FF1CF7"
         id="stop73" />
      <stop
         offset="1"
         stop-color="#00B0FF"
         stop-opacity="0.1"
         id="stop74" />
    </linearGradient>
    <linearGradient
       id="paint3_linear_1836_4810"
       x1="1734.24"
       y1="1231.4"
       x2="1438.0601"
       y2="126.029"
       gradientUnits="userSpaceOnUse">
      <stop
         stop-color="#FF1CF7"
         id="stop75" />
      <stop
         offset="1"
         stop-color="#00B0FF"
         stop-opacity="0.1"
         id="stop76" />
    </linearGradient>
    <linearGradient
       id="paint4_linear_1836_4810"
       x1="1684.12"
       y1="1239.25"
       x2="1448.35"
       y2="130.03999"
       gradientUnits="userSpaceOnUse">
      <stop
         stop-color="#FF1CF7"
         id="stop77" />
      <stop
         offset="1"
         stop-color="#00B0FF"
         stop-opacity="0.1"
         id="stop78" />
    </linearGradient>
    <linearGradient
       id="paint5_linear_1836_4810"
       x1="1634.21"
       y1="1245.52"
       x2="1458.4399"
       y2="135.744"
       gradientUnits="userSpaceOnUse">
      <stop
         stop-color="#FF1CF7"
         id="stop79" />
      <stop
         offset="1"
         stop-color="#00B0FF"
         stop-opacity="0.1"
         id="stop80" />
    </linearGradient>
    <linearGradient
       id="paint6_linear_1836_4810"
       x1="1584.58"
       y1="1250.25"
       x2="1468.21"
       y2="143.112"
       gradientUnits="userSpaceOnUse">
      <stop
         stop-color="#FF1CF7"
         id="stop81" />
      <stop
         offset="1"
         stop-color="#00B0FF"
         stop-opacity="0.1"
         id="stop82" />
    </linearGradient>
    <linearGradient
       id="paint7_linear_1836_4810"
       x1="1535.3199"
       y1="1253.46"
       x2="1477.6"
       y2="152.11"
       gradientUnits="userSpaceOnUse">
      <stop
         stop-color="#FF1CF7"
         id="stop83" />
      <stop
         offset="1"
         stop-color="#00B0FF"
         stop-opacity="0.1"
         id="stop84" />
    </linearGradient>
    <linearGradient
       id="paint8_linear_1836_4810"
       x1="1486.5"
       y1="1255.1899"
       x2="1486.5"
       y2="162.702"
       gradientUnits="userSpaceOnUse">
      <stop
         stop-color="#FF1CF7"
         id="stop85" />
      <stop
         offset="1"
         stop-color="#00B0FF"
         stop-opacity="0.1"
         id="stop86" />
    </linearGradient>
    <linearGradient
       id="paint9_linear_1836_4810"
       x1="1438.21"
       y1="1255.48"
       x2="1494.84"
       y2="174.84599"
       gradientUnits="userSpaceOnUse">
      <stop
         stop-color="#FF1CF7"
         id="stop87" />
      <stop
         offset="1"
         stop-color="#00B0FF"
         stop-opacity="0.1"
         id="stop88" />
    </linearGradient>
    <linearGradient
       id="paint10_linear_1836_4810"
       x1="1390.51"
       y1="1254.36"
       x2="1502.54"
       y2="188.494"
       gradientUnits="userSpaceOnUse">
      <stop
         stop-color="#FF1CF7"
         id="stop89" />
      <stop
         offset="1"
         stop-color="#00B0FF"
         stop-opacity="0.1"
         id="stop90" />
    </linearGradient>
    <linearGradient
       id="paint11_linear_1836_4810"
       x1="1343.48"
       y1="1251.89"
       x2="1509.52"
       y2="203.597"
       gradientUnits="userSpaceOnUse">
      <stop
         stop-color="#FF1CF7"
         id="stop91" />
      <stop
         offset="1"
         stop-color="#00B0FF"
         stop-opacity="0.1"
         id="stop92" />
    </linearGradient>
    <linearGradient
       id="paint12_linear_1836_4810"
       x1="1297.1899"
       y1="1248.12"
       x2="1515.71"
       y2="220.101"
       gradientUnits="userSpaceOnUse">
      <stop
         stop-color="#FF1CF7"
         id="stop93" />
      <stop
         offset="1"
         stop-color="#00B0FF"
         stop-opacity="0.1"
         id="stop94" />
    </linearGradient>
    <linearGradient
       id="paint13_linear_1836_4810"
       x1="1251.7"
       y1="1243.1"
       x2="1521.03"
       y2="237.94701"
       gradientUnits="userSpaceOnUse">
      <stop
         stop-color="#FF1CF7"
         id="stop95" />
      <stop
         offset="1"
         stop-color="#00B0FF"
         stop-opacity="0.1"
         id="stop96" />
    </linearGradient>
    <linearGradient
       id="paint14_linear_1836_4810"
       x1="1207.0699"
       y1="1236.89"
       x2="1525.4301"
       y2="257.07501"
       gradientUnits="userSpaceOnUse">
      <stop
         stop-color="#FF1CF7"
         id="stop97" />
      <stop
         offset="1"
         stop-color="#00B0FF"
         stop-opacity="0.1"
         id="stop98" />
    </linearGradient>
    <linearGradient
       id="paint15_linear_1836_4810"
       x1="1163.36"
       y1="1229.54"
       x2="1528.85"
       y2="277.42099"
       gradientUnits="userSpaceOnUse">
      <stop
         stop-color="#FF1CF7"
         id="stop99" />
      <stop
         offset="1"
         stop-color="#00B0FF"
         stop-opacity="0.1"
         id="stop100" />
    </linearGradient>
    <linearGradient
       id="paint16_linear_1836_4810"
       x1="1120.62"
       y1="1221.13"
       x2="1531.22"
       y2="298.91699"
       gradientUnits="userSpaceOnUse">
      <stop
         stop-color="#FF1CF7"
         id="stop101" />
      <stop
         offset="1"
         stop-color="#00B0FF"
         stop-opacity="0.1"
         id="stop102" />
    </linearGradient>
    <linearGradient
       id="paint17_linear_1836_4810"
       x1="1078.9"
       y1="1211.71"
       x2="1532.49"
       y2="321.49399"
       gradientUnits="userSpaceOnUse">
      <stop
         stop-color="#FF1CF7"
         id="stop103" />
      <stop
         offset="1"
         stop-color="#00B0FF"
         stop-opacity="0.1"
         id="stop104" />
    </linearGradient>
    <linearGradient
       id="paint18_linear_1836_4810"
       x1="1038.25"
       y1="1201.35"
       x2="1532.62"
       y2="345.07901"
       gradientUnits="userSpaceOnUse">
      <stop
         stop-color="#FF1CF7"
         id="stop105" />
      <stop
         offset="1"
         stop-color="#00B0FF"
         stop-opacity="0.1"
         id="stop106" />
    </linearGradient>
    <linearGradient
       id="paint19_linear_1836_4810"
       x1="998.70203"
       y1="1190.12"
       x2="1531.5601"
       y2="369.599"
       gradientUnits="userSpaceOnUse">
      <stop
         stop-color="#FF1CF7"
         id="stop107" />
      <stop
         offset="1"
         stop-color="#00B0FF"
         stop-opacity="0.1"
         id="stop108" />
    </linearGradient>
    <linearGradient
       id="paint20_linear_1836_4810"
       x1="960.29901"
       y1="1178.1"
       x2="1529.27"
       y2="394.978"
       gradientUnits="userSpaceOnUse">
      <stop
         stop-color="#FF1CF7"
         id="stop109" />
      <stop
         offset="1"
         stop-color="#00B0FF"
         stop-opacity="0.1"
         id="stop110" />
    </linearGradient>
    <linearGradient
       id="paint21_linear_1836_4810"
       x1="923.06799"
       y1="1165.34"
       x2="1525.71"
       y2="421.138"
       gradientUnits="userSpaceOnUse">
      <stop
         stop-color="#FF1CF7"
         id="stop111" />
      <stop
         offset="1"
         stop-color="#00B0FF"
         stop-opacity="0.1"
         id="stop112" />
    </linearGradient>
    <linearGradient
       id="paint22_linear_1836_4810"
       x1="887.04199"
       y1="1151.9399"
       x2="1520.87"
       y2="448.00101"
       gradientUnits="userSpaceOnUse">
      <stop
         stop-color="#FF1CF7"
         id="stop113" />
      <stop
         offset="1"
         stop-color="#00B0FF"
         stop-opacity="0.1"
         id="stop114" />
    </linearGradient>
    <linearGradient
       id="paint23_linear_1836_4810"
       x1="852.242"
       y1="1137.95"
       x2="1514.7"
       y2="475.487"
       gradientUnits="userSpaceOnUse">
      <stop
         stop-color="#FF1CF7"
         id="stop115" />
      <stop
         offset="1"
         stop-color="#00B0FF"
         stop-opacity="0.1"
         id="stop116" />
    </linearGradient>
    <linearGradient
       id="paint24_linear_1836_4810"
       x1="818.68597"
       y1="1123.46"
       x2="1507.2"
       y2="503.51501"
       gradientUnits="userSpaceOnUse">
      <stop
         stop-color="#FF1CF7"
         id="stop117" />
      <stop
         offset="1"
         stop-color="#00B0FF"
         stop-opacity="0.1"
         id="stop118" />
    </linearGradient>
    <linearGradient
       id="paint25_linear_1836_4810"
       x1="786.39001"
       y1="1108.53"
       x2="1498.34"
       y2="532.00598"
       gradientUnits="userSpaceOnUse">
      <stop
         stop-color="#FF1CF7"
         id="stop119" />
      <stop
         offset="1"
         stop-color="#00B0FF"
         stop-opacity="0.1"
         id="stop120" />
    </linearGradient>
    <linearGradient
       id="paint26_linear_1836_4810"
       x1="755.36401"
       y1="1093.26"
       x2="1488.12"
       y2="560.87903"
       gradientUnits="userSpaceOnUse">
      <stop
         stop-color="#FF1CF7"
         id="stop121" />
      <stop
         offset="1"
         stop-color="#00B0FF"
         stop-opacity="0.1"
         id="stop122" />
    </linearGradient>
    <linearGradient
       id="paint27_linear_1836_4810"
       x1="725.61401"
       y1="1077.7"
       x2="1476.53"
       y2="590.052"
       gradientUnits="userSpaceOnUse">
      <stop
         stop-color="#FF1CF7"
         id="stop123" />
      <stop
         offset="1"
         stop-color="#00B0FF"
         stop-opacity="0.1"
         id="stop124" />
    </linearGradient>
    <linearGradient
       id="paint28_linear_1836_4810"
       x1="697.14001"
       y1="1061.9399"
       x2="1463.5601"
       y2="619.44598"
       gradientUnits="userSpaceOnUse">
      <stop
         stop-color="#FF1CF7"
         id="stop125" />
      <stop
         offset="1"
         stop-color="#00B0FF"
         stop-opacity="0.1"
         id="stop126" />
    </linearGradient>
    <linearGradient
       id="paint29_linear_1836_4810"
       x1="669.94098"
       y1="1046.05"
       x2="1449.23"
       y2="648.98102"
       gradientUnits="userSpaceOnUse">
      <stop
         stop-color="#FF1CF7"
         id="stop127" />
      <stop
         offset="1"
         stop-color="#00B0FF"
         stop-opacity="0.1"
         id="stop128" />
    </linearGradient>
    <linearGradient
       id="paint30_linear_1836_4810"
       x1="644.00897"
       y1="1030.1"
       x2="1433.53"
       y2="678.57898"
       gradientUnits="userSpaceOnUse">
      <stop
         stop-color="#FF1CF7"
         id="stop129" />
      <stop
         offset="1"
         stop-color="#00B0FF"
         stop-opacity="0.1"
         id="stop130" />
    </linearGradient>
    <linearGradient
       id="paint31_linear_1836_4810"
       x1="619.33197"
       y1="1014.16"
       x2="1416.48"
       y2="708.16101"
       gradientUnits="userSpaceOnUse">
      <stop
         stop-color="#FF1CF7"
         id="stop131" />
      <stop
         offset="1"
         stop-color="#00B0FF"
         stop-opacity="0.1"
         id="stop132" />
    </linearGradient>
    <linearGradient
       id="paint32_linear_1836_4810"
       x1="595.89502"
       y1="998.30499"
       x2="1398.1"
       y2="737.65302"
       gradientUnits="userSpaceOnUse">
      <stop
         stop-color="#FF1CF7"
         id="stop133" />
      <stop
         offset="1"
         stop-color="#00B0FF"
         stop-opacity="0.1"
         id="stop134" />
    </linearGradient>
    <linearGradient
       id="paint33_linear_1836_4810"
       x1="573.68103"
       y1="982.60602"
       x2="1378.41"
       y2="766.97998"
       gradientUnits="userSpaceOnUse">
      <stop
         stop-color="#FF1CF7"
         id="stop135" />
      <stop
         offset="1"
         stop-color="#00B0FF"
         stop-opacity="0.1"
         id="stop136" />
    </linearGradient>
    <linearGradient
       id="paint34_linear_1836_4810"
       x1="552.66498"
       y1="967.12701"
       x2="1357.42"
       y2="796.07001"
       gradientUnits="userSpaceOnUse">
      <stop
         stop-color="#FF1CF7"
         id="stop137" />
      <stop
         offset="1"
         stop-color="#00B0FF"
         stop-opacity="0.1"
         id="stop138" />
    </linearGradient>
    <linearGradient
       id="paint35_linear_1836_4810"
       x1="532.82001"
       y1="951.93402"
       x2="1335.1801"
       y2="824.85199"
       gradientUnits="userSpaceOnUse">
      <stop
         stop-color="#FF1CF7"
         id="stop139" />
      <stop
         offset="1"
         stop-color="#00B0FF"
         stop-opacity="0.1"
         id="stop140" />
    </linearGradient>
    <linearGradient
       id="paint36_linear_1836_4810"
       x1="514.117"
       y1="937.09003"
       x2="1311.71"
       y2="853.26001"
       gradientUnits="userSpaceOnUse">
      <stop
         stop-color="#FF1CF7"
         id="stop141" />
      <stop
         offset="1"
         stop-color="#00B0FF"
         stop-opacity="0.1"
         id="stop142" />
    </linearGradient>
  </defs>
</svg>
