<?xml version="1.0" encoding="utf-8" ?>
<svg baseProfile="full" height="1010" version="1.1" width="4000" xmlns="http://www.w3.org/2000/svg" xmlns:ev="http://www.w3.org/2001/xml-events" xmlns:xlink="http://www.w3.org/1999/xlink"><defs><linearGradient id="grad_0" x1="500" x2="0" y1="0" y2="500"><stop offset="0%" stop-color="#ab02de" /><stop offset="100%" stop-color="rgb(0,0,255)" /></linearGradient><linearGradient id="grad_1" x1="493" x2="-7" y1="10" y2="510"><stop offset="0%" stop-color="#ab02de" /><stop offset="100%" stop-color="rgb(0,0,255)" /></linearGradient><linearGradient id="grad_2" x1="486" x2="-14" y1="20" y2="520"><stop offset="0%" stop-color="#ab02de" /><stop offset="100%" stop-color="rgb(0,0,255)" /></linearGradient><linearGradient id="grad_3" x1="479" x2="-21" y1="30" y2="530"><stop offset="0%" stop-color="#ab02de" /><stop offset="100%" stop-color="rgb(0,0,255)" /></linearGradient><linearGradient id="grad_4" x1="472" x2="-28" y1="40" y2="540"><stop offset="0%" stop-color="#ab02de" /><stop offset="100%" stop-color="rgb(0,0,255)" /></linearGradient><linearGradient id="grad_5" x1="465" x2="-35" y1="50" y2="550"><stop offset="0%" stop-color="#ab02de" /><stop offset="100%" stop-color="rgb(0,0,255)" /></linearGradient><linearGradient id="grad_6" x1="458" x2="-42" y1="60" y2="560"><stop offset="0%" stop-color="#ab02de" /><stop offset="100%" stop-color="rgb(0,0,255)" /></linearGradient><linearGradient id="grad_7" x1="451" x2="-49" y1="70" y2="570"><stop offset="0%" stop-color="#ab02de" /><stop offset="100%" stop-color="rgb(0,0,255)" /></linearGradient><linearGradient id="grad_8" x1="444" x2="-56" y1="80" y2="580"><stop offset="0%" stop-color="#ab02de" /><stop offset="100%" stop-color="rgb(0,0,255)" /></linearGradient><linearGradient id="grad_9" x1="437" x2="-63" y1="90" y2="590"><stop offset="0%" stop-color="#ab02de" /><stop offset="100%" stop-color="rgb(0,0,255)" /></linearGradient><linearGradient id="grad_10" x1="430" x2="-70" y1="100" y2="600"><stop offset="0%" stop-color="#ab02de" /><stop offset="100%" stop-color="rgb(0,0,255)" /></linearGradient><linearGradient id="grad_11" x1="423" x2="-77" y1="110" y2="610"><stop offset="0%" stop-color="#ab02de" /><stop offset="100%" stop-color="rgb(0,0,255)" /></linearGradient><linearGradient id="grad_12" x1="416" x2="-84" y1="120" y2="620"><stop offset="0%" stop-color="#ab02de" /><stop offset="100%" stop-color="rgb(0,0,255)" /></linearGradient><linearGradient id="grad_13" x1="409" x2="-91" y1="130" y2="630"><stop offset="0%" stop-color="#ab02de" /><stop offset="100%" stop-color="rgb(0,0,255)" /></linearGradient><linearGradient id="grad_14" x1="402" x2="-98" y1="140" y2="640"><stop offset="0%" stop-color="#ab02de" /><stop offset="100%" stop-color="rgb(0,0,255)" /></linearGradient><linearGradient id="grad_15" x1="395" x2="-105" y1="150" y2="650"><stop offset="0%" stop-color="#ab02de" /><stop offset="100%" stop-color="rgb(0,0,255)" /></linearGradient><linearGradient id="grad_16" x1="388" x2="-112" y1="160" y2="660"><stop offset="0%" stop-color="#ab02de" /><stop offset="100%" stop-color="rgb(0,0,255)" /></linearGradient><linearGradient id="grad_17" x1="381" x2="-119" y1="170" y2="670"><stop offset="0%" stop-color="#ab02de" /><stop offset="100%" stop-color="rgb(0,0,255)" /></linearGradient><linearGradient id="grad_18" x1="374" x2="-126" y1="180" y2="680"><stop offset="0%" stop-color="#ab02de" /><stop offset="100%" stop-color="rgb(0,0,255)" /></linearGradient><linearGradient id="grad_19" x1="367" x2="-133" y1="190" y2="690"><stop offset="0%" stop-color="#ab02de" /><stop offset="100%" stop-color="rgb(0,0,255)" /></linearGradient><linearGradient id="grad_20" x1="360" x2="-140" y1="200" y2="700"><stop offset="0%" stop-color="#ab02de" /><stop offset="100%" stop-color="rgb(0,0,255)" /></linearGradient><linearGradient id="grad_21" x1="353" x2="-147" y1="210" y2="710"><stop offset="0%" stop-color="#ab02de" /><stop offset="100%" stop-color="rgb(0,0,255)" /></linearGradient><linearGradient id="grad_22" x1="346" x2="-154" y1="220" y2="720"><stop offset="0%" stop-color="#ab02de" /><stop offset="100%" stop-color="rgb(0,0,255)" /></linearGradient><linearGradient id="grad_23" x1="339" x2="-161" y1="230" y2="730"><stop offset="0%" stop-color="#ab02de" /><stop offset="100%" stop-color="rgb(0,0,255)" /></linearGradient><linearGradient id="grad_24" x1="332" x2="-168" y1="240" y2="740"><stop offset="0%" stop-color="#ab02de" /><stop offset="100%" stop-color="rgb(0,0,255)" /></linearGradient><linearGradient id="grad_25" x1="325" x2="-175" y1="250" y2="750"><stop offset="0%" stop-color="#ab02de" /><stop offset="100%" stop-color="rgb(0,0,255)" /></linearGradient><linearGradient id="grad_26" x1="318" x2="-182" y1="260" y2="760"><stop offset="0%" stop-color="#ab02de" /><stop offset="100%" stop-color="rgb(0,0,255)" /></linearGradient><linearGradient id="grad_27" x1="311" x2="-189" y1="270" y2="770"><stop offset="0%" stop-color="#ab02de" /><stop offset="100%" stop-color="rgb(0,0,255)" /></linearGradient><linearGradient id="grad_28" x1="304" x2="-196" y1="280" y2="780"><stop offset="0%" stop-color="#ab02de" /><stop offset="100%" stop-color="rgb(0,0,255)" /></linearGradient><linearGradient id="grad_29" x1="297" x2="-203" y1="290" y2="790"><stop offset="0%" stop-color="#ab02de" /><stop offset="100%" stop-color="rgb(0,0,255)" /></linearGradient><linearGradient id="grad_30" x1="290" x2="-210" y1="300" y2="800"><stop offset="0%" stop-color="#ab02de" /><stop offset="100%" stop-color="rgb(0,0,255)" /></linearGradient><linearGradient id="grad_31" x1="283" x2="-217" y1="310" y2="810"><stop offset="0%" stop-color="#ab02de" /><stop offset="100%" stop-color="rgb(0,0,255)" /></linearGradient><linearGradient id="grad_32" x1="276" x2="-224" y1="320" y2="820"><stop offset="0%" stop-color="#ab02de" /><stop offset="100%" stop-color="rgb(0,0,255)" /></linearGradient><linearGradient id="grad_33" x1="269" x2="-231" y1="330" y2="830"><stop offset="0%" stop-color="#ab02de" /><stop offset="100%" stop-color="rgb(0,0,255)" /></linearGradient><linearGradient id="grad_34" x1="262" x2="-238" y1="340" y2="840"><stop offset="0%" stop-color="#ab02de" /><stop offset="100%" stop-color="rgb(0,0,255)" /></linearGradient><linearGradient id="grad_35" x1="255" x2="-245" y1="350" y2="850"><stop offset="0%" stop-color="#ab02de" /><stop offset="100%" stop-color="rgb(0,0,255)" /></linearGradient><linearGradient id="grad_36" x1="248" x2="-252" y1="360" y2="860"><stop offset="0%" stop-color="#ab02de" /><stop offset="100%" stop-color="rgb(0,0,255)" /></linearGradient><linearGradient id="grad_37" x1="241" x2="-259" y1="370" y2="870"><stop offset="0%" stop-color="#ab02de" /><stop offset="100%" stop-color="rgb(0,0,255)" /></linearGradient><linearGradient id="grad_38" x1="234" x2="-266" y1="380" y2="880"><stop offset="0%" stop-color="#ab02de" /><stop offset="100%" stop-color="rgb(0,0,255)" /></linearGradient><linearGradient id="grad_39" x1="227" x2="-273" y1="390" y2="890"><stop offset="0%" stop-color="#ab02de" /><stop offset="100%" stop-color="rgb(0,0,255)" /></linearGradient><linearGradient id="grad_40" x1="220" x2="-280" y1="400" y2="900"><stop offset="0%" stop-color="#ab02de" /><stop offset="100%" stop-color="rgb(0,0,255)" /></linearGradient><linearGradient id="grad_41" x1="213" x2="-287" y1="410" y2="910"><stop offset="0%" stop-color="#ab02de" /><stop offset="100%" stop-color="rgb(0,0,255)" /></linearGradient><linearGradient id="grad_42" x1="206" x2="-294" y1="420" y2="920"><stop offset="0%" stop-color="#ab02de" /><stop offset="100%" stop-color="rgb(0,0,255)" /></linearGradient><linearGradient id="grad_43" x1="199" x2="-301" y1="430" y2="930"><stop offset="0%" stop-color="#ab02de" /><stop offset="100%" stop-color="rgb(0,0,255)" /></linearGradient><linearGradient id="grad_44" x1="192" x2="-308" y1="440" y2="940"><stop offset="0%" stop-color="#ab02de" /><stop offset="100%" stop-color="rgb(0,0,255)" /></linearGradient><linearGradient id="grad_45" x1="185" x2="-315" y1="450" y2="950"><stop offset="0%" stop-color="#ab02de" /><stop offset="100%" stop-color="rgb(0,0,255)" /></linearGradient><linearGradient id="grad_46" x1="178" x2="-322" y1="460" y2="960"><stop offset="0%" stop-color="#ab02de" /><stop offset="100%" stop-color="rgb(0,0,255)" /></linearGradient><linearGradient id="grad_47" x1="171" x2="-329" y1="470" y2="970"><stop offset="0%" stop-color="#ab02de" /><stop offset="100%" stop-color="rgb(0,0,255)" /></linearGradient><linearGradient id="grad_48" x1="164" x2="-336" y1="480" y2="980"><stop offset="0%" stop-color="#ab02de" /><stop offset="100%" stop-color="rgb(0,0,255)" /></linearGradient><linearGradient id="grad_49" x1="157" x2="-343" y1="490" y2="990"><stop offset="0%" stop-color="#ab02de" /><stop offset="100%" stop-color="rgb(0,0,255)" /></linearGradient></defs><polygon fill="none" opacity="0.04" points="250.0,50.0 50.0,450.0 450.0,450.0" stroke="url(#grad_0)" stroke-width="5" transform="rotate(0,250.0,316.6666666666667) scale(1.0,1.0)" /><polygon fill="none" opacity="0.08" points="320.0,60.0 120.0,460.0 520.0,460.0" stroke="url(#grad_1)" stroke-width="5" transform="rotate(-1,320.0,326.6666666666667) scale(1.02,1.02)" /><polygon fill="none" opacity="0.12" points="390.0,70.0 190.0,470.0 590.0,470.0" stroke="url(#grad_2)" stroke-width="5" transform="rotate(-2,390.0,336.6666666666667) scale(1.04,1.04)" /><polygon fill="none" opacity="0.16" points="460.0,80.0 260.0,480.0 660.0,480.0" stroke="url(#grad_3)" stroke-width="5" transform="rotate(-3,460.0,346.6666666666667) scale(1.06,1.06)" /><polygon fill="none" opacity="0.2" points="530.0,90.0 330.0,490.0 730.0,490.0" stroke="url(#grad_4)" stroke-width="5" transform="rotate(-4,530.0,356.6666666666667) scale(1.08,1.08)" /><polygon fill="none" opacity="0.24" points="600.0,100.0 400.0,500.0 800.0,500.0" stroke="url(#grad_5)" stroke-width="5" transform="rotate(-5,600.0,366.6666666666667) scale(1.1,1.1)" /><polygon fill="none" opacity="0.28" points="670.0,110.0 470.0,510.0 870.0,510.0" stroke="url(#grad_6)" stroke-width="5" transform="rotate(-6,670.0,376.6666666666667) scale(1.12,1.12)" /><polygon fill="none" opacity="0.32" points="740.0,120.0 540.0,520.0 940.0,520.0" stroke="url(#grad_7)" stroke-width="5" transform="rotate(-7,740.0,386.6666666666667) scale(1.1400000000000001,1.1400000000000001)" /><polygon fill="none" opacity="0.36" points="810.0,130.0 610.0,530.0 1010.0,530.0" stroke="url(#grad_8)" stroke-width="5" transform="rotate(-8,810.0,396.6666666666667) scale(1.16,1.16)" /><polygon fill="none" opacity="0.4" points="880.0,140.0 680.0,540.0 1080.0,540.0" stroke="url(#grad_9)" stroke-width="5" transform="rotate(-9,880.0,406.6666666666667) scale(1.18,1.18)" /><polygon fill="none" opacity="0.44" points="950.0,150.0 750.0,550.0 1150.0,550.0" stroke="url(#grad_10)" stroke-width="5" transform="rotate(-10,950.0,416.6666666666667) scale(1.2,1.2)" /><polygon fill="none" opacity="0.48" points="1020.0,160.0 820.0,560.0 1220.0,560.0" stroke="url(#grad_11)" stroke-width="5" transform="rotate(-11,1020.0,426.6666666666667) scale(1.22,1.22)" /><polygon fill="none" opacity="0.52" points="1090.0,170.0 890.0,570.0 1290.0,570.0" stroke="url(#grad_12)" stroke-width="5" transform="rotate(-12,1090.0,436.6666666666667) scale(1.24,1.24)" /><polygon fill="none" opacity="0.56" points="1160.0,180.0 960.0,580.0 1360.0,580.0" stroke="url(#grad_13)" stroke-width="5" transform="rotate(-13,1160.0,446.6666666666667) scale(1.26,1.26)" /><polygon fill="none" opacity="0.6" points="1230.0,190.0 1030.0,590.0 1430.0,590.0" stroke="url(#grad_14)" stroke-width="5" transform="rotate(-14,1230.0,456.6666666666667) scale(1.28,1.28)" /><polygon fill="none" opacity="0.64" points="1300.0,200.0 1100.0,600.0 1500.0,600.0" stroke="url(#grad_15)" stroke-width="5" transform="rotate(-15,1300.0,466.6666666666667) scale(1.3,1.3)" /><polygon fill="none" opacity="0.68" points="1370.0,210.0 1170.0,610.0 1570.0,610.0" stroke="url(#grad_16)" stroke-width="5" transform="rotate(-16,1370.0,476.6666666666667) scale(1.32,1.32)" /><polygon fill="none" opacity="0.72" points="1440.0,220.0 1240.0,620.0 1640.0,620.0" stroke="url(#grad_17)" stroke-width="5" transform="rotate(-17,1440.0,486.6666666666667) scale(1.34,1.34)" /><polygon fill="none" opacity="0.76" points="1510.0,230.0 1310.0,630.0 1710.0,630.0" stroke="url(#grad_18)" stroke-width="5" transform="rotate(-18,1510.0,496.6666666666667) scale(1.3599999999999999,1.3599999999999999)" /><polygon fill="none" opacity="0.8" points="1580.0,240.0 1380.0,640.0 1780.0,640.0" stroke="url(#grad_19)" stroke-width="5" transform="rotate(-19,1580.0,506.6666666666667) scale(1.38,1.38)" /><polygon fill="none" opacity="0.84" points="1650.0,250.0 1450.0,650.0 1850.0,650.0" stroke="url(#grad_20)" stroke-width="5" transform="rotate(-20,1650.0,516.6666666666667) scale(1.4,1.4)" /><polygon fill="none" opacity="0.88" points="1720.0,260.0 1520.0,660.0 1920.0,660.0" stroke="url(#grad_21)" stroke-width="5" transform="rotate(-21,1720.0,526.6666666666667) scale(1.42,1.42)" /><polygon fill="none" opacity="0.92" points="1790.0,270.0 1590.0,670.0 1990.0,670.0" stroke="url(#grad_22)" stroke-width="5" transform="rotate(-22,1790.0,536.6666666666667) scale(1.44,1.44)" /><polygon fill="none" opacity="0.96" points="1860.0,280.0 1660.0,680.0 2060.0,680.0" stroke="url(#grad_23)" stroke-width="5" transform="rotate(-23,1860.0,546.6666666666667) scale(1.46,1.46)" /><polygon fill="none" opacity="1.0" points="1930.0,290.0 1730.0,690.0 2130.0,690.0" stroke="url(#grad_24)" stroke-width="5" transform="rotate(-24,1930.0,556.6666666666667) scale(1.48,1.48)" /><polygon fill="none" opacity="1.0" points="2000.0,300.0 1800.0,700.0 2200.0,700.0" stroke="url(#grad_25)" stroke-width="5" transform="rotate(-25,2000.0,566.6666666666667) scale(1.5,1.5)" /><polygon fill="none" opacity="0.96" points="2070.0,310.0 1870.0,710.0 2270.0,710.0" stroke="url(#grad_26)" stroke-width="5" transform="rotate(-26,2070.0,576.6666666666667) scale(1.48,1.48)" /><polygon fill="none" opacity="0.92" points="2140.0,320.0 1940.0,720.0 2340.0,720.0" stroke="url(#grad_27)" stroke-width="5" transform="rotate(-27,2140.0,586.6666666666667) scale(1.46,1.46)" /><polygon fill="none" opacity="0.88" points="2210.0,330.0 2010.0,730.0 2410.0,730.0" stroke="url(#grad_28)" stroke-width="5" transform="rotate(-28,2210.0,596.6666666666667) scale(1.44,1.44)" /><polygon fill="none" opacity="0.84" points="2280.0,340.0 2080.0,740.0 2480.0,740.0" stroke="url(#grad_29)" stroke-width="5" transform="rotate(-29,2280.0,606.6666666666667) scale(1.42,1.42)" /><polygon fill="none" opacity="0.8" points="2350.0,350.0 2150.0,750.0 2550.0,750.0" stroke="url(#grad_30)" stroke-width="5" transform="rotate(-30,2350.0,616.6666666666667) scale(1.4,1.4)" /><polygon fill="none" opacity="0.76" points="2420.0,360.0 2220.0,760.0 2620.0,760.0" stroke="url(#grad_31)" stroke-width="5" transform="rotate(-31,2420.0,626.6666666666667) scale(1.38,1.38)" /><polygon fill="none" opacity="0.72" points="2490.0,370.0 2290.0,770.0 2690.0,770.0" stroke="url(#grad_32)" stroke-width="5" transform="rotate(-32,2490.0,636.6666666666667) scale(1.3599999999999999,1.3599999999999999)" /><polygon fill="none" opacity="0.68" points="2560.0,380.0 2360.0,780.0 2760.0,780.0" stroke="url(#grad_33)" stroke-width="5" transform="rotate(-33,2560.0,646.6666666666667) scale(1.34,1.34)" /><polygon fill="none" opacity="0.64" points="2630.0,390.0 2430.0,790.0 2830.0,790.0" stroke="url(#grad_34)" stroke-width="5" transform="rotate(-34,2630.0,656.6666666666667) scale(1.32,1.32)" /><polygon fill="none" opacity="0.6" points="2700.0,400.0 2500.0,800.0 2900.0,800.0" stroke="url(#grad_35)" stroke-width="5" transform="rotate(-35,2700.0,666.6666666666667) scale(1.3,1.3)" /><polygon fill="none" opacity="0.56" points="2770.0,410.0 2570.0,810.0 2970.0,810.0" stroke="url(#grad_36)" stroke-width="5" transform="rotate(-36,2770.0,676.6666666666667) scale(1.28,1.28)" /><polygon fill="none" opacity="0.52" points="2840.0,420.0 2640.0,820.0 3040.0,820.0" stroke="url(#grad_37)" stroke-width="5" transform="rotate(-37,2840.0,686.6666666666667) scale(1.26,1.26)" /><polygon fill="none" opacity="0.48" points="2910.0,430.0 2710.0,830.0 3110.0,830.0" stroke="url(#grad_38)" stroke-width="5" transform="rotate(-38,2910.0,696.6666666666667) scale(1.24,1.24)" /><polygon fill="none" opacity="0.44" points="2980.0,440.0 2780.0,840.0 3180.0,840.0" stroke="url(#grad_39)" stroke-width="5" transform="rotate(-39,2980.0,706.6666666666667) scale(1.22,1.22)" /><polygon fill="none" opacity="0.4" points="3050.0,450.0 2850.0,850.0 3250.0,850.0" stroke="url(#grad_40)" stroke-width="5" transform="rotate(-40,3050.0,716.6666666666667) scale(1.2,1.2)" /><polygon fill="none" opacity="0.36" points="3120.0,460.0 2920.0,860.0 3320.0,860.0" stroke="url(#grad_41)" stroke-width="5" transform="rotate(-41,3120.0,726.6666666666667) scale(1.18,1.18)" /><polygon fill="none" opacity="0.32" points="3190.0,470.0 2990.0,870.0 3390.0,870.0" stroke="url(#grad_42)" stroke-width="5" transform="rotate(-42,3190.0,736.6666666666667) scale(1.16,1.16)" /><polygon fill="none" opacity="0.28" points="3260.0,480.0 3060.0,880.0 3460.0,880.0" stroke="url(#grad_43)" stroke-width="5" transform="rotate(-43,3260.0,746.6666666666667) scale(1.1400000000000001,1.1400000000000001)" /><polygon fill="none" opacity="0.24" points="3330.0,490.0 3130.0,890.0 3530.0,890.0" stroke="url(#grad_44)" stroke-width="5" transform="rotate(-44,3330.0,756.6666666666667) scale(1.12,1.12)" /><polygon fill="none" opacity="0.2" points="3400.0,500.0 3200.0,900.0 3600.0,900.0" stroke="url(#grad_45)" stroke-width="5" transform="rotate(-45,3400.0,766.6666666666667) scale(1.1,1.1)" /><polygon fill="none" opacity="0.16" points="3470.0,510.0 3270.0,910.0 3670.0,910.0" stroke="url(#grad_46)" stroke-width="5" transform="rotate(-46,3470.0,776.6666666666667) scale(1.08,1.08)" /><polygon fill="none" opacity="0.12" points="3540.0,520.0 3340.0,920.0 3740.0,920.0" stroke="url(#grad_47)" stroke-width="5" transform="rotate(-47,3540.0,786.6666666666667) scale(1.06,1.06)" /><polygon fill="none" opacity="0.08" points="3610.0,530.0 3410.0,930.0 3810.0,930.0" stroke="url(#grad_48)" stroke-width="5" transform="rotate(-48,3610.0,796.6666666666667) scale(1.04,1.04)" /><polygon fill="none" opacity="0.04" points="3680.0,540.0 3480.0,940.0 3880.0,940.0" stroke="url(#grad_49)" stroke-width="5" transform="rotate(-49,3680.0,806.6666666666667) scale(1.02,1.02)" /></svg>