<svg version="1.1" xmlns="http://www.w3.org/2000/svg" xmlns:xlink="http://www.w3.org/1999/xlink" width="212" height="56"><defs><clipPath id="qWwOqTBbELwV"><path fill="none" stroke="none" d=" M 0 0 L 212 0 L 212 56 L 0 56 L 0 0 Z"/></clipPath></defs><g transform="scale(1,1)" clip-path="url(#qWwOqTBbELwV)"><g transform="translate(26,-276)"><path fill="rgb(101,87,210)" stroke="none" paint-order="stroke fill markers" fill-rule="evenodd" d=" M 450 115 L 472 115 C 473.1045694996616 115 474 115.8954305003384 474 117 L 474 139 C 474 140.10456949966158 473.1045694996616 141 472 141 L 450 141 C 448.8954305003384 141 448 140.10456949966158 448 139 L 448 117 C 448 115.8954305003384 448.8954305003384 115 450 115 Z" fill-opacity="1"/><g transform="translate(448,115)"><path fill="none" stroke="rgb(255,255,255)" paint-order="fill stroke markers" d=" M 4.44 13.76 L 9.75 19.07 L 21.99 6.83" stroke-opacity="1" stroke-linecap="square" stroke-miterlimit="10" stroke-width="2.6"/><g transform="translate(-448,-115)"><text fill="rgb(0,0,0)" stroke="none" font-family="geogebra-sans-serif, sans-serif" font-size="32px" font-style="normal" font-weight="normal" text-decoration="normal" x="483" y="140" text-anchor="start" dominant-baseline="alphabetic" fill-opacity="1">Serif</text><g transform="scale(35,35)"><g transform="translate(-0.45714285714285713,8.911571428571428)"><path fill="rgb(0,0,0)" stroke="none" paint-order="stroke fill markers" d=" M 0.72 -0.659 L 0.161 -0.034 L 0.332 -0.034 Q 0.467 -0.034 0.527 -0.10400000000000001 Q 0.5630000000000001 -0.147 0.594 -0.242 Q 0.602 -0.265 0.611 -0.267 Q 0.624 -0.267 0.624 -0.256 L 0.62 -0.241 L 0.549 -0.02 Q 0.544 -0.003 0.536 -0.001 L 0.536 -0.001 L 0.535 -0.001 Q 0.531 0 0.518 0 L 0.083 0 Q 0.06 0 0.058 -0.009000000000000001 L 0.062 -0.027 L 0.062 -0.027 L 0.621 -0.652 L 0.458 -0.652 Q 0.322 -0.652 0.264 -0.5760000000000001 L 0.263 -0.5750000000000001 L 0.263 -0.5750000000000001 L 0.263 -0.5750000000000001 L 0.262 -0.5740000000000001 Q 0.234 -0.537 0.212 -0.468 Q 0.20600000000000002 -0.459 0.199 -0.458 Q 0.187 -0.458 0.187 -0.46900000000000003 Q 0.187 -0.47600000000000003 0.19 -0.483 L 0.245 -0.663 Q 0.25 -0.68 0.258 -0.682 Q 0.262 -0.683 0.276 -0.683 L 0.6980000000000001 -0.683 Q 0.721 -0.683 0.723 -0.674 Q 0.723 -0.671 0.72 -0.659 Z"/></g><g transform="translate(0.22585714285714292,9.061571428571428) scale(0.7,0.7)"><path fill="rgb(0,0,0)" stroke="none" paint-order="stroke fill markers" d=" M 0.28400000000000003 -0.625 Q 0.28400000000000003 -0.594 0.253 -0.578 Q 0.242 -0.5720000000000001 0.231 -0.5720000000000001 Q 0.201 -0.5720000000000001 0.194 -0.599 Q 0.193 -0.604 0.193 -0.608 Q 0.193 -0.636 0.221 -0.653 Q 0.234 -0.661 0.247 -0.661 Q 0.277 -0.661 0.28300000000000003 -0.634 L 0.28300000000000003 -0.633 Q 0.28400000000000003 -0.629 0.28400000000000003 -0.625 M 0.20800000000000002 -0.249 L 0.169 -0.14400000000000002 Q 0.14100000000000001 -0.063 0.14 -0.044 Q 0.14 -0.011 0.164 -0.011 Q 0.227 -0.011 0.262 -0.123 L 0.266 -0.135 Q 0.271 -0.151 0.276 -0.152 L 0.276 -0.153 L 0.281 -0.153 Q 0.293 -0.153 0.293 -0.14300000000000002 Q 0.293 -0.125 0.271 -0.079 Q 0.228 0.011 0.162 0.011 Q 0.109 0.011 0.088 -0.033 Q 0.08 -0.051000000000000004 0.08 -0.07100000000000001 Q 0.08 -0.091 0.10300000000000001 -0.151 Q 0.17300000000000001 -0.339 0.17200000000000001 -0.336 Q 0.183 -0.364 0.183 -0.388 Q 0.183 -0.42 0.158 -0.42 Q 0.10300000000000001 -0.42 0.068 -0.329 L 0.068 -0.328 Q 0.062 -0.313 0.057 -0.296 Q 0.046 -0.279 0.041 -0.278 Q 0.029 -0.278 0.029 -0.28800000000000003 Q 0.029 -0.306 0.051000000000000004 -0.35100000000000003 Q 0.094 -0.442 0.161 -0.442 Q 0.214 -0.442 0.23500000000000001 -0.397 Q 0.243 -0.38 0.243 -0.36 Q 0.243 -0.34 0.23 -0.307 Q 0.213 -0.261 0.20800000000000002 -0.249 Z"/></g><g transform="translate(0.7451349206349207,8.911571428571428)"><path fill="rgb(0,0,0)" stroke="none" paint-order="stroke fill markers" d=" M 0.687 -0.327 L 0.09 -0.327 Q 0.058 -0.327 0.056 -0.34700000000000003 Q 0.056 -0.367 0.089 -0.367 L 0.6880000000000001 -0.367 Q 0.72 -0.367 0.721 -0.34700000000000003 Q 0.721 -0.327 0.687 -0.327 M 0.6880000000000001 -0.133 L 0.089 -0.133 Q 0.057 -0.133 0.056 -0.153 Q 0.056 -0.17300000000000001 0.09 -0.17300000000000001 L 0.687 -0.17300000000000001 Q 0.719 -0.17300000000000001 0.721 -0.153 Q 0.721 -0.133 0.6880000000000001 -0.133 Z"/></g><g transform="translate(1.8009126984126986,8.911571428571428)"><path fill="rgb(0,0,0)" stroke="none" paint-order="stroke fill markers" d=" M 0.088 -0.059000000000000004 L 0.088 -0.059000000000000004 L 0.146 -0.29 Q 0.162 -0.354 0.162 -0.374 Q 0.162 -0.42 0.131 -0.42 Q 0.09 -0.42 0.064 -0.325 Q 0.061 -0.314 0.058 -0.301 Q 0.047 -0.279 0.041 -0.278 Q 0.029 -0.278 0.029 -0.28800000000000003 Q 0.029 -0.304 0.048 -0.356 Q 0.054 -0.373 0.06 -0.385 Q 0.084 -0.434 0.12 -0.441 Q 0.127 -0.442 0.134 -0.442 Q 0.188 -0.442 0.214 -0.397 Q 0.224 -0.378 0.226 -0.355 Q 0.29 -0.442 0.382 -0.442 Q 0.433 -0.442 0.464 -0.41600000000000004 Q 0.492 -0.392 0.496 -0.34500000000000003 Q 0.5640000000000001 -0.442 0.659 -0.442 Q 0.748 -0.442 0.769 -0.373 L 0.769 -0.372 Q 0.774 -0.355 0.774 -0.335 Q 0.774 -0.28200000000000003 0.713 -0.115 Q 0.6950000000000001 -0.07100000000000001 0.6950000000000001 -0.044 Q 0.6950000000000001 -0.011 0.719 -0.011 Q 0.781 -0.011 0.8170000000000001 -0.121 L 0.8210000000000001 -0.135 Q 0.8260000000000001 -0.151 0.8310000000000001 -0.152 L 0.8310000000000001 -0.153 L 0.836 -0.153 Q 0.848 -0.153 0.848 -0.14300000000000002 Q 0.848 -0.126 0.8270000000000001 -0.08 Q 0.784 0.011 0.717 0.011 Q 0.666 0.011 0.644 -0.032 Q 0.635 -0.05 0.635 -0.07100000000000001 Q 0.635 -0.091 0.648 -0.126 Q 0.71 -0.29 0.71 -0.35000000000000003 Q 0.71 -0.42 0.656 -0.42 Q 0.5680000000000001 -0.42 0.51 -0.325 Q 0.494 -0.3 0.491 -0.28700000000000003 Q 0.488 -0.274 0.431 -0.046 Q 0.42 -0.003 0.406 0.006 L 0.405 0.007 L 0.404 0.007 Q 0.397 0.011 0.386 0.011 Q 0.361 0.006 0.357 -0.016 L 0.37 -0.075 L 0.39 -0.151 L 0.418 -0.267 Q 0.433 -0.323 0.433 -0.35000000000000003 Q 0.433 -0.42 0.379 -0.42 Q 0.289 -0.42 0.228 -0.32 Q 0.221 -0.309 0.216 -0.298 L 0.203 -0.248 Q 0.198 -0.225 0.186 -0.181 L 0.164 -0.091 Q 0.147 -0.022 0.145 -0.017 Q 0.136 0.009000000000000001 0.108 0.011 Q 0.083 0.006 0.079 -0.016 Q 0.079 -0.014 0.088 -0.059000000000000004 Z"/></g><g transform="translate(2.6789126984126987,9.061571428571428) scale(0.7,0.7)"><path fill="rgb(0,0,0)" stroke="none" paint-order="stroke fill markers" d=" M 0.28400000000000003 -0.625 Q 0.28400000000000003 -0.594 0.253 -0.578 Q 0.242 -0.5720000000000001 0.231 -0.5720000000000001 Q 0.201 -0.5720000000000001 0.194 -0.599 Q 0.193 -0.604 0.193 -0.608 Q 0.193 -0.636 0.221 -0.653 Q 0.234 -0.661 0.247 -0.661 Q 0.277 -0.661 0.28300000000000003 -0.634 L 0.28300000000000003 -0.633 Q 0.28400000000000003 -0.629 0.28400000000000003 -0.625 M 0.20800000000000002 -0.249 L 0.169 -0.14400000000000002 Q 0.14100000000000001 -0.063 0.14 -0.044 Q 0.14 -0.011 0.164 -0.011 Q 0.227 -0.011 0.262 -0.123 L 0.266 -0.135 Q 0.271 -0.151 0.276 -0.152 L 0.276 -0.153 L 0.281 -0.153 Q 0.293 -0.153 0.293 -0.14300000000000002 Q 0.293 -0.125 0.271 -0.079 Q 0.228 0.011 0.162 0.011 Q 0.109 0.011 0.088 -0.033 Q 0.08 -0.051000000000000004 0.08 -0.07100000000000001 Q 0.08 -0.091 0.10300000000000001 -0.151 Q 0.17300000000000001 -0.339 0.17200000000000001 -0.336 Q 0.183 -0.364 0.183 -0.388 Q 0.183 -0.42 0.158 -0.42 Q 0.10300000000000001 -0.42 0.068 -0.329 L 0.068 -0.328 Q 0.062 -0.313 0.057 -0.296 Q 0.046 -0.279 0.041 -0.278 Q 0.029 -0.278 0.029 -0.28800000000000003 Q 0.029 -0.306 0.051000000000000004 -0.35100000000000003 Q 0.094 -0.442 0.161 -0.442 Q 0.214 -0.442 0.23500000000000001 -0.397 Q 0.243 -0.38 0.243 -0.36 Q 0.243 -0.34 0.23 -0.307 Q 0.213 -0.261 0.20800000000000002 -0.249 Z"/></g><g transform="translate(3.142634920634921,8.911571428571428)"><path fill="rgb(0,0,0)" stroke="none" paint-order="stroke fill markers" d=" M 0.418 -0.25 L 0.617 -0.05 Q 0.63 -0.037 0.63 -0.029 Q 0.63 -0.012 0.61 -0.009000000000000001 Q 0.601 -0.009000000000000001 0.588 -0.022 L 0.388 -0.222 L 0.188 -0.022 Q 0.17500000000000002 -0.009000000000000001 0.167 -0.009000000000000001 Q 0.152 -0.009000000000000001 0.148 -0.024 Q 0.147 -0.027 0.147 -0.029 Q 0.147 -0.038 0.16 -0.051000000000000004 L 0.359 -0.25 L 0.16 -0.45 Q 0.147 -0.463 0.147 -0.47100000000000003 Q 0.147 -0.486 0.163 -0.49 Q 0.165 -0.491 0.167 -0.491 Q 0.17500000000000002 -0.491 0.188 -0.47800000000000004 L 0.389 -0.278 L 0.589 -0.47800000000000004 Q 0.602 -0.491 0.61 -0.491 Q 0.626 -0.491 0.629 -0.47600000000000003 Q 0.63 -0.47300000000000003 0.63 -0.47100000000000003 Q 0.63 -0.463 0.617 -0.45 L 0.418 -0.25 Z"/></g><g transform="translate(4.142857142857143,8.911571428571428)"><path fill="rgb(0,0,0)" stroke="none" paint-order="stroke fill markers" d=" M 0.597 -0.5690000000000001 L 0.597 -0.5690000000000001 L 0.34900000000000003 -0.28400000000000003 Q 0.341 -0.275 0.335 -0.253 L 0.3 -0.112 Q 0.28600000000000003 -0.053 0.28600000000000003 -0.049 Q 0.28600000000000003 -0.037 0.3 -0.035 Q 0.304 -0.034 0.313 -0.033 Q 0.33 -0.031 0.35100000000000003 -0.031 Q 0.377 -0.031 0.379 -0.02 Q 0.379 0 0.36 0 L 0.233 -0.003 L 0.232 -0.003 L 0.107 0 L 0.106 0 Q 0.092 0 0.092 -0.011 Q 0.092 -0.029 0.105 -0.03 Q 0.109 -0.031 0.11900000000000001 -0.031 Q 0.182 -0.032 0.194 -0.042 L 0.196 -0.044 L 0.197 -0.045 Q 0.20400000000000001 -0.053 0.213 -0.09 L 0.258 -0.272 Q 0.258 -0.277 0.254 -0.289 L 0.131 -0.618 Q 0.123 -0.641 0.11 -0.646 Q 0.096 -0.652 0.058 -0.652 Q 0.036000000000000004 -0.652 0.035 -0.663 Q 0.035 -0.683 0.054 -0.683 L 0.165 -0.68 L 0.166 -0.68 L 0.291 -0.683 L 0.292 -0.683 Q 0.307 -0.683 0.307 -0.672 Q 0.299 -0.653 0.28300000000000003 -0.652 Q 0.224 -0.652 0.224 -0.628 Q 0.224 -0.625 0.23 -0.611 L 0.34 -0.314 L 0.5720000000000001 -0.581 Q 0.599 -0.615 0.599 -0.629 Q 0.599 -0.651 0.5630000000000001 -0.652 Q 0.548 -0.652 0.548 -0.664 Q 0.548 -0.683 0.5670000000000001 -0.683 L 0.662 -0.68 L 0.667 -0.68 L 0.747 -0.683 L 0.749 -0.683 Q 0.762 -0.683 0.762 -0.671 Q 0.762 -0.655 0.748 -0.653 Q 0.747 -0.652 0.742 -0.652 Q 0.677 -0.647 0.625 -0.597 L 0.611 -0.583 L 0.597 -0.5690000000000001 Z"/></g><g transform="translate(4.723857142857144,9.061571428571428) scale(0.7,0.7)"><path fill="rgb(0,0,0)" stroke="none" paint-order="stroke fill markers" d=" M 0.28400000000000003 -0.625 Q 0.28400000000000003 -0.594 0.253 -0.578 Q 0.242 -0.5720000000000001 0.231 -0.5720000000000001 Q 0.201 -0.5720000000000001 0.194 -0.599 Q 0.193 -0.604 0.193 -0.608 Q 0.193 -0.636 0.221 -0.653 Q 0.234 -0.661 0.247 -0.661 Q 0.277 -0.661 0.28300000000000003 -0.634 L 0.28300000000000003 -0.633 Q 0.28400000000000003 -0.629 0.28400000000000003 -0.625 M 0.20800000000000002 -0.249 L 0.169 -0.14400000000000002 Q 0.14100000000000001 -0.063 0.14 -0.044 Q 0.14 -0.011 0.164 -0.011 Q 0.227 -0.011 0.262 -0.123 L 0.266 -0.135 Q 0.271 -0.151 0.276 -0.152 L 0.276 -0.153 L 0.281 -0.153 Q 0.293 -0.153 0.293 -0.14300000000000002 Q 0.293 -0.125 0.271 -0.079 Q 0.228 0.011 0.162 0.011 Q 0.109 0.011 0.088 -0.033 Q 0.08 -0.051000000000000004 0.08 -0.07100000000000001 Q 0.08 -0.091 0.10300000000000001 -0.151 Q 0.17300000000000001 -0.339 0.17200000000000001 -0.336 Q 0.183 -0.364 0.183 -0.388 Q 0.183 -0.42 0.158 -0.42 Q 0.10300000000000001 -0.42 0.068 -0.329 L 0.068 -0.328 Q 0.062 -0.313 0.057 -0.296 Q 0.046 -0.279 0.041 -0.278 Q 0.029 -0.278 0.029 -0.28800000000000003 Q 0.029 -0.306 0.051000000000000004 -0.35100000000000003 Q 0.094 -0.442 0.161 -0.442 Q 0.214 -0.442 0.23500000000000001 -0.397 Q 0.243 -0.38 0.243 -0.36 Q 0.243 -0.34 0.23 -0.307 Q 0.213 -0.261 0.20800000000000002 -0.249 Z"/></g></g><path fill="rgb(255,255,255)" stroke="none" paint-order="stroke fill markers" fill-rule="evenodd" d=" M 37.5 109 L 166.5 109 C 168.43299662440776 109 170 110.56700337559222 170 112.5 L 170 140.5 C 170 142.43299662440776 168.43299662440776 144 166.5 144 L 37.5 144 C 35.56700337559222 144 34 142.43299662440776 34 140.5 L 34 112.5 C 34 110.56700337559222 35.56700337559222 109 37.5 109 Z" fill-opacity="1"/><path fill="none" stroke="rgb(179,179,179)" paint-order="fill stroke markers" d=" M 37.5 109 L 166.5 109 C 168.43299662440776 109 170 110.56700337559222 170 112.5 L 170 140.5 C 170 142.43299662440776 168.43299662440776 144 166.5 144 L 37.5 144 C 35.56700337559222 144 34 142.43299662440776 34 140.5 L 34 112.5 C 34 110.56700337559222 35.56700337559222 109 37.5 109 Z" stroke-opacity="1" stroke-linecap="round" stroke-linejoin="round" stroke-miterlimit="10"/><text fill="rgb(0,0,0)" stroke="none" font-family="geogebra-sans-serif, sans-serif" font-size="24px" font-style="normal" font-weight="normal" text-decoration="normal" x="44" y="136" text-anchor="start" dominant-baseline="alphabetic" fill-opacity="1">Show SVG</text><path fill="rgb(255,255,255)" stroke="none" paint-order="stroke fill markers" fill-rule="evenodd" d=" M 204.5 106 L 380.5 106 C 382.4329966244078 106 384 107.56700337559222 384 109.5 L 384 137.5 C 384 139.43299662440776 382.4329966244078 141 380.5 141 L 204.5 141 C 202.56700337559224 141 201 139.43299662440776 201 137.5 L 201 109.5 C 201 107.56700337559222 202.56700337559224 106 204.5 106 Z" fill-opacity="1"/><path fill="none" stroke="rgb(179,179,179)" paint-order="fill stroke markers" d=" M 204.5 106 L 380.5 106 C 382.4329966244078 106 384 107.56700337559222 384 109.5 L 384 137.5 C 384 139.43299662440776 382.4329966244078 141 380.5 141 L 204.5 141 C 202.56700337559224 141 201 139.43299662440776 201 137.5 L 201 109.5 C 201 107.56700337559222 202.56700337559224 106 204.5 106 Z" stroke-opacity="1" stroke-linecap="round" stroke-linejoin="round" stroke-miterlimit="10"/><text fill="rgb(0,0,0)" stroke="none" font-family="geogebra-sans-serif, sans-serif" font-size="24px" font-style="normal" font-weight="normal" text-decoration="normal" x="211" y="133" text-anchor="start" dominant-baseline="alphabetic" fill-opacity="1">Download SVG</text><path fill="rgb(255,255,255)" stroke="none" paint-order="stroke fill markers" fill-rule="evenodd" d=" M 212 30 L 722 30 C 724.2091389993232 30 726 31.790861000676827 726 34 L 726 75 C 726 77.20913899932317 724.2091389993232 79 722 79 L 212 79 C 209.7908610006768 79 208 77.20913899932317 208 75 L 208 34 C 208 31.790861000676827 209.7908610006768 30 212 30 Z" fill-opacity="1"/><path fill="none" stroke="rgb(180,179,186)" paint-order="fill stroke markers" d=" M 212 30 L 722 30 C 724.2091389993232 30 726 31.790861000676827 726 34 L 726 75 C 726 77.20913899932317 724.2091389993232 79 722 79 L 212 79 C 209.7908610006768 79 208 77.20913899932317 208 75 L 208 34 C 208 31.790861000676827 209.7908610006768 30 212 30 Z" stroke-opacity="1" stroke-linecap="round" stroke-linejoin="round" stroke-miterlimit="10"/><text fill="rgb(0,0,0)" stroke="none" font-family="geogebra-sans-serif, sans-serif" font-size="32px" font-style="normal" font-weight="normal" text-decoration="normal" x="210" y="66" text-anchor="start" dominant-baseline="alphabetic" fill-opacity="1">Z</text><text fill="rgb(0,0,0)" stroke="none" font-family="geogebra-sans-serif, sans-serif" font-size="28px" font-style="normal" font-weight="normal" text-decoration="normal" x="230" y="80" text-anchor="start" dominant-baseline="alphabetic" fill-opacity="1">i</text><text fill="rgb(0,0,0)" stroke="none" font-family="geogebra-sans-serif, sans-serif" font-size="32px" font-style="normal" font-weight="normal" text-decoration="normal" x="236" y="66" text-anchor="start" dominant-baseline="alphabetic" fill-opacity="1">=m</text><text fill="rgb(0,0,0)" stroke="none" font-family="geogebra-sans-serif, sans-serif" font-size="28px" font-style="normal" font-weight="normal" text-decoration="normal" x="281" y="80" text-anchor="start" dominant-baseline="alphabetic" fill-opacity="1">i</text><text fill="rgb(0,0,0)" stroke="none" font-family="geogebra-sans-serif, sans-serif" font-size="32px" font-style="normal" font-weight="normal" text-decoration="normal" x="287" y="66" text-anchor="start" dominant-baseline="alphabetic" fill-opacity="1"> \times Y</text><text fill="rgb(0,0,0)" stroke="none" font-family="geogebra-sans-serif, sans-serif" font-size="28px" font-style="normal" font-weight="normal" text-decoration="normal" x="411" y="80" text-anchor="start" dominant-baseline="alphabetic" fill-opacity="1">i</text><text fill="rgb(0,0,0)" stroke="none" font-family="geogebra-sans-serif, sans-serif" font-size="32px" font-style="normal" font-weight="normal" text-decoration="normal" x="30" y="66" text-anchor="start" dominant-baseline="alphabetic" fill-opacity="1">Enter LaTeX</text></g></g></g></g></svg>