<svg version="1.1" xmlns="http://www.w3.org/2000/svg" xmlns:xlink="http://www.w3.org/1999/xlink" width="342" height="85"><defs><clipPath id="MRMAtLeJzBHz"><path fill="none" stroke="none" d=" M 0 0 L 342 0 L 342 85 L 0 85 L 0 0 Z"/></clipPath></defs><g transform="scale(1,1)" clip-path="url(#MRMAtLeJzBHz)"><g transform="translate(-161,-245)"><path fill="rgb(101,87,210)" stroke="none" paint-order="stroke fill markers" fill-rule="evenodd" d=" M 450 115 L 472 115 C 473.1045694996616 115 474 115.8954305003384 474 117 L 474 139 C 474 140.10456949966158 473.1045694996616 141 472 141 L 450 141 C 448.8954305003384 141 448 140.10456949966158 448 139 L 448 117 C 448 115.8954305003384 448.8954305003384 115 450 115 Z" fill-opacity="1"/><g transform="translate(448,115)"><path fill="none" stroke="rgb(255,255,255)" paint-order="fill stroke markers" d=" M 4.44 13.76 L 9.75 19.07 L 21.99 6.83" stroke-opacity="1" stroke-linecap="square" stroke-miterlimit="10" stroke-width="2.6"/><g transform="translate(-448,-115)"><text fill="rgb(0,0,0)" stroke="none" font-family="geogebra-sans-serif, sans-serif" font-size="32px" font-style="normal" font-weight="normal" text-decoration="normal" x="483" y="140" text-anchor="start" dominant-baseline="alphabetic" fill-opacity="1">Serif</text><g transform="scale(35,35)"><g transform="translate(4.885714285714286,8.393222285714286)"><path fill="rgb(0,0,0)" stroke="none" paint-order="stroke fill markers" d=" M 0.303 -0.325 L 0.241 -0.076 Q 0.23700000000000002 -0.061 0.23700000000000002 -0.053 Q 0.23700000000000002 -0.039 0.25 -0.036000000000000004 Q 0.257 -0.034 0.269 -0.033 Q 0.294 -0.031 0.321 -0.031 Q 0.34600000000000003 -0.031 0.34900000000000003 -0.03 L 0.354 -0.023 Q 0.355 -0.021 0.355 -0.019 Q 0.355 0 0.334 0 L 0.186 -0.003 L 0.185 -0.003 L 0.054 0 L 0.053 0 Q 0.038 0 0.038 -0.012 Q 0.038 -0.029 0.054 -0.031 L 0.066 -0.031 Q 0.131 -0.031 0.14400000000000002 -0.045 Q 0.15 -0.052000000000000005 0.156 -0.073 Q 0.156 -0.074 0.157 -0.078 L 0.289 -0.607 Q 0.294 -0.625 0.294 -0.631 Q 0.294 -0.648 0.248 -0.649 L 0.247 -0.649 L 0.229 -0.649 Q 0.203 -0.649 0.201 -0.66 Q 0.201 -0.678 0.217 -0.68 L 0.231 -0.68 L 0.721 -0.68 Q 0.745 -0.68 0.747 -0.673 L 0.748 -0.673 Q 0.75 -0.667 0.748 -0.653 L 0.728 -0.48 Q 0.721 -0.457 0.714 -0.455 Q 0.7020000000000001 -0.455 0.7020000000000001 -0.467 Q 0.7020000000000001 -0.47200000000000003 0.704 -0.485 Q 0.707 -0.512 0.707 -0.539 Q 0.707 -0.606 0.673 -0.628 L 0.672 -0.629 Q 0.64 -0.649 0.561 -0.649 L 0.429 -0.649 Q 0.392 -0.649 0.385 -0.638 L 0.384 -0.638 L 0.384 -0.637 Q 0.381 -0.633 0.379 -0.625 L 0.379 -0.624 L 0.378 -0.623 Q 0.377 -0.619 0.375 -0.61 L 0.311 -0.356 L 0.402 -0.356 Q 0.47500000000000003 -0.356 0.5 -0.383 L 0.501 -0.384 Q 0.518 -0.403 0.531 -0.452 Q 0.536 -0.47100000000000003 0.546 -0.47300000000000003 Q 0.557 -0.47300000000000003 0.558 -0.462 Q 0.558 -0.457 0.555 -0.446 L 0.5 -0.229 Q 0.49 -0.209 0.485 -0.20800000000000002 Q 0.47300000000000003 -0.20800000000000002 0.47300000000000003 -0.22 Q 0.47300000000000003 -0.224 0.47600000000000003 -0.231 Q 0.483 -0.261 0.483 -0.28 Q 0.483 -0.309 0.461 -0.318 L 0.461 -0.318 Q 0.442 -0.325 0.4 -0.325 L 0.303 -0.325 Z"/></g><g transform="translate(5.667714285714286,8.393222285714286)"><path fill="rgb(0,0,0)" stroke="none" paint-order="stroke fill markers" d=" M 0.331 0.24 L 0.331 0.24 Q 0.331 0.25 0.321 0.25 Q 0.309 0.25 0.268 0.209 Q 0.20600000000000002 0.147 0.165 0.062 Q 0.099 -0.074 0.099 -0.25 Q 0.099 -0.419 0.162 -0.555 Q 0.214 -0.666 0.294 -0.733 Q 0.315 -0.75 0.321 -0.75 Q 0.331 -0.75 0.331 -0.74 Q 0.331 -0.735 0.318 -0.723 Q 0.157 -0.559 0.157 -0.25 Q 0.157 0.058 0.314 0.218 Q 0.331 0.23500000000000001 0.331 0.24 Z"/></g><g transform="translate(6.056714285714286,8.393222285714286)"><path fill="rgb(0,0,0)" stroke="none" paint-order="stroke fill markers" d=" M 0.088 -0.059000000000000004 L 0.088 -0.059000000000000004 L 0.146 -0.29 Q 0.162 -0.354 0.162 -0.374 Q 0.162 -0.42 0.131 -0.42 Q 0.09 -0.42 0.064 -0.325 Q 0.061 -0.314 0.058 -0.301 Q 0.047 -0.279 0.041 -0.278 Q 0.029 -0.278 0.029 -0.28800000000000003 Q 0.029 -0.304 0.049 -0.36 L 0.049 -0.361 Q 0.049 -0.362 0.05 -0.362 L 0.05 -0.363 L 0.05 -0.364 L 0.059000000000000004 -0.385 Q 0.081 -0.425 0.10400000000000001 -0.435 Q 0.11800000000000001 -0.442 0.134 -0.442 Q 0.19 -0.442 0.215 -0.395 Q 0.224 -0.377 0.226 -0.355 Q 0.29 -0.442 0.382 -0.442 Q 0.468 -0.442 0.491 -0.376 Q 0.497 -0.358 0.497 -0.335 Q 0.497 -0.28400000000000003 0.436 -0.115 Q 0.418 -0.07100000000000001 0.418 -0.044 Q 0.418 -0.011 0.442 -0.011 Q 0.508 -0.011 0.544 -0.135 Q 0.549 -0.151 0.554 -0.152 L 0.554 -0.153 L 0.559 -0.153 Q 0.5710000000000001 -0.153 0.5710000000000001 -0.14300000000000002 Q 0.5710000000000001 -0.126 0.55 -0.08 Q 0.507 0.011 0.44 0.011 Q 0.389 0.011 0.367 -0.032 Q 0.358 -0.05 0.358 -0.07100000000000001 Q 0.358 -0.091 0.368 -0.117 Q 0.433 -0.292 0.433 -0.35000000000000003 Q 0.433 -0.42 0.379 -0.42 Q 0.289 -0.42 0.228 -0.32 Q 0.221 -0.309 0.216 -0.298 L 0.203 -0.248 Q 0.198 -0.225 0.186 -0.181 L 0.164 -0.091 Q 0.147 -0.022 0.145 -0.017 Q 0.136 0.009000000000000001 0.108 0.011 Q 0.083 0.006 0.079 -0.016 Q 0.079 -0.014 0.088 -0.059000000000000004 Z"/></g><g transform="translate(6.878936507936508,8.393222285714286)"><path fill="rgb(0,0,0)" stroke="none" paint-order="stroke fill markers" d=" M 0.661 -0.23 L 0.116 -0.23 Q 0.084 -0.23 0.083 -0.25 Q 0.083 -0.27 0.116 -0.27 L 0.661 -0.27 Q 0.6930000000000001 -0.27 0.6940000000000001 -0.25 Q 0.6940000000000001 -0.23 0.661 -0.23 Z"/></g><g transform="translate(7.879158730158731,8.393222285714286)"><path fill="rgb(0,0,0)" stroke="none" paint-order="stroke fill markers" d=" M 0.294 -0.64 L 0.294 -0.079 Q 0.294 -0.049 0.306 -0.041 Q 0.323 -0.031 0.387 -0.031 L 0.419 -0.031 L 0.419 0 Q 0.384 -0.003 0.257 -0.003 Q 0.13 -0.003 0.095 0 L 0.095 -0.031 L 0.127 -0.031 Q 0.20400000000000001 -0.031 0.215 -0.049 L 0.216 -0.05 Q 0.22 -0.058 0.22 -0.079 L 0.22 -0.597 Q 0.168 -0.5710000000000001 0.089 -0.5710000000000001 L 0.089 -0.602 Q 0.209 -0.602 0.271 -0.666 Q 0.29 -0.666 0.293 -0.659 L 0.293 -0.659 L 0.293 -0.658 Q 0.294 -0.655 0.294 -0.64 Z"/></g><g transform="translate(8.379158730158732,8.393222285714286)"><path fill="rgb(0,0,0)" stroke="none" paint-order="stroke fill markers" d=" M 0.289 -0.25 L 0.289 -0.25 Q 0.289 -0.081 0.226 0.055 Q 0.17400000000000002 0.166 0.094 0.233 Q 0.073 0.25 0.067 0.25 Q 0.057 0.25 0.057 0.24 Q 0.057 0.23500000000000001 0.07 0.223 Q 0.231 0.059000000000000004 0.231 -0.25 Q 0.231 -0.555 0.081 -0.712 L 0.076 -0.717 Q 0.057 -0.735 0.057 -0.74 Q 0.057 -0.75 0.067 -0.75 Q 0.079 -0.75 0.12 -0.709 Q 0.182 -0.647 0.223 -0.562 Q 0.289 -0.426 0.289 -0.25 Z"/></g><g transform="translate(9.04593650793651,8.393222285714286)"><path fill="rgb(0,0,0)" stroke="none" paint-order="stroke fill markers" d=" M 0.687 -0.327 L 0.09 -0.327 Q 0.058 -0.327 0.056 -0.34700000000000003 Q 0.056 -0.367 0.089 -0.367 L 0.6880000000000001 -0.367 Q 0.72 -0.367 0.721 -0.34700000000000003 Q 0.721 -0.327 0.687 -0.327 M 0.6880000000000001 -0.133 L 0.089 -0.133 Q 0.057 -0.133 0.056 -0.153 Q 0.056 -0.17300000000000001 0.09 -0.17300000000000001 L 0.687 -0.17300000000000001 Q 0.719 -0.17300000000000001 0.721 -0.153 Q 0.721 -0.133 0.6880000000000001 -0.133 Z"/></g><g transform="translate(10.101714285714289,8.393222285714286)"><path fill="rgb(0,0,0)" stroke="none" paint-order="stroke fill markers" d=" M 0.255 0.25 L 0.11800000000000001 0.25 L 0.11800000000000001 -0.75 L 0.255 -0.75 L 0.255 -0.71 L 0.158 -0.71 L 0.158 0.21 L 0.255 0.21 L 0.255 0.25 Z"/></g><g transform="translate(10.413871908910862,7.716714285714286)"><path fill="rgb(0,0,0)" stroke="none" paint-order="stroke fill markers" d=" M 0.373 -0.378 Q 0.378 -0.41200000000000003 0.404 -0.42 Q 0.40900000000000003 -0.422 0.41500000000000004 -0.422 Q 0.441 -0.422 0.444 -0.395 Q 0.444 -0.389 0.437 -0.361 L 0.401 -0.221 Q 0.386 -0.158 0.379 -0.131 Q 0.366 -0.079 0.366 -0.057 Q 0.366 -0.011 0.396 -0.011 Q 0.434 -0.011 0.46 -0.091 Q 0.465 -0.108 0.47200000000000003 -0.135 Q 0.48 -0.152 0.486 -0.153 Q 0.498 -0.153 0.498 -0.14300000000000002 Q 0.498 -0.128 0.48 -0.073 Q 0.47400000000000003 -0.056 0.468 -0.044 Q 0.44 0.011 0.394 0.011 Q 0.338 0.011 0.313 -0.037 Q 0.306 -0.049 0.303 -0.064 Q 0.24 0.011 0.17300000000000001 0.011 Q 0.098 0.011 0.062 -0.057 Q 0.04 -0.097 0.04 -0.149 Q 0.04 -0.257 0.115 -0.34900000000000003 Q 0.185 -0.433 0.267 -0.441 Q 0.274 -0.442 0.281 -0.442 Q 0.342 -0.442 0.373 -0.378 M 0.308 -0.11900000000000001 L 0.308 -0.11900000000000001 L 0.358 -0.315 Q 0.361 -0.33 0.361 -0.332 Q 0.361 -0.353 0.343 -0.383 Q 0.321 -0.42 0.28200000000000003 -0.42 Q 0.23 -0.42 0.183 -0.352 Q 0.17400000000000002 -0.339 0.166 -0.324 Q 0.137 -0.266 0.117 -0.159 Q 0.111 -0.125 0.111 -0.105 Q 0.111 -0.037 0.149 -0.017 Q 0.16 -0.011 0.17500000000000002 -0.011 Q 0.231 -0.011 0.28800000000000003 -0.082 Q 0.302 -0.098 0.307 -0.115 L 0.307 -0.116 Q 0.308 -0.11800000000000001 0.308 -0.11900000000000001 Z"/></g><rect fill="rgb(0,0,0)" stroke="none" x="10.413871908910862" y="8.123222785714285" width="0.529" height="0.039999"/><g transform="translate(10.463871908910862,9.079173285714283)"><path fill="rgb(0,0,0)" stroke="none" paint-order="stroke fill markers" d=" M 0.23900000000000002 -0.683 L 0.165 -0.382 Q 0.223 -0.442 0.28200000000000003 -0.442 Q 0.357 -0.442 0.394 -0.373 Q 0.41500000000000004 -0.333 0.41500000000000004 -0.28200000000000003 Q 0.41500000000000004 -0.176 0.341 -0.084 Q 0.272 0.001 0.189 0.01 Q 0.181 0.011 0.17400000000000002 0.011 Q 0.10200000000000001 0.011 0.067 -0.056 Q 0.047 -0.094 0.047 -0.146 Q 0.047 -0.18 0.063 -0.247 L 0.145 -0.5730000000000001 Q 0.159 -0.632 0.159 -0.635 Q 0.159 -0.646 0.145 -0.649 L 0.145 -0.649 Q 0.133 -0.652 0.109 -0.652 Q 0.08700000000000001 -0.652 0.085 -0.664 Q 0.085 -0.681 0.10400000000000001 -0.684 L 0.226 -0.6940000000000001 Q 0.23900000000000002 -0.6940000000000001 0.23900000000000002 -0.683 M 0.145 -0.305 L 0.123 -0.213 Q 0.107 -0.15 0.107 -0.112 Q 0.107 -0.026000000000000002 0.159 -0.013000000000000001 Q 0.166 -0.011 0.17400000000000002 -0.011 Q 0.227 -0.011 0.273 -0.081 Q 0.28300000000000003 -0.096 0.292 -0.114 Q 0.319 -0.171 0.337 -0.268 Q 0.343 -0.303 0.343 -0.326 Q 0.343 -0.406 0.294 -0.418 L 0.293 -0.419 Q 0.28700000000000003 -0.42 0.28 -0.42 Q 0.22 -0.42 0.16 -0.34 Q 0.152 -0.33 0.145 -0.305 Z"/></g><g transform="translate(11.143696198774098,8.393222285714286)"><path fill="rgb(0,0,0)" stroke="none" paint-order="stroke fill markers" d=" M 0.203 -0.001 L 0.203 -0.001 Q 0.203 0.096 0.14 0.169 Q 0.123 0.189 0.112 0.193 Q 0.10200000000000001 0.193 0.10200000000000001 0.182 Q 0.10200000000000001 0.177 0.113 0.166 Q 0.17300000000000001 0.106 0.18 0.019 Q 0.181 0.009000000000000001 0.181 -0.001 Q 0.181 -0.016 0.179 -0.016 Q 0.178 -0.016 0.17400000000000002 -0.013000000000000001 Q 0.16 0 0.139 0 Q 0.10200000000000001 0 0.09 -0.034 Q 0.08600000000000001 -0.043000000000000003 0.08600000000000001 -0.053 Q 0.08600000000000001 -0.089 0.117 -0.10200000000000001 Q 0.127 -0.106 0.139 -0.106 Q 0.183 -0.106 0.198 -0.048 Q 0.203 -0.027 0.203 -0.001 Z"/></g><g transform="translate(11.777131599748449,7.716714285714286)"><path fill="rgb(0,0,0)" stroke="none" paint-order="stroke fill markers" d=" M 0.396 -0.38 L 0.396 -0.38 Q 0.368 -0.41600000000000004 0.31 -0.42 Q 0.245 -0.42 0.192 -0.354 Q 0.179 -0.338 0.169 -0.32 Q 0.129 -0.247 0.117 -0.148 Q 0.115 -0.132 0.115 -0.12 Q 0.115 -0.038 0.171 -0.017 Q 0.185 -0.011 0.20500000000000002 -0.011 Q 0.295 -0.011 0.367 -0.07100000000000001 Q 0.388 -0.088 0.405 -0.11 Q 0.41200000000000003 -0.12 0.418 -0.12 Q 0.427 -0.12 0.43 -0.107 Q 0.43 -0.096 0.396 -0.064 Q 0.313 0.011 0.203 0.011 Q 0.108 0.011 0.065 -0.065 Q 0.041 -0.106 0.041 -0.158 Q 0.041 -0.26 0.11900000000000001 -0.34700000000000003 Q 0.196 -0.433 0.291 -0.441 Q 0.3 -0.442 0.309 -0.442 Q 0.386 -0.442 0.41600000000000004 -0.395 Q 0.427 -0.377 0.427 -0.356 Q 0.427 -0.312 0.392 -0.296 Q 0.382 -0.292 0.371 -0.292 Q 0.341 -0.292 0.335 -0.318 Q 0.334 -0.322 0.334 -0.327 Q 0.334 -0.34900000000000003 0.352 -0.366 Q 0.366 -0.38 0.396 -0.38 Z"/></g><rect fill="rgb(0,0,0)" stroke="none" x="11.733631599748449" y="8.123222785714285" width="0.52" height="0.039999"/><g transform="translate(11.733631599748449,9.079173285714283)"><path fill="rgb(0,0,0)" stroke="none" paint-order="stroke fill markers" d=" M 0.516 -0.683 L 0.372 -0.105 Q 0.366 -0.08 0.366 -0.057 Q 0.366 -0.011 0.396 -0.011 Q 0.434 -0.011 0.46 -0.091 Q 0.465 -0.108 0.47200000000000003 -0.135 Q 0.48 -0.152 0.486 -0.153 Q 0.498 -0.153 0.498 -0.14300000000000002 Q 0.498 -0.128 0.48 -0.073 Q 0.47400000000000003 -0.056 0.468 -0.044 Q 0.44 0.011 0.394 0.011 Q 0.338 0.011 0.313 -0.037 Q 0.306 -0.049 0.303 -0.064 Q 0.24 0.011 0.17300000000000001 0.011 Q 0.098 0.011 0.062 -0.057 Q 0.04 -0.097 0.04 -0.149 Q 0.04 -0.257 0.115 -0.34900000000000003 Q 0.185 -0.433 0.267 -0.441 Q 0.274 -0.442 0.281 -0.442 Q 0.342 -0.442 0.373 -0.378 L 0.433 -0.615 L 0.436 -0.635 Q 0.436 -0.646 0.422 -0.649 Q 0.41000000000000003 -0.652 0.386 -0.652 Q 0.364 -0.652 0.362 -0.664 Q 0.362 -0.681 0.376 -0.683 Q 0.47000000000000003 -0.6940000000000001 0.503 -0.6940000000000001 Q 0.516 -0.6940000000000001 0.516 -0.683 M 0.308 -0.11900000000000001 L 0.308 -0.11900000000000001 L 0.358 -0.315 Q 0.361 -0.33 0.361 -0.332 Q 0.361 -0.353 0.343 -0.383 Q 0.321 -0.42 0.28200000000000003 -0.42 Q 0.23 -0.42 0.183 -0.352 Q 0.17400000000000002 -0.339 0.166 -0.324 Q 0.137 -0.266 0.117 -0.159 Q 0.111 -0.125 0.111 -0.105 Q 0.111 -0.037 0.149 -0.017 Q 0.16 -0.011 0.17500000000000002 -0.011 Q 0.231 -0.011 0.28800000000000003 -0.082 Q 0.302 -0.098 0.307 -0.115 L 0.307 -0.116 Q 0.308 -0.11800000000000001 0.308 -0.11900000000000001 Z"/></g><g transform="translate(12.454455889611685,8.393222285714286)"><path fill="rgb(0,0,0)" stroke="none" paint-order="stroke fill markers" d=" M 0.203 -0.001 L 0.203 -0.001 Q 0.203 0.096 0.14 0.169 Q 0.123 0.189 0.112 0.193 Q 0.10200000000000001 0.193 0.10200000000000001 0.182 Q 0.10200000000000001 0.177 0.113 0.166 Q 0.17300000000000001 0.106 0.18 0.019 Q 0.181 0.009000000000000001 0.181 -0.001 Q 0.181 -0.016 0.179 -0.016 Q 0.178 -0.016 0.17400000000000002 -0.013000000000000001 Q 0.16 0 0.139 0 Q 0.10200000000000001 0 0.09 -0.034 Q 0.08600000000000001 -0.043000000000000003 0.08600000000000001 -0.053 Q 0.08600000000000001 -0.089 0.117 -0.10200000000000001 Q 0.127 -0.106 0.139 -0.106 Q 0.183 -0.106 0.198 -0.048 Q 0.203 -0.027 0.203 -0.001 Z"/></g><g transform="translate(12.899122556278352,8.393222285714286)"><path fill="rgb(0,0,0)" stroke="none" paint-order="stroke fill markers" d=" M 0.18 -0.083 L 0.18 0 L 0.097 0 L 0.097 -0.083 L 0.18 -0.083 Z"/></g><g transform="translate(13.177122556278352,8.393222285714286)"><path fill="rgb(0,0,0)" stroke="none" paint-order="stroke fill markers" d=" M 0.18 -0.083 L 0.18 0 L 0.097 0 L 0.097 -0.083 L 0.18 -0.083 Z"/></g><g transform="translate(13.455122556278353,8.393222285714286)"><path fill="rgb(0,0,0)" stroke="none" paint-order="stroke fill markers" d=" M 0.18 -0.083 L 0.18 0 L 0.097 0 L 0.097 -0.083 L 0.18 -0.083 Z"/></g><g transform="translate(13.733122556278353,8.393222285714286)"><path fill="rgb(0,0,0)" stroke="none" paint-order="stroke fill markers" d=" M 0.159 -0.75 L 0.159 0.25 L 0.022 0.25 L 0.022 0.21 L 0.11900000000000001 0.21 L 0.11900000000000001 -0.71 L 0.022 -0.71 L 0.022 -0.75 L 0.159 -0.75 Z"/></g></g><path fill="rgb(255,255,255)" stroke="none" paint-order="stroke fill markers" fill-rule="evenodd" d=" M 37.5 109 L 166.5 109 C 168.43299662440776 109 170 110.56700337559222 170 112.5 L 170 140.5 C 170 142.43299662440776 168.43299662440776 144 166.5 144 L 37.5 144 C 35.56700337559222 144 34 142.43299662440776 34 140.5 L 34 112.5 C 34 110.56700337559222 35.56700337559222 109 37.5 109 Z" fill-opacity="1"/><path fill="none" stroke="rgb(179,179,179)" paint-order="fill stroke markers" d=" M 37.5 109 L 166.5 109 C 168.43299662440776 109 170 110.56700337559222 170 112.5 L 170 140.5 C 170 142.43299662440776 168.43299662440776 144 166.5 144 L 37.5 144 C 35.56700337559222 144 34 142.43299662440776 34 140.5 L 34 112.5 C 34 110.56700337559222 35.56700337559222 109 37.5 109 Z" stroke-opacity="1" stroke-linecap="round" stroke-linejoin="round" stroke-miterlimit="10"/><text fill="rgb(0,0,0)" stroke="none" font-family="geogebra-sans-serif, sans-serif" font-size="24px" font-style="normal" font-weight="normal" text-decoration="normal" x="44" y="136" text-anchor="start" dominant-baseline="alphabetic" fill-opacity="1">Show SVG</text><path fill="rgb(255,255,255)" stroke="none" paint-order="stroke fill markers" fill-rule="evenodd" d=" M 204.5 106 L 380.5 106 C 382.4329966244078 106 384 107.56700337559222 384 109.5 L 384 137.5 C 384 139.43299662440776 382.4329966244078 141 380.5 141 L 204.5 141 C 202.56700337559224 141 201 139.43299662440776 201 137.5 L 201 109.5 C 201 107.56700337559222 202.56700337559224 106 204.5 106 Z" fill-opacity="1"/><path fill="none" stroke="rgb(179,179,179)" paint-order="fill stroke markers" d=" M 204.5 106 L 380.5 106 C 382.4329966244078 106 384 107.56700337559222 384 109.5 L 384 137.5 C 384 139.43299662440776 382.4329966244078 141 380.5 141 L 204.5 141 C 202.56700337559224 141 201 139.43299662440776 201 137.5 L 201 109.5 C 201 107.56700337559222 202.56700337559224 106 204.5 106 Z" stroke-opacity="1" stroke-linecap="round" stroke-linejoin="round" stroke-miterlimit="10"/><text fill="rgb(0,0,0)" stroke="none" font-family="geogebra-sans-serif, sans-serif" font-size="24px" font-style="normal" font-weight="normal" text-decoration="normal" x="211" y="133" text-anchor="start" dominant-baseline="alphabetic" fill-opacity="1">Download SVG</text><path fill="rgb(255,255,255)" stroke="none" paint-order="stroke fill markers" fill-rule="evenodd" d=" M 212 30 L 722 30 C 724.2091389993232 30 726 31.790861000676827 726 34 L 726 75 C 726 77.20913899932317 724.2091389993232 79 722 79 L 212 79 C 209.7908610006768 79 208 77.20913899932317 208 75 L 208 34 C 208 31.790861000676827 209.7908610006768 30 212 30 Z" fill-opacity="1"/><path fill="none" stroke="rgb(180,179,186)" paint-order="fill stroke markers" d=" M 212 30 L 722 30 C 724.2091389993232 30 726 31.790861000676827 726 34 L 726 75 C 726 77.20913899932317 724.2091389993232 79 722 79 L 212 79 C 209.7908610006768 79 208 77.20913899932317 208 75 L 208 34 C 208 31.790861000676827 209.7908610006768 30 212 30 Z" stroke-opacity="1" stroke-linecap="round" stroke-linejoin="round" stroke-miterlimit="10"/><text fill="rgb(0,0,0)" stroke="none" font-family="geogebra-sans-serif, sans-serif" font-size="32px" font-style="normal" font-weight="normal" text-decoration="normal" x="210" y="66" text-anchor="start" dominant-baseline="alphabetic" fill-opacity="1">F(n-1) = [\frac{a}{b},\frac{c}{d}, ...]</text><text fill="rgb(0,0,0)" stroke="none" font-family="geogebra-sans-serif, sans-serif" font-size="32px" font-style="normal" font-weight="normal" text-decoration="normal" x="30" y="66" text-anchor="start" dominant-baseline="alphabetic" fill-opacity="1">Enter LaTeX</text></g></g></g></g></svg>